SplineFontDB: 3.0
FontName: GoudyBookletter1911BoldCondensed
FullName: GoudyBookletter1911Bold Condensed
FamilyName: GoudyBookletter1911BoldCondensed
Weight: Condensed
Copyright: This font has been released into the public domain by its author, Barry Schwartz. This applies worldwide.\n\nIn some countries this may not be legally possible; if so:\n\nBarry Schwartz grants anyone the right to use this work for any purpose, without any conditions, unless such conditions are required by law.
Version: 2010.07.03
ItalicAngle: 0
UnderlinePosition: -90
UnderlineWidth: 45
Ascent: 737
Descent: 263
LayerCount: 2
Layer: 0 0 "Back"  1
Layer: 1 0 "Fore"  0
NeedsXUIDChange: 1
XUID: [1021 658 797806517 331928]
UniqueID: 4088483
FSType: 0
OS2Version: 3
OS2_WeightWidthSlopeOnly: 0
OS2_UseTypoMetrics: 1
CreationTime: 1199071125
ModificationTime: 1329137375
PfmFamily: 17
TTFWeight: 400
TTFWidth: 5
LineGap: 90
VLineGap: 0
Panose: 2 0 5 3 0 0 0 0 0 0
OS2TypoAscent: 0
OS2TypoAOffset: 1
OS2TypoDescent: 0
OS2TypoDOffset: 1
OS2TypoLinegap: 90
OS2WinAscent: 0
OS2WinAOffset: 1
OS2WinDescent: -1
OS2WinDOffset: 1
HheadAscent: 0
HheadAOffset: 1
HheadDescent: 1
HheadDOffset: 1
OS2SubXSize: 650
OS2SubYSize: 700
OS2SubXOff: 0
OS2SubYOff: 140
OS2SupXSize: 650
OS2SupYSize: 700
OS2SupXOff: 0
OS2SupYOff: 480
OS2StrikeYSize: 49
OS2StrikeYPos: 258
OS2Vendor: 'PfEd'
OS2CodePages: 00000092.0d940000
OS2UnicodeRanges: 8000002f.0000004a.00000000.00000000
Lookup: 1 0 0 "'ss01' Style Set 1 in Latin lookup 0"  {"'ss01' Style Set 1 in Latin lookup 0 subtable"  } ['aalt' ('DFLT' <'dflt' > 'latn' <'dflt' > ) 'ss01' ('DFLT' <'dflt' > 'latn' <'dflt' > ) ]
Lookup: 4 0 1 "'liga' Standard Ligatures in Latin lookup 1"  {"'liga' Standard Ligatures in Latin lookup 1 per glyph data 0"  "'liga' Standard Ligatures in Latin lookup 1 per glyph data 1"  "'liga' Standard Ligatures in Latin lookup 1 per glyph data 2"  "'liga' Standard Ligatures in Latin lookup 1 per glyph data 3"  } ['liga' ('DFLT' <'dflt' > 'latn' <'dflt' > ) ]

StartChar: .notdef
Encoding: 65536 -1 0
Width: 450
Flags: HW
HStem: 0 50<130 370> 441 50<130 370>
VStem: 90 40<50 441> 370 40<50 441>
LayerCount: 2
Fore
SplineSet
74 -20 m 1
 74 511 l 1
 426 511 l 1
 426 -20 l 1
 74 -20 l 1
146 70 m 1
 354 70 l 1
 354 421 l 1
 146 421 l 1
 146 70 l 1
EndSplineSet
EndChar

StartChar: exclam
Encoding: 33 33 2
Width: 292
GlyphClass: 2
Flags: HW
HStem: -16 101<131.167 198.312>
VStem: 118.9 76.8<367.096 637.634> 123.7 82.4<-6.4071 75.7681> 134.1 25.6<195.064 282.718>
LayerCount: 2
Fore
SplineSet
187.7 694 m 0
 212.013 694 211.7 660.689 211.7 648 c 0
 211.7 625 l 0
 211.7 408.106 181.609 229.916 174.879 204.675 c 0
 173.144 198.166 166.419 175 146.1 175 c 0
 117.726 175 118.1 214.848 118.1 225 c 0
 118.1 241.73 l 1
 113.301 463.69 102.9 606.43 102.9 611 c 0
 102.9 619.62 104.089 628.083 107.626 635.463 c 0
 111.72 644.006 117.035 648.003 121.003 651.104 c 1
 174.204 690.221 174.801 694 187.7 694 c 0
165.3 105 m 0
 195.436 105 222.1 74.501 222.1 34 c 0
 222.1 -4.04492 197.283 -36 165.3 -36 c 0
 135.746 -36 107.7 -7.0752 107.7 35 c 0
 107.7 77.4473 136.189 105 165.3 105 c 0
EndSplineSet
EndChar

StartChar: quotedbl
Encoding: 34 34 3
Width: 350
GlyphClass: 2
Flags: HW
HStem: 457 258
VStem: 69.4 251.2
LayerCount: 2
Fore
SplineSet
159 735 m 0
 187.15 735 204.6 706.229 204.6 677 c 0
 204.6 654.08 195.657 638.072 191.398 628.314 c 1
 165.241 570.072 117.493 463.155 112.6 455 c 0
 112.354 454.59 l 1
 112.092 454.196 l 0
 106.501 445.811 97.5664 437 85.4004 437 c 0
 64.8252 437 53.4004 459.65 53.4004 479 c 0
 53.4004 480 l 0
 53.4004 496.009 54.9473 494.049 101.529 665.725 c 1
 108.131 687.731 120.946 735 159 735 c 0
291.8 735 m 0
 319.487 735 336.6 705.953 336.6 677 c 0
 336.6 654.816 328.908 639.106 324.148 628.199 c 1
 297.169 569.948 250.787 463.446 244.151 454.253 c 1
 236.899 443.899 229.316 437 217.4 437 c 0
 196.825 437 185.4 459.65 185.4 479 c 0
 185.4 480 l 0
 185.4 495.903 187.106 494.635 234.247 665.422 c 1
 240.123 687.457 253.1 735 291.8 735 c 0
EndSplineSet
EndChar

StartChar: numbersign
Encoding: 35 35 4
Width: 496
GlyphClass: 2
Flags: HW
HStem: 157 45<98.3852 177.572 220.084 310.245 352.963 453.558> 353 45<98.3902 199.172 242.375 331.973 375.175 453.487>
VStem: 177.574 36<-3.6207 156.771> 206.374 36<398 553.952> 310.374 35.2<-10.2178 157> 316.774 36<202 347.564> 339.174 36<398 558.829>
LayerCount: 2
Fore
SplineSet
314.628 333 m 1
 249.936 333 l 1
 246.168 297.935 240.329 247.398 237.564 222 c 1
 301.954 222 l 1
 309.045 285.584 312.799 316.302 314.628 333 c 1
324.616 419.163 m 1
 345.637 605.266 341.26 604.811 350.374 620 c 1
 350.402 619.973 357.729 635 375.974 635 c 0
 383.974 635 l 0
 393.886 635 412.773 628.076 412.773 604 c 0
 412.773 590.281 397.569 465.259 392.632 418 c 1
 438.374 418 l 0
 444.857 418 452.382 416.387 458.678 409.907 c 0
 469.181 399.098 469.574 383.688 469.574 372 c 0
 469.574 361.409 468.084 348.886 459.699 340.338 c 0
 452.891 333.396 445.499 333 440.773 333 c 0
 382.63 333 l 1
 378.809 297.418 372.951 246.294 370.302 222 c 1
 439.174 222 l 0
 443.836 222 450.733 221.762 457.598 215.807 c 0
 467.568 207.158 469.574 192.759 469.574 180 c 0
 469.574 169.739 469.088 156.224 460.105 145.979 c 0
 453.725 138.701 445.774 137 439.174 137 c 0
 355.974 137 l 0
 355.174 137 374.225 138.106 360.753 137.297 c 1
 341.51 -34.2588 344.581 -28.2031 339.085 -41.9443 c 0
 331.739 -60.3066 316.43 -63 307.174 -63 c 0
 290.412 -63 275.174 -49.8574 275.174 -29 c 0
 275.174 -17.8516 288.254 93.6953 292.873 137 c 1
 248.773 137 l 0
 238.478 137 232.37 136.891 226.862 136.576 c 1
 223.402 136.275 229.569 137.246 228.4 137.051 c 1
 209.422 -33.9609 211.356 -29.7812 207.63 -41.4277 c 0
 207.217 -42.7168 l 1
 206.666 -43.9229 l 0
 199.291 -60.0557 185.143 -63 172.773 -63 c 0
 163.354 -63 141.574 -56.9414 141.574 -29 c 0
 141.574 -18.2178 155.322 93.8193 160.114 137 c 1
 111.174 137 l 0
 103.495 137 94.54 139.908 88.6738 148.89 c 0
 82.1465 158.883 82.374 169.431 82.374 176 c 0
 82.374 184.726 80.2773 198.473 89.3516 211.285 c 0
 95.5723 220.067 104.307 222 111.174 222 c 0
 169.099 222 l 1
 173.517 260.144 179.053 308.809 181.625 333 c 1
 112.773 333 l 0
 108.111 333 101.214 333.238 94.3496 339.193 c 0
 84.3789 347.842 82.374 362.241 82.374 375 c 0
 82.374 384.848 82.9678 397.605 91.1162 407.846 c 0
 97.2871 415.602 105.599 418 112.773 418 c 0
 191.571 418 l 1
 212.86 606.632 208.604 602.188 215.854 617.29 c 0
 216.05 617.698 l 1
 216.261 618.094 l 0
 223.396 631.471 235.957 635 247.974 635 c 0
 248.773 635 l 0
 252.672 635 280.773 634.693 280.773 602 c 0
 280.773 590.727 265.211 464.391 260.039 418 c 1
 331.974 418 l 0
 332.773 418 324.616 419.163 324.616 419.163 c 1
EndSplineSet
EndChar

StartChar: dollar
Encoding: 36 36 5
Width: 427
GlyphClass: 2
Flags: HW
HStem: 1 41<142.83 190.598> 599 39<153.782 190.593 224.2 253.824>
VStem: 54.6 72.8<74.0898 178.771> 74.6 46.4<446.429 562.384> 190.6 32.8<-96.9934 1.49219 48.8126 294.997 409.001 594.467 636.303 684.991> 307.4 56<101.123 239.657>
LayerCount: 2
Fore
SplineSet
358.6 531 m 0
 358.6 497.135 339.759 467 309.8 467 c 0
 255.852 467 250.167 554.38 240.2 569.318 c 1
 240.2 420 l 0
 240.2 412.165 239.405 404.148 239.396 403.766 c 1
 243.914 401.3 253.609 397.932 268.037 390.418 c 1
 341.682 350.812 362.734 292.007 371.518 255.777 c 1
 376.798 233.781 379.4 211.01 379.4 189 c 0
 379.4 68.4551 308.468 2.36426 239.4 -15.1221 c 1
 239.4 -78 l 0
 239.4 -94.8584 229.522 -117 207.4 -117 c 0
 186.953 -117 175.4 -97.1641 175.4 -78 c 0
 175.4 -18.4287 l 1
 92.5557 -9.82227 38.5996 68.6904 38.5996 133 c 0
 38.5996 172.786 61.1191 208 93.7998 208 c 0
 121.085 208 143.4 180.905 143.4 142 c 0
 143.4 126.376 141 116.667 141 107 c 0
 141 80.3359 157.04 68.793 174.6 63.8086 c 1
 174.6 301.024 l 1
 95.1572 325.952 58.5996 412.737 58.5996 484 c 0
 58.5996 572.04 108.372 643.359 174.6 654.936 c 1
 174.6 665 l 0
 174.6 669.174 174.444 678.073 179.027 687.607 c 0
 184.333 698.644 194.924 705 206.6 705 c 0
 207.4 705 l 0
 218.06 705 228.449 700.042 234.476 689.471 c 0
 239.35 680.925 240.2 671.858 240.2 665 c 0
 240.2 656.266 l 1
 309.706 642.257 358.6 586.439 358.6 531 c 0
174.6 573.106 m 1
 156.62 561.989 137 540.089 137 504 c 0
 137 468.282 157.549 447.43 174.6 436.208 c 1
 174.6 573.106 l 1
239.395 269.121 m 1
 239.317 156.605 238.6 104.21 238.6 75 c 0
 238.6 71.9619 238.608 69.7148 238.608 69.7148 c 1
 260.312 83.4111 291.4 115.746 291.4 171 c 0
 291.4 224.653 260.239 255.666 239.395 269.121 c 1
EndSplineSet
EndChar

StartChar: percent
Encoding: 37 37 6
Width: 738
GlyphClass: 2
Flags: HW
HStem: -93 39<558.821 630.838> 170 38<200.421 272.438> 252 38<548.949 619.042> 515 38<190.626 260.642>
VStem: 114.8 48<264.374 459.62> 298.8 48<265.244 456.628> 473.2 48<2.06218 116 118 196.557> 657.2 48<2.68817 193.628>
LayerCount: 2
Fore
SplineSet
606.746 555.344 m 0
 293.881 -103.915 290.423 -114.4 281.825 -125.496 c 1
 275.469 -134.615 265.799 -143 252.4 -143 c 0
 238.367 -143 216.4 -131.977 216.4 -104 c 0
 216.4 -93.1172 220.404 -85.2676 221.289 -83.0557 c 0
 221.527 -82.4609 l 1
 221.796 -81.8877 l 0
 538.392 593.391 534.201 588.535 542.687 599.142 c 1
 542.687 599.142 564.397 615 572.4 615 c 0
 576.809 615 612.4 614.474 612.4 577 c 0
 612.4 566.458 609.124 559.802 606.746 555.344 c 0
225.2 495 m 0
 192.361 495 178.8 430.552 178.8 379 c 0
 178.8 339.748 190.493 262.919 211.507 240.299 c 1
 221.335 230.182 232.399 228 236.4 228 c 0
 268.316 228 276.255 272.152 278.987 296.058 c 1
 281.348 313.759 282.8 331.323 282.8 348 c 0
 282.8 426.999 256.396 495 225.2 495 c 0
236.4 573 m 0
 288.584 573 362.8 523.234 362.8 375 c 0
 362.8 248.586 310.32 150 225.2 150 c 0
 173.227 150 98.7998 198.565 98.7998 346 c 0
 98.7998 490.843 161.293 573 236.4 573 c 0
583.6 232 m 0
 551.503 232 537.323 171.985 536.44 122.619 c 1
 537.2 120.721 l 1
 537.2 116 l 0
 537.2 77.7148 548.69 1.13672 570.113 -21.9229 c 1
 580.007 -32.835 589.851 -34 594.8 -34 c 0
 626.765 -34 634.652 10.2617 637.396 33.1279 c 1
 639.736 50.6699 641.2 68.2969 641.2 86 c 0
 641.2 163.929 614.821 232 583.6 232 c 0
594.8 310 m 0
 646.984 310 721.2 260.234 721.2 112 c 0
 721.2 -13.3857 668.795 -113 583.6 -113 c 0
 531.626 -113 457.2 -64.4346 457.2 83 c 0
 457.2 227.843 519.692 310 594.8 310 c 0
EndSplineSet
EndChar

StartChar: ampersand
Encoding: 38 38 7
Width: 746
GlyphClass: 2
Flags: HW
HStem: -23 77<286.558 433.3> 154 35<397.734 457.955> 360 32<230.882 324.802> 384 62<189.027 223.571> 440 33<229.254 324.366> 645 56<205.055 282.865> 677 38<598.71 663.78>
VStem: 107.9 63.2<178.938 345.842> 130.3 35.2<460.076 594.439> 163.9 60.8<400.864 431.197> 326.3 28<395.011 436.183> 354.3 28.8<206.326 300.965> 458.3 42.4<191.42 247> 542.3 56<616.704 676.103> 552.7 26.4<156.893 293.79> 698.3 32.8<504.154 630.001>
LayerCount: 2
Fore
SplineSet
146.331 421.247 m 1
 145.809 422.151 145.356 422.92 144.792 423.878 c 0
 135.034 440.438 114.3 474.662 114.3 529 c 0
 114.3 630.614 186.955 721 270.3 721 c 0
 296.666 721 371.9 711.303 371.9 640 c 0
 371.9 601.762 345.609 575 319.9 575 c 0
 270.619 575 270.052 625 250.3 625 c 0
 225.387 625 181.5 588.707 181.5 529 c 0
 181.5 507.409 189.02 483.312 195.963 471.213 c 0
 196.747 469.845 197.989 467.967 198.231 467.623 c 1
 212.169 474.89 243.369 493 284.7 493 c 0
 326.166 493 370.3 469.117 370.3 417 c 0
 370.3 364.143 323.356 340 280.7 340 c 0
 279.9 340 l 0
 244.75 340 218.897 354.093 206.192 361.182 c 1
 193.125 331.473 187.1 300.382 187.1 268 c 0
 187.1 192.16 226.796 83.001 371.467 74 c 1
 385.5 74 l 0
 486.633 74 523.534 139.002 533.717 194.683 c 0
 535.785 205.993 536.7 217.01 536.7 227 c 0
 536.7 286.299 509.103 327 469.5 327 c 0
 430.062 327 399.1 286.949 399.1 251 c 0
 399.1 244.148 400.318 237.382 402.524 231.423 c 0
 406.46 220.788 413.147 213.453 421.299 210.391 c 1
 418.177 214.257 417.634 215.111 415.9 218 c 0
 415.634 218.444 l 1
 415.387 218.906 l 0
 410.674 227.744 407.1 239.062 407.1 252 c 0
 407.1 282.641 427.697 308 454.3 308 c 0
 485.697 308 516.7 276.066 516.7 230 c 0
 516.7 178.279 478.825 134 431.9 134 c 0
 401.796 134 375.17 152.165 358.197 180.134 c 0
 345.666 200.783 338.3 226.844 338.3 255 c 0
 338.3 317.827 373.08 373.599 424.745 405.889 c 0
 496.782 450.911 573.93 442.608 623.013 469.283 c 1
 653.418 486.476 682.3 519.947 682.3 570 c 0
 682.3 598.916 672.956 622.277 659.727 637.532 c 0
 648.94 649.97 635.927 656.511 623.284 656.99 c 1
 626.167 648.143 627.1 642.264 627.1 633 c 0
 627.1 600.612 606.709 572 578.3 572 c 0
 547.138 572 526.3 605.952 526.3 641 c 0
 526.3 698.575 569.945 735 612.7 735 c 0
 641.311 735 669.879 720.543 693.227 695.98 c 0
 724.602 662.972 747.1 610.828 747.1 548 c 0
 747.1 431.328 667.061 341.355 574.837 332.605 c 1
 584.106 310.99 595.1 278.726 595.1 232 c 0
 595.1 230 l 0
 595.1 209.975 592.92 190.277 588.817 171.254 c 0
 562.766 50.4375 460.382 -43 340.7 -43 c 0
 199.066 -43 91.9004 90.0049 91.9004 245 c 0
 91.9004 342.597 133.217 402.53 146.331 421.247 c 1
292.7 412 m 0
 300.923 412 308.451 414.153 310.174 415.336 c 1
 309.605 416.018 305.514 420 291.9 420 c 0
 277.878 420 265.073 417.91 256.185 415.478 c 1
 266.692 412.315 277.558 412 292.7 412 c 0
EndSplineSet
EndChar

StartChar: quotesingle
Encoding: 39 39 8
Width: 201
GlyphClass: 2
Flags: HW
HStem: 457 258
VStem: 52.9 119.2
LayerCount: 2
Fore
SplineSet
142.5 735 m 0
 170.65 735 188.1 706.229 188.1 677 c 0
 188.1 654.846 179.372 638.565 174.898 628.314 c 1
 148.741 570.072 100.993 463.155 96.0996 455 c 0
 95.8545 454.59 l 1
 95.5918 454.196 l 0
 90.001 445.811 81.0664 437 68.9004 437 c 0
 48.0352 437 36.9004 460.314 36.9004 480 c 0
 36.9004 481 l 0
 36.9004 496.447 38.3965 493.862 85.0293 665.725 c 1
 91.6309 687.731 104.446 735 142.5 735 c 0
EndSplineSet
EndChar

StartChar: parenleft
Encoding: 40 40 9
Width: 326
GlyphClass: 2
Flags: HW
HStem: 698 20G<269.1 278.7>
VStem: 72.3 60.8<116.498 405.186>
LayerCount: 2
Fore
SplineSet
305.1 -174 m 0
 305.1 -198.529 288.494 -214 272.3 -214 c 0
 260.096 -214 250.087 -206.849 242.842 -199.361 c 1
 132.147 -90.5908 56.2998 77.2578 56.2998 262 c 0
 56.2998 429.626 122.489 601.788 240.089 719.802 c 1
 246.209 725.539 257.069 738 273.9 738 c 0
 284.547 738 294.958 732.172 301.224 720.964 c 0
 304.738 714.679 306.7 706.951 306.7 699 c 0
 306.7 676.502 293.47 663.415 289.879 659.768 c 1
 211.869 571.639 149.1 435.359 149.1 263 c 0
 149.1 106.587 200.764 -33.9609 287.073 -132.213 c 0
 287.35 -132.528 l 1
 287.613 -132.858 l 0
 289.971 -135.803 305.1 -149.655 305.1 -174 c 0
EndSplineSet
EndChar

StartChar: parenright
Encoding: 41 41 10
Width: 326
GlyphClass: 2
Flags: HW
HStem: 702 20G<87.1 95.1>
VStem: 229.9 60.8<121.91 410.739>
LayerCount: 2
Fore
SplineSet
58.7002 701 m 0
 58.7002 710.233 61.0635 719.041 65.2354 725.938 c 0
 71.6318 736.51 81.5361 742 91.5 742 c 0
 105.138 742 114.051 732.858 120.436 726.873 c 1
 231.334 618.255 306.7 449.968 306.7 265 c 0
 306.7 97.373 240.511 -74.7871 122.911 -192.802 c 1
 116.792 -198.538 105.93 -211 89.0996 -211 c 0
 72.9053 -211 56.2998 -195.529 56.2998 -171 c 0
 56.2998 -148.032 70.8984 -135.468 72.9863 -132.858 c 0
 73.2803 -132.49 l 1
 73.5898 -132.141 l 0
 151.51 -44.3848 213.9 91.2871 213.9 264 c 0
 213.9 421.557 162.668 561.083 76.959 659.945 c 1
 72.249 664.845 58.7002 677.549 58.7002 701 c 0
EndSplineSet
EndChar

StartChar: asterisk
Encoding: 42 42 11
Width: 301
GlyphClass: 2
Flags: HW
HStem: 448 21G<244.3 265.9> 497 109<118.417 142.298 191.901 214.508> 701 20G<160.7 179.9>
VStem: 136.7 62.4<389.462 485.336 613.573 717.469> 142.3 49.6<426.987 496.937 607.071 673.685>
LayerCount: 2
Fore
SplineSet
306.3 617 m 0
 306.3 577.116 272.253 562.027 255.142 553.931 c 1
 274.275 546.988 304.7 531.102 304.7 487 c 0
 304.7 452.366 281.981 428 258.3 428 c 0
 237.165 428 221.427 445.719 211.046 458.305 c 1
 213.126 443.955 215.1 434.488 215.1 423 c 0
 215.1 374.278 176.241 364 165.5 364 c 0
 149.389 364 120.7 379.986 120.7 426 c 0
 120.7 439.088 122.398 451.902 123.853 462.938 c 1
 110.253 449.584 93.6553 433 70.2998 433 c 0
 35.5791 433 28.7002 477.389 28.7002 488 c 0
 28.7002 532.22 67.9883 549.142 84.8525 557.854 c 1
 66.6738 564.154 31.0996 577.222 31.0996 624 c 0
 31.0996 659.376 57.2168 679 77.5 679 c 0
 99.5459 679 113.575 658.84 123.086 646.163 c 1
 121.549 657.386 120.7 665.258 120.7 676 c 0
 120.7 721.936 146.077 741 168.7 741 c 0
 202.32 741 215.9 706.36 215.9 675 c 0
 215.9 667.497 215.081 657.995 214.436 652.588 c 1
 226.423 663.984 240.776 676 259.1 676 c 0
 282.789 676 306.3 651.197 306.3 617 c 0
EndSplineSet
EndChar

StartChar: plus
Encoding: 43 43 12
Width: 631
GlyphClass: 2
Flags: HW
HStem: 231 57<112.6 327.8 374.2 589.363>
VStem: 327.8 46.4<-38 231 288 556.954>
LayerCount: 2
Fore
SplineSet
131 211 m 2
 123.947 211 114.571 211.569 106.501 220.483 c 0
 98.5254 229.293 96.5996 241.831 96.5996 253 c 0
 96.5996 266 l 0
 96.5996 278.494 99.5918 290.818 107.147 298.848 c 0
 116.502 308.789 126.881 308 131.8 308 c 0
 311.8 308 l 1
 311.8 537 l 0
 311.8 544.979 312.408 555.834 319.042 565.162 c 0
 325.865 574.758 335.481 577 343.8 577 c 0
 355 577 l 0
 365.327 577 375.224 573.102 381.833 563.932 c 0
 390.335 552.135 390.2 538.416 390.2 531 c 0
 390.2 308 l 1
 573.4 308 l 0
 579.947 308 588.74 307.195 596.228 298.745 c 0
 603.548 290.483 605.4 278.908 605.4 269 c 0
 605.4 255 l 0
 605.4 241.84 602.367 229.015 594.498 220.619 c 0
 584.615 210.074 573.502 211 567.8 211 c 0
 390.2 211 l 1
 390.2 -16 l 0
 390.2 -25.1445 389.302 -36.7324 382.21 -46.2529 c 0
 374.999 -55.9346 365.16 -58 356.6 -58 c 0
 345.4 -58 l 0
 334.979 -58 324.573 -54.1279 318.131 -43.7148 c 0
 311.223 -32.5459 311.8 -20.8594 311.8 -15 c 0
 311.8 211 l 1
 131 211 l 2
EndSplineSet
EndChar

StartChar: comma
Encoding: 44 44 13
Width: 204
GlyphClass: 2
Flags: HW
HStem: -147 247<84.3 109.1>
VStem: 132.3 40.8<-86.0814 -11.7099>
LayerCount: 2
Fore
SplineSet
102.7 120 m 0
 152.649 120 189.1 55.7773 189.1 -15 c 0
 189.1 -115.982 119.108 -167 92.2998 -167 c 0
 78.4277 -167 61.0996 -154.658 61.0996 -130 c 0
 61.0996 -95.1885 90.3027 -88.1094 100.712 -76.2305 c 0
 116.294 -58.4473 116.3 -47.7383 116.3 -44 c 0
 116.3 -6.92578 82.4912 -57.7764 47.1592 7.58691 c 1
 41.3984 17.6689 37.9004 31.0908 37.9004 45 c 0
 37.9004 90.667 71.0479 120 102.7 120 c 0
EndSplineSet
EndChar

StartChar: hyphen
Encoding: 45 45 14
Width: 204
GlyphClass: 2
Flags: HW
HStem: 154 181
VStem: 32.3002 162.4
LayerCount: 2
Fore
SplineSet
181.9 355 m 0
 211.415 355 210.7 311.941 210.7 296 c 0
 210.7 272.968 197.944 260.031 190.295 252.383 c 0
 189.89 251.977 l 1
 189.464 251.605 l 0
 74.3164 151.049 69.6328 134 46.7002 134 c 0
 19.6123 134 16.2998 168.292 16.2998 180 c 0
 16.2998 194 l 0
 16.2998 201.408 16.8555 210.37 21.0264 218.77 c 0
 25.6963 228.176 31.6777 232.673 38.3916 238.443 c 1
 158.535 343.172 161.919 355 181.9 355 c 0
EndSplineSet
EndChar

StartChar: period
Encoding: 46 46 15
Width: 204
GlyphClass: 2
Flags: HW
HStem: -17 118<77.4131 149.846>
VStem: 65.9 95.2<-2.99638 86.7526>
LayerCount: 2
Fore
SplineSet
113.1 121 m 0
 147.149 121 177.1 86.6914 177.1 42 c 0
 177.1 0.483398 150.38 -37 113.9 -37 c 0
 80.8145 -37 49.9004 -3.7793 49.9004 43 c 0
 49.9004 89.9805 80.5205 121 113.1 121 c 0
EndSplineSet
EndChar

StartChar: slash
Encoding: 47 47 16
Width: 391
GlyphClass: 2
Flags: HW
LayerCount: 2
Fore
SplineSet
72.2998 -207 m 0
 72.1973 -207 32.2998 -212.141 32.2998 -173 c 0
 32.2998 -152.259 33.6963 -160.783 335.644 580.079 c 0
 335.896 580.696 l 1
 336.18 581.29 l 0
 339.342 587.876 348.16 600 361.9 600 c 0
 365.19 600 402.7 600.942 402.7 562 c 0
 402.7 541.551 399.193 544.524 264.121 224.831 c 1
 96.4521 -191.324 103.264 -185.58 94.0137 -197.142 c 0
 93.21 -198.147 l 1
 92.2998 -199 l 0
 86.1064 -204.806 78.4912 -207 72.2998 -207 c 0
EndSplineSet
EndChar

StartChar: zero
Encoding: 48 48 17
Width: 426
GlyphClass: 2
Flags: HW
HStem: -18 60<176.774 295.702> 385 55<174.2 294.358>
VStem: 56.4 52.8<130.19 299.792> 362 49.6<126.916 295.427>
LayerCount: 2
Fore
SplineSet
234.8 460 m 0
 340.874 460 427.6 348.527 427.6 211 c 0
 427.6 74.4482 340.881 -38 234 -38 c 0
 128.932 -38 40.4004 71.2412 40.4004 211 c 0
 40.4004 348.689 128.05 460 234.8 460 c 0
234 365 m 0
 175.278 365 125.2 298.433 125.2 215 c 0
 125.2 129.564 176.033 62 236.4 62 c 0
 291.428 62 346 119.716 346 211 c 0
 346 300.836 291.615 365 234 365 c 0
EndSplineSet
EndChar

StartChar: one
Encoding: 49 49 18
Width: 319
GlyphClass: 2
Flags: HW
HStem: -6 40<67.2049 142.29 203.62 288.759> 381 43<55.4384 142.4 203.2 274.392>
VStem: 142.4 60.8<39.854 381.18>
LayerCount: 2
Fore
SplineSet
165.6 441 m 0
 223.857 441 251.989 444 263.2 444 c 0
 286.484 444 290.4 415.301 290.4 402 c 0
 290.4 358.883 255.44 364.052 219.2 361.336 c 1
 219.2 61 l 0
 219.2 60.6094 219.209 59.9004 219.209 59.9004 c 1
 268.192 54.9043 304.8 62.7744 304.8 12 c 0
 304.8 -7.61816 293.015 -26 275.2 -26 c 0
 268.794 -26 228.702 -20 176 -20 c 0
 124.113 -20 84.8496 -26 78.4004 -26 c 0
 71.1221 -26 62.8535 -22.4258 57.6748 -14.3428 c 0
 50.8721 -3.72559 51.2002 7.38477 51.2002 15 c 0
 51.2002 41.9971 68.8174 52.502 80.1211 53.915 c 1
 104.379 56.5137 119.856 57.3467 126.4 58.4551 c 1
 126.4 361.222 l 1
 116.252 361.807 111.7 361.976 104.873 362.226 c 0
 68.999 363.538 39.2002 363.668 39.2002 408 c 0
 39.2002 426.203 50.2393 444 67.2002 444 c 0
 74.1396 444 86.1982 442.931 107.938 442.074 c 0
 122.716 441.492 141.71 441 165.6 441 c 0
EndSplineSet
EndChar

StartChar: two
Encoding: 50 50 19
Width: 404
GlyphClass: 2
Flags: HW
HStem: -13 21G<96.4 108.8> 0 58<199.367 313.75> 362 62<112.28 217.806>
VStem: 64.4 28.8<265.197 333.097> 265.2 49.6<205.76 305.971> 355.6 24<119.161 154.717>
LayerCount: 2
Fore
SplineSet
105.2 -33 m 0
 80.1865 -33 67.5996 -11.7012 67.5996 6 c 0
 67.5996 43.1592 95.0654 44.4219 136.987 84.7969 c 1
 155.738 103.141 173.803 123.012 190.638 144.062 c 0
 205.773 162.99 220.291 183.389 233.299 204.165 c 1
 240.341 215.902 249.2 231.885 249.2 250 c 0
 249.2 298.172 200.077 342 159.6 342 c 0
 126.156 342 110.5 314.17 109.199 290.369 c 1
 109.169 282.873 109.188 245 81.2002 245 c 0
 80.4004 245 l 0
 62.166 245 48.4004 266.923 48.4004 301 c 0
 48.4004 385.72 104.726 444 174.8 444 c 0
 253.33 444 330.8 378.771 330.8 278 c 0
 330.8 196.899 281.747 146.798 234.608 88.8809 c 0
 232.146 85.8564 228.622 81.4863 226.816 79.2324 c 1
 239.423 80.0303 252.454 80.9492 262.392 81.9434 c 1
 293.343 84.7061 317.113 90.6748 340.906 152.941 c 1
 343.604 160.867 350.553 175 365.2 175 c 0
 365.2 175 395.6 177.771 395.6 143 c 0
 395.6 130.15 394.978 134.48 365.308 9.17969 c 1
 363.179 0.662109 359.627 -7.4082 353.317 -12.8359 c 0
 342.746 -21.9316 333.5 -19.4863 327.676 -19.9717 c 1
 252.589 -24.0078 114.136 -33 105.2 -33 c 0
EndSplineSet
EndChar

StartChar: three
Encoding: 51 51 20
Width: 324
GlyphClass: 2
Flags: HW
HStem: -182 43<144.702 227.789> 370 73<87.7814 175.236>
VStem: 57.3 28<298.009 363.51> 200.5 7.2<180 273> 264.5 43.2<-79.2107 66.58>
LayerCount: 2
Fore
SplineSet
131.7 463 m 0
 165.502 463 270.1 430.259 270.1 326 c 0
 270.1 273.404 242.555 215.752 229.381 187.704 c 1
 240.392 183.899 253.701 178.525 270.189 166.256 c 1
 294.794 148.512 323.7 110.001 323.7 35 c 0
 323.7 2.04395 318.816 -76.751 285.967 -129.219 c 1
 276.386 -144.96 264.242 -158.076 251.151 -168.292 c 0
 220.518 -192.196 183.644 -202 150.9 -202 c 0
 80.918 -202 42.9004 -147.496 42.9004 -109 c 0
 42.9004 -71.2803 69.9385 -49 94.0996 -49 c 0
 155.458 -49 139.4 -119 191.7 -119 c 0
 204.166 -119 213.126 -114.798 220.438 -107.989 c 0
 238.865 -90.8291 248.5 -51.0557 248.5 -10 c 0
 248.5 44.8848 236.381 84 166.9 84 c 0
 148.406 84 144.174 82 134.9 82 c 0
 117.453 82 105.3 97.9043 105.3 115 c 0
 105.3 140.656 120.021 143.465 138.175 165.374 c 1
 151.985 182.114 164.92 201.083 173.456 221.273 c 0
 180.421 237.749 184.5 254.853 184.5 273 c 0
 184.5 303.585 173.48 350 126.9 350 c 0
 96.543 350 101.3 342.004 101.3 332 c 0
 101.3 323.799 102.1 315.951 102.1 311 c 0
 102.1 279.434 75.0791 278 71.7002 278 c 0
 47.8193 278 41.2998 308.115 41.2998 339 c 0
 41.2998 399.091 71.7168 463 131.7 463 c 0
EndSplineSet
EndChar

StartChar: four
Encoding: 52 52 21
Width: 401
GlyphClass: 2
Flags: HW
HStem: 0 74<308.125 369.587> 0 66<131.301 260.1> 409 20G<294.9 300.1>
VStem: 260.1 48<-186 -1.19998e-07 74.157 299.997>
LayerCount: 2
Fore
SplineSet
76.0996 -20 m 2
 68.3262 -20 46.5 -14.3711 46.5 14 c 0
 46.5 36.749 59.1797 50.6621 62.9775 57.4434 c 1
 271 431.483 265.933 422.093 272.338 432.386 c 1
 276.936 439.571 285.245 449 297.7 449 c 0
 309.537 449 324.9 436.225 324.9 410.969 c 1
 324.122 94 l 1
 328.9 94 l 0
 352.519 94 352.725 96 362.5 96 c 0
 377.844 96 394.5 85.0586 394.5 63 c 0
 394.5 56.5127 393.059 8.48145 382.193 -8.49414 c 0
 381.64 -9.3584 l 1
 381.014 -10.1426 l 0
 375.309 -17.2734 366.591 -20 360.1 -20 c 0
 324.1 -20 l 1
 324.1 -174 l 0
 324.1 -184.237 317.688 -206 300.1 -206 c 0
 268.1 -206 l 0
 249.324 -206 244.1 -182.699 244.1 -174 c 0
 244.1 -20 l 1
 76.0996 -20 l 2
244.1 246.956 m 1
 194.621 155.414 169.145 108.214 157.333 86 c 1
 244.1 86 l 1
 244.1 246.956 l 1
EndSplineSet
EndChar

StartChar: five
Encoding: 53 53 22
Width: 343
GlyphClass: 2
Flags: HW
HStem: 191 66<117.408 175.21> 299 88<211.257 286.343> 347 88<129.908 191.887>
VStem: 226.9 48.8<-40.5996 120.982>
LayerCount: 2
Fore
SplineSet
135.838 276.954 m 1
 216.677 274.548 291.7 191.57 291.7 61 c 0
 291.7 -2.9834 272.796 -59.5352 251.369 -99.1768 c 1
 220.104 -157.272 162.348 -214 130.1 -214 c 0
 123.079 -214 115.564 -211.298 109.348 -204.222 c 0
 104.187 -198.348 100.5 -189.151 100.5 -179 c 0
 100.5 -133.588 152.013 -132.61 184.644 -70.1797 c 1
 198.542 -42.748 210.9 -5.14258 210.9 38 c 0
 210.9 124.089 163.829 171 120.5 171 c 0
 100.148 171 95.374 161 79.7002 161 c 0
 61.1621 161 53.2998 181.983 53.2998 196 c 0
 53.2998 209.246 63.248 246.624 74.6016 296.827 c 0
 78.1084 312.333 81.7344 328.283 85.1963 343.478 c 0
 93.9551 381.923 101.864 416.432 103.7 424.648 c 1
 103.7 425.852 l 1
 104.845 429.428 l 0
 107.228 436.874 115.238 455 133.3 455 c 0
 150.987 455 245.928 412.296 266.28 407.244 c 1
 267.371 408.19 268.501 409.432 270.019 411.489 c 0
 276.716 420.569 281.44 434.46 289.187 444.142 c 0
 289.99 445.147 l 1
 290.9 446 l 0
 297.29 451.991 304.723 453 306.9 453 c 0
 316.82 453 335.7 444.459 335.7 419 c 0
 335.7 404.753 333.979 406.879 297.839 302.792 c 1
 295.185 293.531 287.347 279 272.5 279 c 0
 255.661 279 174.852 314.197 146.303 324.845 c 1
 144.896 319.209 143.774 314.053 141.974 305.65 c 0
 140.444 298.512 137.745 285.782 135.838 276.954 c 1
EndSplineSet
EndChar

StartChar: six
Encoding: 54 54 23
Width: 434
GlyphClass: 2
Flags: HW
HStem: -28 40<197.949 300.751> 365 36<167.25 258.356>
VStem: 74.2 51.2<112.246 315.477> 342.2 61.6<76.1476 246.159>
LayerCount: 2
Fore
SplineSet
326.2 142 m 0
 326.2 226.822 284.923 345 207.8 345 c 0
 157.366 345 141.4 283.732 141.4 217 c 0
 141.4 104.745 195.062 32 250.2 32 c 0
 291.959 32 326.2 70.1973 326.2 142 c 0
348.581 647.835 m 0
 354.434 649.628 358.981 650 360.6 650 c 0
 384.062 650 392.6 622.22 392.6 607 c 0
 392.6 581.9 374.585 573.018 370.103 570.617 c 0
 369.424 570.253 l 1
 368.721 569.969 l 0
 301.575 542.841 240.801 490.998 197.058 420.435 c 1
 202.585 420.856 205.966 421 211 421 c 0
 322.914 421 419.8 315.004 419.8 169 c 0
 419.8 53.4863 352.658 -48 251.8 -48 c 0
 155.414 -48 58.2002 52.9053 58.2002 227 c 0
 58.2002 428.139 185.852 608.81 348.581 647.835 c 0
EndSplineSet
EndChar

StartChar: seven
Encoding: 55 55 24
Width: 406
GlyphClass: 2
Flags: HW
HStem: 330 82<119.794 221.781> 337 75<136.638 325.799>
VStem: 74.6 26.4<217.026 286.324> 89.8 31.2<412 469.92>
LayerCount: 2
Fore
SplineSet
88.2002 197 m 0
 81.1211 197 58.5996 203.173 58.5996 233 c 0
 58.5996 248.463 72.2061 330.603 73.7998 451.165 c 1
 73.7998 466.692 82.2021 490 104.2 490 c 0
 132.749 490 132.943 451.901 136.034 432 c 1
 373.8 432 l 0
 385.422 432 407.4 424.199 407.4 394 c 0
 407.4 393 l 0
 407.4 377.266 405.764 378.62 360.183 208.687 c 1
 249.975 -209.386 268.582 -233.898 230.947 -237.866 c 1
 223.771 -239.186 218.623 -239 213.8 -239 c 0
 208.2 -239 l 0
 199.439 -239 169.8 -239.237 169.8 -205 c 0
 169.8 -188.752 170.421 -194.404 259.51 131.65 c 1
 290.889 239.519 307.87 296.507 310.48 308.853 c 1
 309.307 309.709 304.215 311.384 300.557 312.15 c 1
 274.269 315.119 249.833 317 223.4 317 c 0
 190.446 317 144.717 312.081 140.409 310.704 c 1
 139.957 310.55 l 1
 139.496 310.429 l 0
 138.611 310.196 137.741 309.921 137.521 309.846 c 1
 135.043 304.576 129.553 280.756 116.248 225.934 c 1
 114.927 220.979 108.927 197 88.2002 197 c 0
EndSplineSet
EndChar

StartChar: eight
Encoding: 56 56 25
Width: 401
GlyphClass: 2
Flags: HW
HStem: -22 47<161.106 277.058> 308 58<185.075 225.825> 621 47<157.171 249.03>
VStem: 56.9 59.2<81.6211 226.516> 70.5 55.2<439.759 579.141> 284.1 59.2<442.856 574.658> 317.7 66.4<85.8585 202.16>
LayerCount: 2
Fore
SplineSet
141.7 514 m 0
 141.7 433.767 205.967 390.037 223.957 386.146 c 1
 224.374 386.626 224.449 386.721 224.786 387.142 c 0
 225.047 387.469 l 1
 225.32 387.779 l 0
 249.744 415.616 268.1 457.755 268.1 503 c 0
 268.1 558.154 239.324 601 202.5 601 c 0
 201.803 601 l 1
 168.366 599.821 141.7 562.78 141.7 514 c 0
220.1 45 m 0
 264.965 45 301.7 85.0693 301.7 136 c 0
 301.7 189.76 258.142 244.864 195.345 284.111 c 0
 194.795 284.455 l 1
 194.268 284.85 l 0
 193.129 285.705 191.707 286.735 191.356 286.982 c 1
 174.128 273.157 132.1 216.108 132.1 151 c 0
 132.1 88.0986 172.624 45 220.1 45 c 0
211.3 -42 m 0
 117.099 -42 40.9004 47.4814 40.9004 153 c 0
 40.9004 220.779 72.8506 263.363 102.184 292.696 c 1
 118.392 308.492 130.181 319.758 136.035 325.369 c 1
 90.8467 368.222 54.5 430.191 54.5 502 c 0
 54.5 591.987 118.101 688 211.3 688 c 0
 285.117 688 359.3 635.433 359.3 526 c 0
 359.3 458.05 327.958 393.907 284.658 354.227 c 1
 351.657 309.658 400.1 240.461 400.1 161 c 0
 400.1 49.6621 308.446 -42 211.3 -42 c 0
EndSplineSet
EndChar

StartChar: nine
Encoding: 57 57 26
Width: 457
GlyphClass: 2
Flags: HW
HStem: -5 39<217.868 332.058> 383 45<173.96 286.072>
VStem: 76 58.4<148.813 316.685> 366.4 61.6<81.1 269.826>
LayerCount: 2
Fore
SplineSet
150.4 250 m 0
 150.4 159.455 196.242 54 277.6 54 c 0
 322.386 54 333.237 76.0059 342.337 111.003 c 1
 347.429 131.916 350.4 154.35 350.4 176 c 0
 350.4 282.339 288.119 363 227.2 363 c 0
 193.33 363 150.4 334.836 150.4 250 c 0
270.4 -25 m 0
 153.883 -25 60 92.2949 60 227 c 0
 60 353.767 143.825 448 240.8 448 c 0
 351.276 448 444 327.996 444 175 c 0
 444 13.4756 339.625 -160.739 178.839 -223.219 c 1
 166.249 -227.416 159.261 -231 149.6 -231 c 0
 121.653 -231 118.4 -194.394 118.4 -187 c 0
 118.4 -163.602 134.767 -154.082 143.317 -150.875 c 1
 220.561 -120.741 273.919 -60.9404 301.595 -21.9795 c 1
 290.925 -23.9424 281.823 -25 270.4 -25 c 0
EndSplineSet
EndChar

StartChar: colon
Encoding: 58 58 27
Width: 207
GlyphClass: 2
Flags: HW
HStem: -17 118<88.0877 160.628> 293 118<88.0877 160.628>
VStem: 76.9 95.2<-2.99638 86.7526 307.004 396.622>
LayerCount: 2
Fore
SplineSet
124.1 431 m 0
 158.149 431 188.1 396.691 188.1 352 c 0
 188.1 310.02 160.322 273 124.1 273 c 0
 90.7598 273 60.9004 306.659 60.9004 353 c 0
 60.9004 398.922 91.2666 431 124.1 431 c 0
124.1 121 m 0
 158.149 121 188.1 86.6914 188.1 42 c 0
 188.1 0.0195312 160.322 -37 124.1 -37 c 0
 90.7598 -37 60.9004 -3.34082 60.9004 43 c 0
 60.9004 89.9805 91.5205 121 124.1 121 c 0
EndSplineSet
EndChar

StartChar: semicolon
Encoding: 59 59 28
Width: 209
GlyphClass: 2
Flags: HW
HStem: 293 118<90.6877 163.228>
VStem: 79.5 95.2<307.004 396.622> 156.3 40.8<-85.0525 -12.0097>
LayerCount: 2
Fore
SplineSet
126.7 120 m 0
 176.649 120 213.1 55.7773 213.1 -15 c 0
 213.1 -116.061 142.951 -167 115.5 -167 c 0
 101.797 -167 85.0996 -154.223 85.0996 -130 c 0
 85.0996 -95.2432 114.425 -87.9717 124.581 -76.3799 c 1
 139.476 -58.6084 140.3 -46.7705 140.3 -44 c 0
 140.3 -43.1123 l 1
 139.211 -9.24121 106.609 -54.8555 71.5508 6.87891 c 1
 63.4844 19.4746 61.9004 32.8408 61.9004 45 c 0
 61.9004 90.667 95.0479 120 126.7 120 c 0
126.7 431 m 0
 160.75 431 190.7 396.691 190.7 352 c 0
 190.7 310.02 162.923 273 126.7 273 c 0
 93.3594 273 63.5 306.659 63.5 353 c 0
 63.5 398.922 93.8672 431 126.7 431 c 0
EndSplineSet
EndChar

StartChar: less
Encoding: 60 60 29
Width: 604
GlyphClass: 2
Flags: HW
LayerCount: 2
Fore
SplineSet
92.9004 249 m 2
 92.9004 275.531 112.875 283.473 117.75 285.758 c 1
 535.411 476.156 530.084 478 545.7 478 c 0
 568.06 478 580.1 451.099 580.1 420 c 0
 580.1 394.43 562.21 384.262 553.94 381.009 c 1
 242.906 239.069 l 1
 559.235 95.7656 l 1
 569.469 90.9688 580.1 78.5996 580.1 60 c 0
 580.1 48.7549 575.21 3 540.9 3 c 0
 525.606 3 531.811 4.03418 117.228 193.115 c 1
 110.181 196.051 92.9004 205.487 92.9004 230 c 0
 92.9004 249 l 2
EndSplineSet
EndChar

StartChar: equal
Encoding: 61 61 30
Width: 631
GlyphClass: 2
Flags: HW
HStem: 156 58<113.4 589.363> 305 58<112.6 588.498>
LayerCount: 2
Fore
SplineSet
131 285 m 2
 123.947 285 114.571 285.568 106.501 294.483 c 0
 98.5254 303.293 96.5996 315.831 96.5996 327 c 0
 96.5996 341 l 0
 96.5996 354.026 99.6973 367.034 108.028 375.086 c 0
 116.963 383.722 126.312 383 131 383 c 0
 572.6 383 l 0
 578.983 383 587.667 382.24 595.13 373.948 c 0
 602.807 365.419 604.6 353.398 604.6 343 c 0
 604.6 330 l 0
 604.6 316.509 601.438 303.74 593.816 295.271 c 0
 584.445 284.859 573.631 285 567.8 285 c 0
 131 285 l 2
131 136 m 2
 123.684 136 114.414 137.123 106.797 145.987 c 0
 99.0527 155 97.4004 167.3 97.4004 178 c 0
 97.4004 192 l 0
 97.4004 205.026 100.497 218.034 108.828 226.086 c 0
 117.763 234.722 127.112 234 131.8 234 c 0
 573.4 234 l 0
 579.783 234 588.467 233.24 595.93 224.948 c 0
 603.606 216.419 605.4 204.398 605.4 194 c 0
 605.4 180 l 0
 605.4 166.559 602.222 153.613 594.244 145.281 c 0
 584.585 135.192 573.877 136 568.6 136 c 0
 131 136 l 2
EndSplineSet
EndChar

StartChar: greater
Encoding: 62 62 31
Width: 604
GlyphClass: 2
Flags: HW
LayerCount: 2
Fore
SplineSet
580.1 249 m 2
 580.1 230 l 0
 580.1 205.486 562.822 196.052 555.77 193.114 c 1
 142.631 4.95703 146.875 3 132.1 3 c 0
 97.8408 3 92.9004 48.8818 92.9004 60 c 0
 92.9004 78.5996 103.531 90.9688 113.766 95.7656 c 1
 430.094 239.069 l 1
 119.061 381.009 l 1
 109.021 384.958 92.9004 395.298 92.9004 420 c 0
 92.9004 451.108 104.92 478 127.3 478 c 0
 142.914 478 137.592 476.16 555.25 285.759 c 1
 560.126 283.473 580.1 275.531 580.1 249 c 2
EndSplineSet
EndChar

StartChar: question
Encoding: 63 63 32
Width: 339
GlyphClass: 2
Flags: HW
HStem: -17 118<125.913 198.928> 577 103<60.7547 111.246> 651 38<131.425 206.555>
VStem: 114.4 96<-2.99638 86.7526> 130.4 41.6<192.704 327.862> 236.8 68<470.93 612.194>
LayerCount: 2
Fore
SplineSet
162.4 121 m 0
 196.449 121 226.4 86.6914 226.4 42 c 0
 226.4 0.0195312 198.622 -37 162.4 -37 c 0
 129.314 -37 98.4004 -3.7793 98.4004 43 c 0
 98.4004 90.4131 130.078 121 162.4 121 c 0
163.2 709 m 0
 274.438 709 320.8 611.326 320.8 542 c 0
 320.8 396.433 188 371.635 188 250 c 0
 188 242.62 188.8 237.118 188.8 228 c 0
 188.8 191.887 169.604 172 152 172 c 0
 131.033 172 114.4 196.482 114.4 247 c 0
 114.4 393.056 220.8 449.166 220.8 547 c 0
 220.8 596.218 195.067 631 167.2 631 c 0
 131.58 631 140.878 557 80.7998 557 c 0
 51.9863 557 31.2002 587.137 31.2002 621 c 0
 31.2002 638.991 38.8066 684.574 94.9316 699.525 c 1
 116.745 705.817 140.5 709 163.2 709 c 0
EndSplineSet
EndChar

StartChar: at
Encoding: 64 64 33
Width: 895
GlyphClass: 2
Flags: HW
HStem: -176 38<405.853 583.814> -14 66<401.39 467.485> -8 46<577.535 665.929> 363 33<523.198 573.305> 409 20G<610.6 616.6> 572 39<436.434 616.988>
VStem: 165.8 65.6<70.9096 316.808> 337 59.2<57.2769 161.388> 754.6 33.6<176.781 411.103>
LayerCount: 2
Fore
SplineSet
675.4 -51 m 0
 684.739 -51 701 -60.0391 701 -83 c 0
 701 -131.343 622.566 -163.678 593.852 -175.059 c 0
 556.896 -189.756 519.188 -196 481 -196 c 0
 480.164 -196 l 1
 299.163 -194.961 149.8 -53.6816 149.8 186 c 0
 149.8 187 l 0
 149.8 288.438 179.795 469.611 348.245 574.889 c 0
 392.949 602.828 456.071 631 529 631 c 0
 582.162 631 629.88 615.399 670.031 587.803 c 0
 754.308 529.88 804.2 419.87 804.2 296 c 0
 804.2 212.95 783.05 137.884 750.182 80.8916 c 0
 712.285 15.1807 657.908 -28 601 -28 c 0
 549.685 -28 525.576 3.64746 514.963 30.1396 c 1
 489.838 -2.09668 453.556 -34 411.4 -34 c 0
 361.87 -34 321 14.4307 321 83 c 0
 321 189.059 425.25 339.466 490.281 389.084 c 0
 510.106 404.169 532.957 416 558.6 416 c 0
 567.861 416 575.007 414.632 578.483 413.837 c 1
 581.554 420.796 581.958 430.082 591.387 440.185 c 0
 591.783 440.609 l 1
 592.2 441 l 0
 599.163 447.528 606.543 449 612.2 449 c 0
 624.148 449 646.6 440.522 646.6 412 c 0
 646.6 385.59 616.082 303.425 591.17 121.624 c 0
 521.68 -386.086 668.895 689.485 591.104 121.14 c 1
 591.02 120.661 l 0
 589.56 112.452 587.4 97.2803 587.4 86 c 0
 587.4 62.1064 598.415 58 609.8 58 c 0
 636.107 58 678.113 83.7803 700.78 123.624 c 1
 724.383 164.752 738.6 233.152 738.6 300 c 0
 738.6 301 l 0
 738.6 416.474 693.281 491.453 627.737 527.605 c 0
 598.646 543.651 565.264 552 529.8 552 c 0
 382.582 552 247.4 413.246 247.4 198 c 0
 247.4 12.9873 345.813 -118 495.4 -118 c 0
 569.464 -118 629.255 -85.501 650.156 -64.4316 c 0
 651.019 -63.5625 l 1
 651.968 -62.8506 l 0
 653.365 -61.8018 661.6 -51 675.4 -51 c 0
546.598 339.837 m 1
 515.768 324.203 454.381 257.011 422.224 154.469 c 1
 416.161 136.47 412.2 118.17 412.2 102 c 0
 412.2 73.5674 422.867 72 429.8 72 c 0
 439.368 72 475.307 87.7627 496.146 118.153 c 1
 510.837 138.812 508.327 131.774 510.157 143.213 c 1
 533.319 268.464 542.878 319.498 546.598 339.837 c 1
EndSplineSet
EndChar

StartChar: A
Encoding: 65 65 34
Width: 739
GlyphClass: 2
Flags: HW
HStem: -6 51<90.3625 160.116 230.108 297.221 517.724 580.191> 300 52<321.001 496.998>
VStem: 580.2 156<9.5 73>
DStem2: 171.4 93 299.4 288 0.33282 0.94299<10.8452 256.855 307.001 496.836> 470.6 668 426.6 565 0.321903 -0.946773<60.8798 288.443 343.161 591.615>
LayerCount: 2
Fore
SplineSet
192.2 -20 m 0
 145.152 -20 111.844 -26 105.8 -26 c 0
 80.6719 -26 73.7998 2.33984 73.7998 15 c 0
 73.7998 26.6992 75.6025 38.7812 82.4971 48.1006 c 0
 94.585 64.4395 110.367 62.6045 123.75 64.835 c 1
 144.475 68.0732 145.538 69.2734 156.781 101.13 c 1
 195.357 208.62 236.141 315.579 279.592 422.198 c 1
 399.25 706.388 392.716 697.905 407.557 713.364 c 0
 757.256 1077.54 408.016 713.841 408.016 713.841 c 1
 807.564 1070.69 408.5 714.275 408.5 714.275 c 0
 416.333 721.268 426.136 726 437 726 c 0
 470.61 726 482.773 683.752 485.37 675.694 c 1
 600.539 343.785 l 1
 687.789 78.6113 685.681 83.2793 687.884 79.1475 c 1
 696.154 63.8486 741.146 78.7285 750.122 33.8506 c 0
 751.392 27.5078 752.2 22.0488 752.2 16 c 0
 752.2 -4.85352 740.408 -26 720.2 -26 c 0
 713.523 -26 676.954 -20 628.2 -20 c 0
 571.011 -20 545.734 -26 533 -26 c 0
 524.211 -26 514.929 -22.8857 508.384 -13.9873 c 0
 502.919 -6.55762 501 2.86523 501 11 c 0
 501 22.668 501.626 35.2021 508.913 45.8203 c 0
 521.752 64.5312 540.566 61.5117 561.718 64.7676 c 1
 562.721 64.9961 563.686 65.1982 564.076 65.291 c 1
 561.555 87.8438 533.995 200.266 506.234 280 c 1
 317.8 280 l 0
 316.071 280 314.44 279.892 314.122 279.859 c 1
 313.61 278.827 313.704 279.014 313.467 278.47 c 1
 275.746 190.905 246.383 84.8418 245.798 71.8936 c 1
 245.846 68.2881 246.077 67.7041 246.224 67.1348 c 1
 248.042 65.6592 260.67 63.0479 282.029 59.8691 c 1
 286.636 59.2295 296.042 57.8574 304.008 48.2207 c 0
 310.527 40.3359 313.8 28.6455 313.8 16 c 0
 313.8 4.8584 310.556 -6.08887 304.214 -14.0176 c 0
 297.871 -21.9453 289.113 -26 280.2 -26 c 0
 267.825 -26 244.706 -20 192.2 -20 c 0
476.746 372 m 1
 463.604 415.188 429.849 513.317 416.781 545.709 c 1
 416.384 544.841 417.088 546.454 416.711 545.572 c 0
 382.367 465.25 356.136 402.752 344.048 372 c 1
 476.746 372 l 1
EndSplineSet
EndChar

StartChar: B
Encoding: 66 66 35
Width: 506
GlyphClass: 2
Flags: HMW
HStem: -6 47<69.15 130.448 201.144 340.726> 355 43<199.3 333.006> 651 44<201.51 327.707>
VStem: 130.5 68.8<46.989 355 398 639.812> 376.9 71.2<461.932 592.593> 412.9 71.2<121.063 282.491>
LayerCount: 2
Fore
SplineSet
127.3 706 m 0
 174.442 706 216.813 715 266.5 715 c 0
 300.126 715 361.601 711.949 408.547 671.323 c 1
 434.898 647.472 464.1 602.388 464.1 540 c 0
 464.1 479.871 437.044 425.455 403.097 389.55 c 1
 459.606 360.652 500.1 291.073 500.1 206 c 0
 500.1 99.8828 440.369 27.0215 389.037 -1.25488 c 1
 379.938 -6.4248 346.576 -26 286.5 -26 c 0
 248.298 -26 212.298 -20 176.9 -20 c 0
 149.544 -20 122.199 -22 85.7002 -22 c 0
 84.0996 -22 l 0
 80.5391 -22 73.6582 -22.5234 66.2168 -16.708 c 0
 55.4678 -8.30762 52.9004 7.05664 52.9004 22 c 0
 52.9004 29.1406 53.9248 37.9844 58.6953 45.625 c 0
 70.8223 65.0449 90.0586 61.7373 111.348 64.793 c 1
 112.954 65.1523 113.811 65.3486 114.5 65.5137 c 1
 114.5 612 l 0
 114.5 616.759 113.84 618.653 113.791 618.784 c 1
 112.896 619.567 103.251 622.345 88.1221 624.008 c 1
 71.6768 624.419 58.5 641.817 58.5 669 c 0
 58.5 679.564 61.5176 691.863 69.9268 699.69 c 0
 75.627 704.995 82.4424 707 88.9004 707 c 0
 93.5146 707 104.179 706 127.3 706 c 0
360.9 519 m 0
 360.9 559.784 342.346 631 259.3 631 c 0
 247.697 631 224.311 628.403 215.3 625.077 c 1
 215.3 418 l 1
 253.7 418 l 0
 286.016 418 330.909 422.15 351.458 471.118 c 1
 357.554 486.356 360.9 502.477 360.9 519 c 0
260.9 61 m 0
 335.184 61 396.9 110.749 396.9 201 c 0
 396.9 253.472 375.922 312.854 315.056 329.469 c 1
 295.741 334.834 273.729 335 251.3 335 c 0
 215.3 335 l 1
 215.3 82 l 0
 215.3 66.7217 212.333 67.9346 225.682 64.7803 c 1
 238.492 62.6514 249.339 61 260.9 61 c 0
EndSplineSet
EndChar

StartChar: C
Encoding: 67 67 36
Width: 630
GlyphClass: 2
Flags: HW
HStem: -24 51<307.766 470.337> 439 21G<573.9 591.1> 650 46<297.362 459.825>
VStem: 85.9 76.8<225.341 451.697> 561.1 39.2<439.285 545.701>
LayerCount: 2
Fore
SplineSet
617.232 60.2832 m 0
 609.854 31.4492 588.6 27 583.5 27 c 0
 560.3 27 l 0
 546.182 27 552.387 25.4492 530.917 8.83594 c 1
 476.58 -30.4316 422.059 -44 374.7 -44 c 0
 296.002 -44 217.785 -4.02539 161.156 64.6484 c 0
 103.556 134.531 69.9004 234.489 69.9004 335 c 0
 69.9004 442.065 108.594 541.762 163.606 608.412 c 1
 221.171 677.193 300.118 716 378.7 716 c 0
 379.5 716 l 0
 460.394 716 511.573 679.866 532.383 666.444 c 1
 534.515 674.464 538.923 692.912 555.428 698.341 c 0
 557.43 699 l 1
 559.437 699 l 1
 560.781 699.08 563.786 700 568.3 700 c 0
 586.555 700 593.374 679.593 594.482 671.288 c 0
 594.7 669.655 l 1
 594.7 651.354 616.3 471.151 616.3 456 c 0
 616.3 442.066 607.422 419 584.3 419 c 0
 576.264 419 566.725 419.062 558.392 428.213 c 0
 545.184 442.713 547.392 461.833 545.246 483.295 c 1
 542.187 509.112 540.242 519.642 527.717 539.646 c 1
 497.546 587.481 445.131 630 377.1 630 c 0
 276.492 630 178.7 528.654 178.7 354 c 0
 178.7 178.446 273.444 47 387.5 47 c 0
 472.411 47 553.428 118.062 581.064 230.111 c 1
 581.073 230.144 586.448 257 608.3 257 c 0
 614.87 257 637.1 253.325 637.1 226 c 0
 637.1 224.596 l 1
 636.943 223.206 l 0
 636.943 223.206 619.321 68.2842 617.232 60.2832 c 0
EndSplineSet
EndChar

StartChar: D
Encoding: 68 68 37
Width: 637
GlyphClass: 2
Flags: HW
HStem: 0 48<78.8118 157.842 234.782 405.23> 633 42<79.3076 156.935 231.15 385.024>
VStem: 159.3 71.2<58.0293 626.875> 546.5 80<233.039 436.012>
LayerCount: 2
Fore
SplineSet
310.5 68 m 0
 421.537 68 530.5 152.989 530.5 316 c 0
 530.5 406.646 499.199 500.573 441.008 554.899 c 1
 392.18 599.29 331.449 613 284.1 613 c 0
 261.197 613 249.45 610.36 246.913 608.9 c 1
 246.67 607.5 246.5 605.469 246.5 602 c 0
 246.5 93 l 0
 246.5 77.3096 245.611 77.6572 262.306 73.6436 c 1
 278.113 69.8799 293.878 68 310.5 68 c 0
63.2998 654 m 0
 63.2998 667.052 67.2031 679.409 74.8867 686.803 c 0
 83.2695 694.87 92.0908 695 96.9004 695 c 0
 242.5 695 l 0
 321.098 695 405.98 692.474 481.221 649.15 c 1
 564.747 600.635 642.5 494.356 642.5 343 c 0
 642.5 154.465 518.364 13.8232 397.29 -13.6934 c 1
 372.457 -19.0459 347.697 -20 323.3 -20 c 0
 96.9004 -20 l 0
 92.6113 -20 84.4385 -19.7939 76.4502 -12.7314 c 0
 66.873 -4.26367 62.5 10.6924 62.5 28 c 0
 62.5 36.2061 63.7959 45.4814 68.6445 53.3672 c 0
 83.126 76.9199 109.109 70.0088 136.9 71.9756 c 1
 140.178 72.1533 141.521 72.7832 141.963 73.0117 c 1
 142.415 74.2266 143.3 79.2588 143.3 88 c 0
 143.3 594 l 0
 143.3 613.07 146.549 608.749 93.4287 611 c 1
 86.5 611 77.792 613.643 71.7461 621.406 c 0
 63.4072 632.115 63.2998 645.06 63.2998 654 c 0
EndSplineSet
EndChar

StartChar: E
Encoding: 69 69 38
Width: 519
GlyphClass: 2
Flags: HW
HStem: -12 73<79.4322 139.876> 0 62<215.326 312.738> 0 55<240.662 428.308> 369 58<216.28 383.34> 638 53<69.3563 142.7 216.446 420.677>
VStem: 142.7 71.2<64.3716 365.73 427 636.673> 384.3 44<271.454 368.907 428.208 512.546>
LayerCount: 2
Fore
SplineSet
405.9 533 m 0
 417.117 533 427.21 528.762 434.128 520.047 c 0
 444.289 507.247 444.3 491.387 444.3 484 c 0
 444.3 300 l 0
 444.3 292.764 444.291 277.789 435.013 265.114 c 0
 428.128 255.708 417.644 251 405.9 251 c 0
 392.351 251 380.407 256.275 373.735 268.421 c 0
 368.443 278.056 368.3 287.774 368.3 293 c 0
 368.3 347 l 0
 368.3 347.65 368.263 348.59 368.256 348.749 c 1
 366.476 348.975 365.493 349 363.5 349 c 0
 253.1 349 l 0
 234.464 349 229.9 350.302 229.9 329 c 0
 229.9 100 l 0
 229.9 85.2305 227.813 84.2041 241.867 81.7812 c 1
 266.091 76.8975 289.669 75 313.9 75 c 0
 337.848 75 409.471 84.3467 419.378 91.9014 c 1
 429.14 103.557 453.252 182.329 475.82 199.96 c 0
 476.465 200.464 l 1
 477.145 200.889 l 0
 481.146 203.389 486.148 206 492.3 206 c 0
 506.644 206 522.7 190.321 522.7 163 c 0
 522.7 162 l 0
 522.7 149.793 521.512 149.639 497.554 15.8555 c 1
 496.373 8.47363 494.081 -1.10352 487.856 -8.55078 c 0
 479.239 -18.8594 468.33 -20 457.9 -20 c 0
 182.7 -20 l 0
 123.646 -20 103.808 -32 83.5 -32 c 0
 51.6738 -32 48.2998 11.7734 48.2998 18 c 0
 48.2998 54.2744 73.0889 57.7607 119.501 79.7354 c 1
 127.612 83.4717 126.7 80.0254 126.7 100 c 0
 126.7 619.282 l 1
 124.639 619.854 121.514 620.578 118.453 621.274 c 1
 100.372 624.75 75.5273 618.092 60.0498 640.166 c 0
 54.3125 648.347 52.2998 658.916 52.2998 669 c 0
 52.2998 683.224 55.8418 697.268 65.3115 705.043 c 0
 72.4561 710.909 79.4355 711 83.5 711 c 0
 451.5 711 l 0
 459.017 711 466.79 708.953 473.137 702.82 c 0
 479.86 696.324 482.785 687.583 484.426 680.747 c 0
 484.642 679.845 l 1
 484.79 678.922 l 0
 492.173 632.771 508.3 556.025 508.3 542 c 0
 508.3 525.307 496.382 507 475.5 507 c 0
 453.27 507 442.979 528.303 440.08 533.375 c 0
 439.576 534.258 l 1
 439.15 535.204 l 0
 396.785 629.464 406.041 618 390.7 618 c 0
 240.3 618 l 0
 230.067 618 231.5 618.841 231.5 600 c 0
 231.5 449 l 0
 231.5 448.274 231.515 447.199 231.519 447 c 1
 353.9 447 l 0
 367.552 447 368.3 444.746 368.3 460 c 0
 368.3 491 l 0
 368.3 496.89 368.71 506.117 373.587 515.225 c 0
 380.289 527.742 392.409 533 405.9 533 c 0
EndSplineSet
EndChar

StartChar: F
Encoding: 70 70 39
Width: 486
GlyphClass: 2
Flags: HW
HStem: -6 53<62.7657 131.611 208.101 310.286> 360 58<208.832 370.141> 636 51<61.7578 131.57 209.383 407.098>
VStem: 131.9 75.2<49.7348 360 418 634.561> 369.5 44<270.499 360> 375.9 37.6<418.264 503.907>
LayerCount: 2
Fore
SplineSet
429.5 483 m 0
 429.5 469.514 426.3 445.654 426.3 390 c 0
 426.3 333.271 429.5 308.537 429.5 296 c 0
 429.5 260.122 404.525 250 391.9 250 c 0
 385.619 250 378.333 251.378 371.966 257.259 c 0
 353.895 273.952 357.304 303.863 353.958 340 c 1
 224.7 340 l 0
 224.208 340 223.449 339.95 223.38 339.946 c 1
 223.185 338.181 223.1 335.396 223.1 332 c 0
 223.1 84 l 0
 223.1 70.1748 217.832 68.3691 240.536 66.9854 c 1
 275.816 65.6279 302.938 74.7354 319.188 51.1377 c 0
 324.878 42.874 326.3 32.7314 326.3 24 c 0
 326.3 15 l 0
 326.3 0.452148 319.549 -26 296.7 -26 c 0
 289.79 -26 246.179 -20 188.7 -20 c 0
 130.362 -20 86.8936 -26 80.7002 -26 c 0
 71.7666 -26 62.6426 -22.498 55.9678 -14.2471 c 0
 48.9854 -5.61523 46.2998 6.05762 46.2998 17 c 0
 46.2998 27.8809 47.3301 39.998 54.6211 49.6992 c 0
 68.4004 68.0352 87.0029 62.6562 106.242 64.8936 c 1
 112.274 65.7637 115.041 67.6621 115.24 67.833 c 1
 115.44 68.4795 115.9 71.1055 115.9 76 c 0
 115.9 606 l 0
 115.9 610.018 115.589 612.833 115.395 613.966 c 1
 111.534 615.444 98.5498 616.083 79.5625 617 c 1
 76.5869 617.008 66.5537 616.389 57.0625 625.688 c 0
 49.8877 632.717 45.5 644.674 45.5 658 c 0
 45.5 684.19 55.2314 708 75.9004 708 c 0
 86.1562 708 103.418 704 143.1 704 c 0
 172.84 704 229.018 707 272.7 707 c 0
 428.7 707 l 0
 439.804 707 463.465 702.637 470.674 666.595 c 1
 475.799 637.767 489.5 569.169 489.5 555 c 0
 489.5 532.05 476.177 512 457.5 512 c 0
 427.772 512 419.812 545.661 393.333 604.798 c 1
 386.569 618.326 390.392 616 379.1 616 c 0
 231.9 616 l 0
 227.953 616 226.272 615.124 225.978 614.953 c 1
 225.6 614.046 224.7 608.689 224.7 600 c 0
 224.7 438 l 1
 354.219 438 l 1
 355.691 445.56 357.12 459.481 360.117 480.293 c 1
 361.3 489.905 363.899 506.697 376.175 517.091 c 0
 381.568 521.659 388.27 524 395.1 524 c 0
 405.591 524 416.457 518.812 423.294 507.234 c 0
 427.356 500.352 429.5 491.757 429.5 483 c 0
EndSplineSet
EndChar

StartChar: G
Encoding: 71 71 40
Width: 622
GlyphClass: 2
Flags: HW
HStem: -24 53<294.69 451.449> 260 46<408.337 503.965> 441 21G<545.9 567.5> 658 48<270.176 419.617>
VStem: 82.7 80<226.103 480.292> 505.9 67.2<76.6719 251.789>
LayerCount: 2
Fore
SplineSet
362.7 -44 m 0
 203.306 -44 66.7002 133.952 66.7002 354 c 0
 66.7002 567.423 195.197 726 351.5 726 c 0
 441.08 726 500.484 673.327 517.043 661.262 c 1
 522.56 665.496 528.768 685.356 544.371 697.405 c 1
 550.995 702.198 556.097 703 561.9 703 c 0
 572.508 703 589.1 692.802 589.1 669 c 0
 589.1 642 l 0
 589.1 539.995 597.9 466.162 597.9 457 c 0
 597.9 430.8 577.674 421 558.7 421 c 0
 551.954 421 544.007 422.668 537.691 429.806 c 0
 515.64 454.726 532.482 478.622 502.565 530.227 c 1
 465.994 592.734 405.444 638 341.9 638 c 0
 270.047 638 178.7 574.79 178.7 367 c 0
 178.7 113.204 296.423 49 371.5 49 c 0
 432.304 49 482.93 92.5898 489.338 103.359 c 1
 489.705 104.536 489.9 106.52 489.9 111 c 0
 489.9 224 l 0
 489.9 228.004 489.5 230.202 489.335 230.85 c 1
 486.144 233.202 466.443 235.624 429.272 240.079 c 1
 421.932 240.844 407.615 242.7 398.357 258.565 c 0
 394.386 265.372 392.3 274.073 392.3 283 c 0
 392.3 294.34 395.373 307.087 403.735 316.15 c 0
 409.671 322.583 417.639 326 425.9 326 c 0
 437.221 326 458.947 322 508.3 322 c 0
 509.9 322 l 0
 560.884 322 585.063 326 595.5 326 c 0
 618.879 326 632.3 304.688 632.3 285 c 0
 632.3 240.032 589.406 234.065 589.406 234.065 c 1
 548.334 19.9873 589.297 233.494 589.297 233.494 c 1
 589.162 232.986 l 1
 589.11 232.157 589.1 231.079 589.1 229 c 0
 589.1 60 l 0
 589.1 47.8193 584.517 20 561.9 20 c 0
 547.021 20 539.07 34.4668 536.824 37.5 c 1
 483.516 -20.1338 419.735 -44 362.7 -44 c 0
EndSplineSet
EndChar

StartChar: H
Encoding: 72 72 41
Width: 686
GlyphClass: 2
Flags: HW
HStem: -6 50<88.7015 163.303 235.754 312.325 449.63 529.174 601.271 672.338> 365 62<234.9 529.233> 636 51<88.226 163.11 235.17 313.319 456.11 527.792 600.779 676.002>
VStem: 163.7 71.2<48.884 365 427 634.922> 530.1 70.4<45.9662 365 427 634.938>
LayerCount: 2
Fore
SplineSet
202.9 -20 m 0
 149.367 -20 110.998 -26 104.5 -26 c 0
 78.5977 -26 72.5 4.22168 72.5 21 c 0
 72.5 28.3926 73.2275 37.7305 78.458 46.0449 c 0
 91.8301 67.2988 113.222 61.3545 141.655 63.9395 c 1
 144.774 64.2646 146.788 65.1699 147.014 65.2959 c 1
 147.402 66.9697 147.7 70.4434 147.7 76 c 0
 147.7 605 l 0
 147.7 612.258 146.675 613.614 146.675 613.614 c 1
 146.17 614.177 138.397 616.241 120.527 619.219 c 1
 116.919 619.97 71.7002 614.473 71.7002 660 c 0
 71.7002 668.841 75.8574 707 106.1 707 c 0
 116.829 707 143.78 705 199.7 705 c 0
 202.1 705 l 0
 259.559 705 287.473 707 298.1 707 c 0
 321.601 707 327.576 680.585 329.082 669.288 c 0
 329.3 667.655 l 1
 329.3 666.223 l 1
 329.496 664.573 330.1 662.097 330.1 657 c 0
 330.1 650.473 329.271 642.052 324.723 634.53 c 0
 311.177 612.132 287.434 618.755 254.224 616.033 c 1
 252.715 615.938 251.51 615.669 251.427 615.648 c 1
 251.134 613.914 250.9 610.575 250.9 606 c 0
 250.9 447 l 1
 513.3 447 l 1
 513.3 593 l 0
 513.3 611.419 511.945 615.053 507.215 617.123 c 0
 506.734 617.333 l 1
 506.266 617.581 l 0
 501.156 620.283 463.134 611.835 446.469 637.357 c 0
 441.723 644.627 439.7 653.957 439.7 663 c 0
 439.7 673.649 441.984 685.106 448.569 693.963 c 0
 455.527 703.321 465.394 707 474.9 707 c 0
 484.183 707 507.805 705 557.3 705 c 0
 614.061 705 656.835 709 662.1 709 c 0
 680.757 709 693.3 689.947 693.3 669 c 0
 693.3 658.923 691.646 648.394 686.233 639.716 c 0
 672.06 616.988 648.396 620.676 624.232 616.176 c 1
 618.985 615.389 617.374 614.128 616.963 613.808 c 1
 616.776 613.078 616.5 610.789 616.5 607 c 0
 616.5 77 l 0
 616.5 66.8887 615.058 65.8135 624.145 64.9395 c 1
 643.058 63.0732 666.141 69.0303 681.008 47.708 c 0
 686.55 39.7607 688.5 29.5488 688.5 20 c 0
 688.5 6.21875 683.206 -26 656.5 -26 c 0
 650.052 -26 610.785 -20 558.9 -20 c 0
 507 -20 468.595 -26 462.1 -26 c 0
 438.715 -26 433.3 1.66504 433.3 14 c 0
 433.3 24.6318 433.482 37.0439 441.024 47.7168 c 0
 455.11 67.6465 475.733 61.9561 504.793 64.9336 c 0
 505.161 64.9707 l 1
 505.529 64.9873 l 0
 510.522 65.21 512.629 66.4326 512.856 66.5859 c 1
 513.235 67.5713 514.1 73.2305 514.1 83 c 0
 514.1 345 l 1
 250.9 345 l 1
 250.9 77 l 0
 250.9 73.7686 251.028 71.6025 251.082 71.2109 c 1
 252.629 69.7656 258.826 65.9932 275.187 63.8623 c 1
 276.417 63.6572 328.5 70.2549 328.5 22 c 0
 328.5 6.61523 325.329 -26 299.7 -26 c 0
 293.938 -26 254.856 -20 202.9 -20 c 0
EndSplineSet
EndChar

StartChar: I
Encoding: 73 73 42
Width: 290
GlyphClass: 2
Flags: HW
HStem: -6 52<43.239 126.029 199.11 276.35> 631 49<56.2874 127.083 199.091 262.019>
VStem: 126.291 72.8<48.0003 628.443>
LayerCount: 2
Fore
SplineSet
73.4902 700 m 0
 79.6357 700 115.904 695 165.49 695 c 0
 215.688 695 238.143 699 248.69 699 c 0
 260.345 699 278.291 687.794 278.291 660 c 0
 278.291 648.825 277.521 636.329 270.111 626 c 0
 256.82 607.476 237.675 610.974 215.091 608.294 c 1
 215.091 71 l 0
 215.091 68.8975 215.131 66.8379 215.18 65.9004 c 1
 246.269 63.2129 272.101 70.3936 286.638 47.1973 c 0
 291.333 39.7051 292.69 30.7656 292.69 23 c 0
 292.69 11.9814 290.055 -26 260.69 -26 c 0
 254.344 -26 213.403 -20 159.091 -20 c 0
 104.793 -20 62.9844 -26 56.6904 -26 c 0
 31.6719 -26 27.9463 4.98633 27.3213 12.9473 c 1
 25.7988 22.3828 26.291 22.5479 26.291 26 c 0
 26.291 32.6572 26.9951 41.6943 32.1396 49.6787 c 0
 46.4619 71.9053 69.3691 64.4688 108.477 67.96 c 1
 109.279 68.0166 109.565 68.0635 109.939 68.1123 c 1
 110.194 70.2852 110.291 72.5039 110.291 76 c 0
 110.291 596 l 0
 110.291 601.247 110.728 605.642 110.945 608.164 c 1
 104.687 609.378 92.3662 609.663 73.165 611.048 c 1
 66.542 611.738 56.4531 612.681 48.0967 623.652 c 0
 42.3057 631.256 39.8906 641.713 39.8906 652 c 0
 39.8906 666.422 45.8457 700 73.4902 700 c 0
EndSplineSet
EndChar

StartChar: J
Encoding: 74 74 43
Width: 274
GlyphClass: 2
Flags: HW
HStem: -212 60<0.899999 70.7559> 632 48<33.963 114.027 190.303 260.738>
VStem: 116.1 72.8<-47.6 625.019>
LayerCount: 2
Fore
SplineSet
153.7 695 m 2
 209.419 695 235.58 699 247.3 699 c 0
 270.796 699 276.9 672.012 276.9 659 c 0
 276.9 647.174 275.533 634.731 268.341 624.817 c 0
 253.916 604.933 233.65 610.072 211.239 607.092 c 1
 207.626 606.699 206.343 605.936 205.944 605.692 c 1
 205.637 604.829 204.9 600.458 204.9 593 c 0
 204.9 56 l 0
 204.9 -31.2578 172.251 -109.222 129.698 -160.286 c 1
 127.986 -162.426 124.636 -166.287 120.354 -170.846 c 0
 101.94 -190.458 60.3418 -232 20.0996 -232 c 0
 -28.0645 -232 -59.9004 -180.5 -59.9004 -135 c 0
 -59.9004 -100.347 -39.916 -66 -7.90039 -66 c 0
 47.6914 -66 53.0703 -132 68.9004 -132 c 0
 73.4531 -132 76.2549 -130.187 79.6084 -125.674 c 0
 86.1797 -116.828 90.7881 -98.4424 93.459 -85.7588 c 1
 98.9473 -61.2568 100.1 -51.126 100.1 -26 c 0
 100.1 595 l 0
 100.1 609.488 103.23 605.057 49.5811 612.116 c 1
 44.374 612.839 34.1562 614.157 25.8545 625.256 c 0
 20.5264 632.379 17.7002 642.484 17.7002 653 c 0
 17.7002 664.213 19.7354 681.47 32.0312 692.558 c 0
 37.417 697.416 44.2656 700 51.2998 700 c 0
 57.1748 700 97.7803 695 150.5 695 c 0
 153.7 695 l 2
EndSplineSet
EndChar

StartChar: K
Encoding: 75 75 44
Width: 589
GlyphClass: 2
Flags: HW
HStem: -6 50<77.5845 151.776 226.12 305.789> -5 38<535.698 583.987> 315 55<225.202 256.398> 630 57<467.723 558.934> 640 48<75.7373 151.497 226.24 298.302>
VStem: 154.8 70.4<49.4271 312.167 370.007 633.513>
LayerCount: 2
Back
SplineSet
290 -6 m 0
 286.8 -6 243.6 0 190 0 c 0
 137.2 0 94 -6 90.7998 -6 c 0
 79.5996 -6 77.2002 6 77.2002 17 c 0
 77.2002 52.2725 113.972 40.0459 134 47 c 0
 150 53 154.8 62 154.8 93 c 2
 154.8 590 l 2
 154.8 638 140.4 635 98 640 c 0
 87.5996 641 75.5996 646 75.5996 664 c 0
 75.5996 673 81.2002 688 98.7998 688 c 0
 107.6 688 134 684 186.8 684 c 2
 187.6 684 l 2
 240.4 684 266.8 688 275.6 688 c 0
 294 688 298.8 670 298.8 662 c 0
 298.8 632 254.8 647 237.2 637 c 0
 226 630 225.2 614 225.2 604 c 2
 225.2 387 l 2
 225.2 380 226.8 370 235.6 370 c 0
 243.6 370 249.2 381 256.4 391 c 0
 305.2 459 398 588 402 596 c 0
 405.2 601 408.4 609 408.4 617 c 0
 408.4 660 355.6 630 355.6 666 c 0
 355.6 679 362.8 687 374 687 c 0
 382.8 687 407.6 685 458 685 c 2
 462.8 685 l 2
 510.8 685 534.8 687 542.8 687 c 0
 560.4 687 565.2 675 565.2 666 c 0
 565.2 638 522.8 645 494 630 c 0
 469.2 617 454 590 436.4 567 c 0
 293.2 374 293.2 377 293.2 368 c 0
 293.2 362 295.6 358 299.6 353 c 0
 522.8 59 513.2 69 525.2 59 c 0
 551.6 38 566.8 49 579.6 33 c 0
 582 29 584.4 23 584.4 18 c 0
 584.4 9 578 -5 561.2 -5 c 0
 550 -5 546 -1 523.6 -1 c 0
 464.4 0 465.2 -5 445.2 24 c 0
 245.2 311 246 315 236.4 315 c 2
 235.6 315 l 2
 225.2 315 224.4 303 224.4 295 c 2
 224.4 84 l 2
 224.4 45 236.4 49 288.4 44 c 0
 294 43 306 41 306 22 c 0
 306 7 302.8 -6 290 -6 c 0
EndSplineSet
Fore
SplineSet
310.472 367.734 m 1
 534.643 72.4521 525.905 82.4492 533.934 75.7588 c 1
 553.218 60.4199 569.591 73.7959 590.914 47.1426 c 0
 591.718 46.1367 l 1
 592.4 45 l 0
 596.078 38.8682 600.4 30.3574 600.4 18 c 0
 600.4 -2.0625 586.343 -25 561.2 -25 c 0
 545.524 -25 544.35 -21 523.492 -21 c 1
 467.322 -20.0518 456.309 -22.7373 433.108 10.9033 c 1
 303.825 196.423 257.878 264.373 240.4 287.416 c 1
 240.4 84 l 0
 240.4 75.5186 241.324 71.2236 241.562 70.5225 c 1
 243.811 68.9062 259.298 66.8574 289.627 63.9414 c 0
 290.146 63.8906 l 1
 290.662 63.7988 l 0
 293.837 63.2324 304.775 62.3975 313.548 50.7686 c 0
 319 43.541 322 33.1328 322 22 c 0
 322 5.86426 316.604 -26 290 -26 c 0
 283.6 -26 243.514 -20 190 -20 c 0
 137.308 -20 97.1934 -26 90.7998 -26 c 0
 65.4121 -26 61.2002 5.14844 61.2002 17 c 0
 61.2002 27.2803 63.3809 37.4951 68.5342 45.4629 c 0
 82.8682 67.627 106.351 62.8193 117.646 63.9482 c 1
 137.88 65.5801 138.8 63.085 138.8 93 c 0
 138.8 590 l 0
 138.8 623.476 141.944 614.729 96.6367 620.072 c 1
 88.334 620.871 74.5215 623.63 65.7002 639.001 c 0
 61.6777 646.009 59.5996 654.876 59.5996 664 c 0
 59.5996 682.493 71.9648 708 98.7998 708 c 0
 109.99 708 134.194 704 186.8 704 c 0
 187.6 704 l 0
 240.156 704 264.467 708 275.6 708 c 0
 305.135 708 314.8 677.139 314.8 662 c 0
 314.8 607.984 244.094 618.938 244.094 618.938 c 1
 242.846 617.979 241.2 613.741 241.2 604 c 0
 241.2 399.627 l 1
 242.227 401.137 243.317 402.727 244.502 404.372 c 1
 291.496 469.856 381.332 595.138 388.648 607.032 c 1
 389.072 607.88 388.501 606.738 388.925 607.586 c 1
 389.507 608.494 l 0
 390.994 610.82 392.4 615.485 392.4 617 c 0
 392.4 619.335 392.108 620.277 392.057 620.453 c 1
 392.057 620.453 339.6 616.482 339.6 666 c 0
 339.6 690.757 355.946 707 374 707 c 0
 384.039 707 407.718 705 458 705 c 0
 462.8 705 l 0
 510.675 705 533.503 707 542.8 707 c 0
 567.871 707 581.2 685.583 581.2 666 c 0
 581.2 613.706 513.333 618.403 500.175 611.55 c 1
 480.62 601.299 466.869 577.884 448.047 553.286 c 1
 341.04 409.065 314.93 375.726 310.472 367.734 c 1
EndSplineSet
EndChar

StartChar: L
Encoding: 76 76 45
Width: 506
GlyphClass: 2
Flags: HW
HStem: 0 60<204.132 420.557> 0 45<67.613 128.931> 629 49<64.6652 129.369 204.122 286.943>
VStem: 129.4 74.4<60.5237 626.364> 457.4 36<127.281 178.977>
LayerCount: 2
Fore
SplineSet
176.6 695 m 2
 234.051 695 262.188 698 273.4 698 c 0
 300.684 698 303 664.469 303 651 c 0
 303 637.594 299.71 624.472 291.401 616.29 c 0
 283.555 608.562 274.677 608 269.635 608 c 1
 242.838 607.014 224.947 607.341 220.102 606.095 c 1
 219.898 604.203 219.8 602.166 219.8 599 c 0
 219.8 92 l 0
 219.8 86.1543 220.285 81.6611 220.559 80.498 c 1
 221.535 80.1982 222.573 80 224.6 80 c 0
 379.8 80 l 0
 392.543 80 400.875 79.7197 410.447 98.0195 c 1
 416.905 110.128 435.626 170.977 445.075 184.758 c 1
 450.029 192.498 458.848 200 469.4 200 c 0
 473.476 200 509.4 198.045 509.4 157 c 0
 509.4 146.008 499.039 61.8418 493.188 12.7383 c 1
 492.356 7.02637 491.662 -2.73535 484.918 -12.3271 c 0
 477.889 -22.3262 467.256 -26 455.8 -26 c 0
 443.642 -26 301.371 -20 122.2 -20 c 0
 79.7998 -20 l 0
 59.0752 -20 51 2.31934 51 16 c 0
 51 54.3203 80.4346 57.4854 107.222 64.4443 c 1
 115.497 67.5127 113.4 65.6982 113.4 77 c 0
 113.4 605 l 0
 113.4 606.275 113.329 608.19 113.322 608.328 c 1
 107.515 609.038 98.2119 608.599 84.2275 609.005 c 0
 83.7988 609.018 l 1
 83.373 609.059 l 0
 76.3057 609.739 65.5498 611.395 57.168 622.68 c 0
 51.1816 630.74 48.5996 641.755 48.5996 653 c 0
 48.5996 667.145 51.1377 682.608 61.8389 691.693 c 0
 67.8389 696.786 74.3662 698 79.7998 698 c 0
 89.7646 698 116.159 695.994 171.117 695 c 1
 176.6 695 l 2
EndSplineSet
EndChar

StartChar: M
Encoding: 77 77 46
Width: 899
GlyphClass: 2
Flags: HW
HStem: -15 21G<495.5 504.7> -6 59<260.239 333.934> -6 55<117.312 197.818 664.516 745.758 821.223 897.916> 635 40<119.157 180.497>
VStem: 200.7 56<53.3311 334.948> 220.7 40.8<334.948 477.998> 748.7 71.2<51.3681 476.999>
DStem2: 268.7 662 211.9 574 0.43831 -0.898824<-25.8286 61.502 389.322 576.435>
LayerCount: 2
Back
SplineSet
678.3 -6 m 4xd8
 666.3 -6 663.1 9 663.1 18 c 4
 663.1 63 739.1 20 747.9 79 c 4
 748.7 85 748.7 92 748.7 98 c 6
 748.7 311 l 6
 748.7 380 747.1 468 746.3 471 c 4
 745.5 476 743.1 477 740.7 477 c 4
 735.1 477 731.9 470 729.5 465 c 4
 658.3 323 535.1 19 520.7 -3 c 4
 513.5 -14 506.3 -15 503.1 -15 c 4
 487.9 -15 480.7 7 475.1 21 c 4
 388.7 243 273.5 472 267.1 477 c 4
 266.3 478 265.5 478 264.7 478 c 4
 262.3 478 261.5 475 261.5 473 c 4
 258.3 403 256.7 335 256.7 265 c 4
 256.7 223 259.1 72 261.5 62 c 4
 269.5 29 336.7 65 336.7 17 c 4
 336.7 8 333.5 -6 322.3 -6 c 4
 319.1 -6 277.5 0 226.3 0 c 4
 175.1 0 133.5 -6 130.3 -6 c 4
 124.7 -6 115.9 -2 115.9 16 c 4
 115.9 46 135.1 43 175.1 49 c 4
 201.5 53 198.3 74 200.7 102 c 4
 212.7 280 220.7 504 220.7 549 c 4
 220.7 562 215.9 568 211.9 574 c 4
 199.9 590 181.5 634 135.1 635 c 4
 129.5 636 119.1 636 119.1 653 c 4
 119.1 674 127.9 675 133.5 675 c 6
 248.7 675 l 6
 259.9 675 263.9 672 268.7 662 c 6
 419.9 346 l 5
 513.5 160 l 6
 515.1 156 519.9 148 527.1 148 c 4
 532.7 148 535.9 152 538.3 159 c 4
 755.1 666 754.3 666 755.1 666 c 4
 758.3 673 762.3 675 769.5 675 c 6
 885.5 675 l 6xb8
 891.1 675 897.5 674 897.5 653 c 4
 897.5 626 878.3 633 835.1 616 c 4
 822.3 612 815.9 605 815.9 587 c 4
 819.1 199 819.9 150 819.9 101 c 6
 819.9 94 l 6
 819.9 69 820.7 49 847.9 45 c 4
 883.1 41 899.1 45 899.1 16 c 4
 899.1 3 892.7 -6 883.1 -6 c 4
 879.1 -6 835.1 0 779.9 0 c 4
 725.5 0 681.5 -6 678.3 -6 c 4xd8
EndSplineSet
Fore
SplineSet
526.234 173.21 m 1
 726.241 640.968 737.031 669.974 742.305 678.193 c 1
 749.789 691.91 760.661 695 769.5 695 c 0
 885.5 695 l 0
 897.088 695 913.5 682.48 913.5 653 c 0
 913.5 644.846 912.212 635.998 907.956 628.361 c 0
 893.791 602.921 869.08 608.404 839.904 596.923 c 0
 839.446 596.743 l 1
 838.98 596.597 l 0
 830.35 593.9 831.9 595.805 831.9 587.106 c 1
 835.1 199.332 835.9 150.272 835.9 101 c 0
 835.9 94 l 0
 835.9 68.7549 834.093 67.168 849.56 64.8936 c 1
 870.688 62.4932 892.591 67.5732 907.076 47.0088 c 0
 913.412 38.0029 915.1 26.6523 915.1 16 c 0
 915.1 -5.75 902.38 -26 883.1 -26 c 0
 876.059 -26 834.967 -20 779.9 -20 c 0
 725.591 -20 684.641 -26 678.3 -26 c 0
 651.696 -26 647.1 7.05371 647.1 18 c 0
 647.1 25.7891 648.635 33.751 652.092 40.4453 c 0
 663.574 62.6748 684.988 61.5996 697.752 62.9287 c 1
 726.414 66 732.7 65.5947 732.7 94 c 0
 732.7 311 l 0
 732.7 351.205 732.108 400.412 731.53 430.928 c 1
 658.445 279.481 550.901 11.5566 533.083 -15.665 c 0
 522.529 -31.7881 509.484 -35 503.1 -35 c 0
 474.388 -35 464.661 2.37598 460.75 12.1533 c 1
 395.666 179.381 313.299 352.31 275.604 426.175 c 1
 273.652 371.865 272.7 319.398 272.7 265 c 0
 272.7 232.734 274.315 132.988 275.878 87.0908 c 1
 276.36 78.0391 276.4 70.3535 276.637 68.5195 c 1
 282.749 65.0225 325.791 76.9297 345.385 45.8154 c 0
 350.464 37.75 352.7 27.4668 352.7 17 c 0
 352.7 5.92773 348.038 -26 322.3 -26 c 0
 315.692 -26 277.547 -20 226.3 -20 c 0
 175.522 -20 136.354 -26 130.3 -26 c 0
 118.093 -26 99.9004 -13.4658 99.9004 16 c 0
 99.9004 26.2783 101.662 36.9688 107.177 45.7021 c 0
 121.905 69.0283 147.727 65.0371 173.175 68.8545 c 0
 186.437 70.8643 181.822 69.501 184.772 103.905 c 1
 196.68 280.538 204.7 505.641 204.7 549 c 0
 204.7 554.663 204.034 554.625 199.894 560.77 c 1
 184.58 581.574 172.117 614.201 134.824 615.003 c 0
 133.825 615.025 l 1
 132.837 615.201 l 0
 130.784 615.568 103.1 618.712 103.1 653 c 0
 103.1 686.167 124.19 695 133.5 695 c 0
 248.7 695 l 0
 255.619 695 262.896 694.204 269.83 689.051 c 0
 275.934 684.515 279.639 678.085 282.432 672.266 c 0
 433.538 356.46 l 1
 527.461 169.82 l 1
 527.812 168.944 l 0
 528.304 167.711 526.234 173.21 526.234 173.21 c 1
EndSplineSet
EndChar

StartChar: N
Encoding: 78 78 47
Width: 719
GlyphClass: 2
Flags: HW
HStem: -23 21G<620 632> -6 52<230.815 312.518> -6 46<97.1564 170.925 264.504 323.019> 633 48<87.3299 152.673 520.906 586.55 645.395 712.686>
VStem: 590.4 49.6<360.111 627.882> 597.6 39.2<172.004 504.224>
DStem2: 235.2 662 172.8 590 0.572687 -0.819774<-39.4344 69.9078 173.945 595.799>
LayerCount: 2
Back
SplineSet
87.2002 655 m 4xe0
 87.2002 676 94.4004 681 104.8 681 c 6
 203.2 681 l 6
 220 681 226.4 675 235.2 662 c 6
 360.8 480 l 5
 433.6 378 l 5
 578.4 182 584.8 172 590.4 172 c 4xe0
 595.2 172 596 177 596 182 c 4
 596.8 218 597.6 253 597.6 289 c 4xd0
 597.6 391 595.2 489 590.4 587 c 4
 588.8 630 573.6 631 538.4 636 c 4
 532.8 637 520.8 640 520.8 657 c 4
 520.8 667 526.4 681 544 681 c 4
 551.2 681 574.4 678 620.8 678 c 4
 666.4 678 688.8 681 696 681 c 4
 704.8 681 712.8 675 712.8 658 c 4
 712.8 606 640 673 640 576 c 5xe0
 638.4 486 636.8 395 636.8 305 c 4xd0
 636.8 136 640 52 640 24 c 4
 640 10 640 -23 624 -23 c 4
 616 -23 607.2 -13 584.8 19 c 6
 419.2 255 l 5
 257.6 480 244.8 499 241.6 499 c 4
 240 499 239.2 496 238.4 495 c 4
 232 378 228 262 228 140 c 6
 228 111 l 6
 228 59 230.4 49 264 46 c 4
 274.4 46 307.2 41 312.8 39 c 4
 316 37 323.2 34 323.2 13 c 4
 323.2 2 318.4 -6 309.6 -6 c 4
 306.4 -6 264 0 212 0 c 4
 159.2 0 117.6 -6 113.6 -6 c 4
 104 -6 96.7998 2 96.7998 14 c 4
 96.7998 17 98.4004 36 108.8 40 c 4
 126.4 47 164 39 176.8 72 c 4
 180.8 84 180 81 199.2 542 c 5
 199.2 545 l 5
 199.2 546 l 6
 199.2 555 198.4 561 172.8 590 c 4
 167.2 597 145.6 629 101.6 633 c 4
 93.5996 633 87.2002 636 87.2002 655 c 4xe0
EndSplineSet
Fore
SplineSet
183.2 542.52 m 1
 183.2 546 l 0
 183.2 546.89 183.18 547.465 183.175 547.572 c 1
 182.58 549.104 177.644 557.523 162.056 575.18 c 0
 161.765 575.51 l 1
 161.486 575.858 l 0
 155.295 583.597 138.045 609.15 100.979 613.004 c 1
 86.1152 613.309 71.2002 627.864 71.2002 655 c 0
 71.2002 669.207 73.9229 683.533 83.209 692.712 c 0
 90.4365 699.857 98.5732 701 104.8 701 c 0
 203.2 701 l 0
 224.077 701 237.348 689.79 247.365 674.992 c 1
 372.828 493.19 l 1
 445.447 391.444 l 1
 523.892 285.263 562.254 232.984 580.585 208.974 c 1
 581.177 237.178 581.6 261.728 581.6 289 c 0
 581.6 390.701 579.219 487.996 574.423 585.922 c 1
 573.316 615.671 573.568 610.875 536.365 616.16 c 1
 531.766 616.982 520.797 618.342 512.133 630.965 c 0
 507.524 637.68 504.8 647.057 504.8 657 c 0
 504.8 676.602 517.644 701 544 701 c 0
 553.28 701 574.555 698 620.8 698 c 0
 666.238 698 686.675 701 696 701 c 0
 702.66 701 710.458 698.917 717.11 692.14 c 0
 725.047 684.054 728.8 671.287 728.8 658 c 0
 728.8 647.166 726.593 636.025 720.273 627.758 c 0
 706.185 609.325 686.567 615.032 677.409 614.078 c 1
 660.322 612.075 656.749 616.124 655.997 563.592 c 1
 654.396 478.459 652.8 390.734 652.8 305 c 0
 652.8 136.101 656 53.1689 656 24 c 0
 656 19.5283 661.29 -43 624 -43 c 0
 604.881 -43 593.864 -24.3203 572.771 5.81152 c 0
 407.232 241.725 l 1
 318.266 365.593 274.183 427.316 252.446 457.171 c 1
 247.109 350.873 244 249.104 244 140 c 0
 244 111 l 0
 244 60.1904 240.67 68.2588 264.622 65.9961 c 1
 278.469 65.7949 307.739 61.6074 317.195 58.2305 c 0
 318.626 57.7197 l 1
 319.955 56.8887 l 0
 324.157 54.2627 339.2 41.8613 339.2 13 c 0
 339.2 -5.59082 328.579 -26 309.6 -26 c 0
 303.152 -26 263.886 -20 212 -20 c 0
 159.343 -20 120.791 -26 113.6 -26 c 0
 96.4502 -26 80.7998 -9.6875 80.7998 14 c 0
 80.7998 17.4971 80.3838 49.9961 104.021 59.0879 c 1
 132.268 70.3213 154.878 62.4766 162.228 80.2852 c 1
 162.892 82.2988 164.433 91.877 183.2 542.52 c 1
EndSplineSet
EndChar

StartChar: O
Encoding: 79 79 48
Width: 700
GlyphClass: 2
Flags: HW
HStem: -24 58<312.058 478.323> 667 53<292.575 458.918>
VStem: 92.2 76<247.435 473.525> 606.6 79.2<215.912 458.255>
LayerCount: 2
Fore
SplineSet
701.8 337 m 0
 701.8 115.786 563.06 -44 398.6 -44 c 0
 315.903 -44 233.731 -2.0332 173.93 69.5605 c 0
 113.137 142.385 77.0449 246.235 76.2002 352.901 c 1
 76.2002 567.355 217.874 740 387.4 740 c 0
 568.938 740 701.8 551.087 701.8 337 c 0
184.2 384 m 0
 184.2 216.235 256.854 54 395.4 54 c 0
 479.977 54 590.6 121.453 590.6 319 c 0
 590.6 411.603 567.826 519.467 508.047 584.967 c 0
 471.883 624.637 423.562 647 374.6 647 c 0
 283.007 647 184.2 570.719 184.2 384 c 0
EndSplineSet
EndChar

StartChar: P
Encoding: 80 80 49
Width: 515
GlyphClass: 2
Flags: HW
HStem: -6 53<68.8588 140.392 210.335 321.183> 301 35<211.046 334.286> 635 48<75.1483 140.533> 648 45<211.398 358.591>
VStem: 140.6 70.4<48.1758 301 336.165 634.629> 438.2 67.2<428.095 566.357>
LayerCount: 2
Fore
SplineSet
422.2 498 m 0
 422.2 565.048 369.544 628 259.8 628 c 0
 243.486 628 232.755 627.429 227 626.574 c 1
 227 356.208 l 1
 230.479 356.046 234.883 356 240.6 356 c 0
 355.427 356 422.2 418.22 422.2 498 c 0
112.6 703 m 2
 187.431 703 243.835 713 303 713 c 0
 371.414 713 427.22 695.439 469.743 647.822 c 1
 501.914 610.961 521.4 557.968 521.4 503 c 0
 521.4 501.866 l 1
 520.507 417.98 479.182 355.891 431.401 324.4 c 1
 398.267 301.512 344.529 281 243.8 281 c 0
 225.4 281 l 1
 225.4 82 l 0
 225.4 66.127 223.301 68.1836 235.95 66.9678 c 1
 287.13 64.2744 314.244 72.8418 330.309 49.1699 c 0
 337.068 39.21 337.4 27.8604 337.4 19 c 0
 337.4 18 l 0
 337.4 4.38281 332.152 -26 306.2 -26 c 0
 299.367 -26 254.077 -20 195.8 -20 c 0
 135.923 -20 91.4277 -26 84.5996 -26 c 0
 58.7852 -26 52.5996 4.04492 52.5996 18 c 0
 52.5996 27.9746 52.9521 39.8535 60.1621 50.0078 c 0
 73.5381 68.8467 92.2842 63.9775 116.399 66.876 c 1
 120.426 67.5322 123.734 68.8867 124.343 69.2275 c 1
 124.479 70.1533 124.6 71.6982 124.6 74 c 0
 124.6 609 l 0
 124.6 611.47 124.52 613.626 124.412 614.938 c 1
 123.337 615.017 123.612 615 123 615 c 0
 94.2002 615 l 0
 89.9287 615 80.6787 614.529 71.8027 622.803 c 0
 62.7637 631.23 59 645.424 59 661 c 0
 59 671.07 60.8271 682.391 67.5176 691.167 c 0
 74.5811 700.433 84.1777 703 92.5996 703 c 0
 112.6 703 l 2
EndSplineSet
EndChar

StartChar: Q
Encoding: 81 81 50
Width: 686
GlyphClass: 2
Flags: HW
HStem: -203 49<662.317 736.461> -16 48<332.122 482.6> 675 49<305.034 469.182>
VStem: 100.9 77.6<261.525 474.605> 608.9 71.2<231.95 470.122>
LayerCount: 2
Fore
SplineSet
410.5 52 m 0
 508.214 52 592.9 154.402 592.9 329 c 0
 592.9 418.889 571.47 532.627 508.913 599.788 c 1
 475.266 635.445 430.852 655 385.7 655 c 0
 291.533 655 194.5 568.043 194.5 392 c 0
 194.5 223.965 280.921 52 410.5 52 c 0
448.779 -31.0674 m 1
 442.144 -31.7656 423.046 -36 396.1 -36 c 0
 309.136 -36 229.199 10.2871 174.304 79.9619 c 0
 116.857 152.826 84.9004 252.782 84.9004 354 c 0
 84.9004 457.445 119.358 561.464 179.312 634.297 c 1
 235.939 704.027 315.113 744 395.3 744 c 0
 465.525 744 543.966 711.396 603.334 638.242 c 0
 663.404 564.209 696.1 460.147 696.1 356 c 0
 696.1 217.791 638.357 87.7578 556.808 10.3975 c 1
 609.557 -40.1934 629.064 -82.7119 662.606 -110.384 c 1
 680.325 -125.445 701.204 -134 721.7 -134 c 0
 731.5 -134 732.444 -133 738.5 -133 c 0
 749.918 -133 764.1 -143.34 764.1 -163 c 0
 764.1 -204.195 709.594 -223 676.9 -223 c 0
 604.201 -223 559.326 -154.318 525.586 -112.142 c 0
 525.256 -111.729 464.188 -39.1436 448.779 -31.0674 c 1
EndSplineSet
EndChar

StartChar: R
Encoding: 82 82 51
Width: 627
GlyphClass: 2
Flags: HW
HStem: -13 62<545.733 598.73> -6 55<90.174 160.614 232.614 324.518> 330 36<232.347 315.113> 640 35<81.7212 152.198> 648 39<230.974 347.714>
VStem: 160.9 71.2<49.7219 330 366.549 627.863> 420.9 62.4<431.776 566.374>
DStem2: 389.7 338 388.9 202 0.500061 -0.86599<-4.06177 347.467>
LayerCount: 2
Fore
SplineSet
404.9 496 m 0
 404.9 563.092 354.359 628 280.9 628 c 0
 274.491 628 252.852 625.494 244.9 622.799 c 1
 244.9 386.97 l 1
 251.938 386.045 263.303 386 281.7 386 c 0
 309.661 386 329.719 388.926 349.373 398.577 c 1
 378.611 413.37 404.9 446.055 404.9 496 c 0
296.9 707 m 0
 448.547 707 499.3 593.922 499.3 513 c 0
 499.3 416.054 441.841 357.806 411.64 336.553 c 1
 502.749 200.6 523.44 133.106 549.834 94.0381 c 1
 560.157 79.29 572.311 69 580.9 69 c 0
 592.081 69 584.916 91 615.3 91 c 0
 630.44 91 639.3 74.5449 639.3 60 c 0
 639.3 33.8223 610.987 -33 553.7 -33 c 0
 500.377 -33 464.997 33.1719 455.956 48.2393 c 1
 375.86 190.411 l 1
 322.069 284.09 309.338 305.726 307 308.884 c 1
 306.798 309.051 306.663 309.161 306.425 309.359 c 0
 305.848 309.841 l 1
 305.587 310.1 303.724 310 301.7 310 c 0
 248.1 310 l 1
 248.1 81 l 0
 248.1 69.8984 246.547 70.0967 254.567 68.8936 c 1
 290.608 64.8594 318.181 70.5322 334.167 46.1758 c 0
 340.078 37.1689 341.7 26.168 341.7 16 c 0
 341.7 -4.85352 329.908 -26 309.7 -26 c 0
 303.403 -26 261.613 -20 206.5 -20 c 0
 151.381 -20 110.436 -26 104.1 -26 c 0
 76.377 -26 73.7002 9.98633 73.7002 21 c 0
 73.7002 28.6074 74.7617 37.4199 79.3008 45.1738 c 0
 92.1865 67.1885 114.242 62.3516 137.614 64.8926 c 1
 141.527 65.5039 143.796 66.9385 143.855 66.9863 c 1
 144.122 67.7061 144.9 71.9707 144.9 80 c 0
 144.9 597 l 0
 144.9 603.333 144.142 605.881 144.105 605.976 c 1
 142.54 607.691 127.778 612.292 90.7588 620.339 c 1
 78.7002 623.354 65.7002 635.479 65.7002 656 c 0
 65.7002 675.058 74.8594 695 92.0996 695 c 0
 120.1 695 l 0
 189.807 695 242.062 707 296.9 707 c 0
EndSplineSet
EndChar

StartChar: S
Encoding: 83 83 52
Width: 443
GlyphClass: 2
Flags: HW
HStem: -17 56<188.451 313.118> 635 50<160.41 265.563>
VStem: 75.2 57.6<479.18 595.956> 88 40<112.089 247.636> 368 58.4<105.026 250.11>
LayerCount: 2
Fore
SplineSet
59.2002 516 m 0
 59.2002 616.312 125.89 705 218.4 705 c 0
 271.873 705 304.761 678.415 318.8 668.131 c 1
 322.962 677.481 331.335 705 355.2 705 c 0
 373.184 705 384 685.058 384 666 c 0
 384 654.019 380.8 632.683 380.8 583 c 0
 380.8 534.338 384 514.071 384 502 c 0
 384 492.219 380.796 482.004 374.443 475.386 c 0
 368.277 468.963 360.933 467 354.4 467 c 0
 353.351 467 l 1
 312.042 468.614 315.726 523.768 286.425 565.735 c 1
 266.76 593.047 239.099 615 210.4 615 c 0
 174.068 615 148.8 581.871 148.8 541 c 0
 148.8 511.633 161.252 485.478 182.914 466.262 c 1
 220.854 432.011 275.997 432.865 331.875 403.398 c 1
 394.383 369.758 442.4 297.792 442.4 198 c 0
 442.4 67.8057 358.192 -37 251.2 -37 c 0
 200.794 -37 152.719 -13.585 119.002 23.0156 c 1
 111.247 31.7393 111.257 32 104.8 32 c 0
 100.346 32 95.1631 29 84 29 c 0
 63.6836 29 53.5996 49.0137 53.5996 64 c 0
 53.5996 85.1025 64.8096 113.935 72.0566 228.692 c 1
 72.6094 236.281 73.9141 246.661 80.6543 255.774 c 0
 86.9463 264.279 96.2266 268 105.6 268 c 0
 111.634 268 119.17 267.34 126.194 261.049 c 0
 142.066 246.834 140.807 223.822 143.903 192.211 c 1
 150.062 115.231 136.283 159.194 161.646 116.924 c 1
 179.323 86.8721 210.868 59 252 59 c 0
 307.092 59 352 111.926 352 178 c 0
 352 215.155 337.251 249.2 312.216 271.801 c 0
 270.853 309.243 222.343 306.272 164.502 335.408 c 1
 93.2617 370.161 59.2002 443.005 59.2002 516 c 0
EndSplineSet
EndChar

StartChar: T
Encoding: 84 84 53
Width: 623
GlyphClass: 2
Flags: HW
HStem: -6 53<231.876 316.149 391.732 478.536> 622 66<146.102 316.984 391.79 556.886>
VStem: 317.3 74.4<49.375 621.698>
LayerCount: 2
Fore
SplineSet
465.3 -26 m 0
 458.393 -26 414.79 -20 356.5 -20 c 0
 298.996 -20 253.809 -26 247.7 -26 c 0
 222.002 -26 215.7 3.7832 215.7 20 c 0
 215.7 28.2324 216.135 38.7588 222.332 48.0732 c 0
 236.016 68.6416 257.088 63.1006 288.533 66.9043 c 1
 304.091 68.8486 301.3 68.7754 301.3 84 c 0
 301.3 591 l 0
 301.3 596.216 300.894 600.143 300.612 601.26 c 1
 299.723 601.627 298.397 602 295.7 602 c 0
 176.5 602 l 0
 166.485 602 163.726 600.248 163.726 600.248 c 1
 163.67 600.181 162.554 598.413 160.393 593.011 c 1
 130.541 519.291 126.903 489 97.2998 489 c 0
 76.3682 489 63.7002 511.776 63.7002 534 c 0
 63.7002 535 l 0
 63.7002 546.939 64.8252 548.019 87.2598 677.219 c 1
 91.918 704.39 112.303 708 119.7 708 c 0
 586.1 708 l 0
 593.289 708 600.965 705.676 606.884 699.221 c 0
 616.414 688.828 617.064 674.941 617.864 668.446 c 1
 633.839 566.617 637.3 548.802 637.3 537 c 0
 637.3 516.954 625.876 495 606.1 495 c 0
 584.362 495 575.848 519.618 573.818 524.054 c 0
 533.85 611.227 542.117 602 526.9 602 c 0
 409.3 602 l 0
 408.783 602 408.055 601.951 407.932 601.942 c 1
 407.71 599.441 407.7 597.938 407.7 595 c 0
 407.7 71 l 0
 407.7 70.2686 407.723 69.3271 407.731 69.0459 c 1
 414.632 66.75 433.093 65.6035 466.208 61.8887 c 1
 473.168 60.8008 480.768 58.8447 487.053 50.3477 c 0
 495.766 38.5693 494.9 25.0801 494.9 14 c 0
 494.9 -0.166016 487.879 -26 465.3 -26 c 0
EndSplineSet
EndChar

StartChar: U
Encoding: 85 85 54
Width: 680
GlyphClass: 2
Flags: HW
HStem: -15 57<307.793 497.895> 641 48<89.5978 144.247 219.122 291.79>
VStem: 144.7 72<149.926 634.586> 570.3 44.8<128.982 634.348>
LayerCount: 2
Fore
SplineSet
685.5 663 m 0
 685.5 580.479 631.9 664.01 631.9 572 c 0
 631.9 565.774 631.113 562.04 631.1 561.864 c 1
 631.1 335 l 0
 631.1 319.856 631.9 304.856 631.9 288 c 0
 631.9 256 l 0
 631.9 186.76 627.558 81.9756 553.846 17.5898 c 1
 510.959 -19.6074 456.296 -35 393.5 -35 c 0
 194.405 -35 149.76 106.436 138.96 150.311 c 1
 128.579 195.727 127.9 236.729 127.9 284 c 0
 127.9 309.526 128.7 335.522 128.7 360 c 0
 128.7 612 l 0
 128.7 614.954 128.438 616.901 128.291 617.729 c 1
 125.589 618.902 119.089 619.715 109.188 621.143 c 1
 104.032 621.949 73.5 626.907 73.5 665 c 0
 73.5 676.534 78.6875 709 105.5 709 c 0
 114.764 709 137.973 706.995 186.432 706 c 1
 191.1 706 l 0
 242.115 706 266.095 709 276.7 709 c 0
 301.617 709 307.9 679.908 307.9 663 c 0
 307.9 653.524 306.339 643.092 300.5 634.77 c 0
 285.712 613.693 264.151 620.784 244.552 617.199 c 1
 230.551 614.784 232.7 611.943 232.7 602 c 0
 232.7 289 l 0
 232.7 217.818 236.305 156.489 276.252 111.812 c 1
 311.339 71.4629 366.679 62 409.5 62 c 0
 440.204 62 513.476 67.3818 541.468 141.635 c 1
 553.916 173.623 555.1 215.347 555.1 244 c 0
 555.1 258 l 0
 555.1 278.352 554.3 298.352 554.3 320 c 0
 554.3 592 l 0
 554.3 626.891 553.841 619.837 515.111 625.098 c 1
 509.827 625.698 500.229 626.87 492.285 636.532 c 0
 485.843 644.369 483.1 655.627 483.1 667 c 0
 483.1 681.674 487.599 695.981 497.489 703.483 c 0
 503.25 707.851 509.248 709 514.3 709 c 0
 523.731 709 542.501 706 584.7 706 c 0
 626.896 706 645.671 709 655.1 709 c 0
 684.716 709 685.5 671.645 685.5 663 c 0
EndSplineSet
EndChar

StartChar: V
Encoding: 86 86 55
Width: 747
GlyphClass: 2
Flags: HW
HStem: -20 21G<418.3 430.7> 632 57<102.158 146.395> 639 50<242.554 308.111 544.01 612.15>
VStem: 96.7 145.6<609 673> 613.5 128.8<603 670.5>
LayerCount: 2
Fore
SplineSet
119.9 709 m 0
 130.467 709 156.034 706 209.5 706 c 0
 260.547 706 284.432 709 294.3 709 c 0
 316.72 709 324.7 684.462 324.7 670 c 0
 324.7 660.669 323.912 650.013 318.054 640.642 c 0
 306.056 621.45 288.536 623.549 266.014 619.171 c 1
 258.758 618.163 258.3 617.521 258.3 613 c 0
 258.3 611.09 259.686 606.257 261.562 601.567 c 1
 333.432 401.156 415.446 218.863 439.327 169.231 c 1
 498.209 304.112 549.633 444.258 593.565 591.508 c 1
 596.281 601.196 597.5 604.868 597.5 607 c 0
 597.5 613.646 594.359 616.56 590.661 618.101 c 1
 585.183 620.567 553.93 610.935 536.303 634.479 c 0
 530.32 642.469 527.9 653.301 527.9 664 c 0
 527.9 674.205 529.664 688.257 538.964 698.801 c 0
 544.89 705.519 553.056 709 561.5 709 c 0
 571.424 709 594.469 706 643.1 706 c 0
 692.547 706 714.744 709 724.7 709 c 0
 732.49 709 740.744 706.333 747.126 699.263 c 0
 756.54 688.831 758.3 674.265 758.3 662 c 0
 758.3 653.224 756.594 644.092 752.068 636.711 c 0
 732.359 604.565 707.544 622.409 693.246 603.418 c 1
 676.316 580.141 629.96 384.45 458.596 -9.92285 c 1
 457.508 -12.1895 448.421 -40 424.7 -40 c 0
 400.648 -40 391.167 -12.3467 390.095 -10.1123 c 1
 132.865 551.821 137.392 604.181 124.109 615.803 c 1
 124.109 615.803 80.7002 628.112 80.7002 669 c 0
 80.7002 688.688 94.7539 709 119.9 709 c 0
EndSplineSet
EndChar

StartChar: W
Encoding: 87 87 56
Width: 902
GlyphClass: 2
Flags: HW
HStem: -22 21G<352.5 362.5 610.1 624.9> 644 45<342.921 407.892 480.638 539.676 712.507 780.817>
VStem: 781.3 120<605 675>
LayerCount: 2
Fore
SplineSet
486.295 285.45 m 1
 393.371 -15.8525 398.654 -23.7148 376.165 -36.6074 c 1
 371.4 -40.1367 366.798 -42 361.3 -42 c 0
 327.33 -42 319.887 13.2041 315.356 26.2305 c 1
 207.009 357.851 153.481 592.264 147.227 613.616 c 1
 140.679 631.58 132.101 594.53 104.987 631.961 c 1
 99.2568 639.961 95.7002 646.289 95.7002 661 c 0
 95.7002 675.694 102.725 709 131.7 709 c 0
 140.98 709 162.255 706 208.5 706 c 0
 253.12 706 274.414 709 283.7 709 c 0
 313.996 709 314.1 669.553 314.1 664 c 0
 314.1 653.732 311.732 643.1 305.724 635.358 c 0
 283.651 606.921 257.145 622.557 255.338 620.411 c 1
 255.154 620.037 255.002 619.532 254.916 619.19 c 1
 255.006 617.48 255.055 617.336 255.611 615.944 c 0
 256.168 614.552 l 1
 256.546 613.068 l 0
 301.309 437.347 315.553 390.75 378.248 180.524 c 1
 387.794 208.716 407.727 273.606 448.435 402.133 c 1
 449.259 406.376 449.3 407.106 449.3 408 c 0
 449.3 409 l 0
 449.298 409.466 l 1
 448.854 412.799 441.456 440.097 397.368 599.501 c 1
 393.75 612.719 391.353 619.526 390.848 620.417 c 1
 389.577 621.092 377.835 622.641 356.157 623.996 c 1
 339.103 624.467 326.9 641.435 326.9 666 c 0
 326.9 677.167 329.701 688.572 336.303 696.915 c 0
 343.208 705.643 352.547 709 361.3 709 c 0
 371.222 709 394.258 706 443.7 706 c 0
 444.5 706 l 0
 493.131 706 516.177 709 526.1 709 c 0
 549.466 709 555.7 682.183 555.7 667 c 0
 555.7 659.198 554.943 649.844 549.776 641.502 c 0
 538.661 623.555 522.514 626.462 507.26 624.151 c 1
 501.242 623.211 497.154 621.368 496.632 620.956 c 1
 496.564 620.549 496.5 620 496.5 619 c 0
 496.5 618.445 496.789 615.992 497.591 611.146 c 1
 547.98 421.493 616.532 211.594 635.68 162.78 c 1
 712.281 365.66 763.938 595.15 765.3 616.206 c 1
 765.286 617.031 765.254 617.401 765.25 617.451 c 1
 761.113 619.638 747.032 621.172 726.693 624.128 c 1
 717.991 625.336 709.111 629.146 703.178 638.306 c 0
 696.446 648.698 696.5 660.019 696.5 667 c 0
 696.5 681.528 702.741 709 726.9 709 c 0
 736.86 709 759.064 706 807.7 706 c 0
 808.5 706 l 0
 855.504 706 877.748 709 887.7 709 c 0
 904.748 709 917.3 690.749 917.3 666 c 0
 917.3 655.945 915.204 645.692 909.748 637.852 c 0
 884.81 602.003 865.946 629.575 857.102 610.764 c 1
 850.045 589.826 792.378 356.39 665.445 17.666 c 1
 656.16 -8.22656 645.151 -42 618.1 -42 c 0
 587.113 -42 575.433 3.43848 569.529 23.9336 c 1
 500.111 243.408 481.152 305.371 475.808 319.172 c 0
 486.295 285.45 l 1
EndSplineSet
EndChar

StartChar: X
Encoding: 88 88 57
Width: 598
GlyphClass: 2
Flags: HW
HStem: -6 48<70.4941 139.122 200.304 270.887 358.526 423.685 516.213 592.434> 641 48<80.8851 150.099 380.513 444.186>
VStem: 70.3 129.6<8.5 74> 294.3 71.2<326.776 370.875> 444.7 148<597 676.5>
LayerCount: 2
Fore
SplineSet
339.939 440.385 m 1
 421.144 583.045 428.7 595.825 428.7 611 c 0
 428.7 622.914 429.337 620.569 399.673 623.041 c 1
 392.019 623.639 382.525 625.719 374.78 634.769 c 0
 366.556 644.379 363.9 658.074 363.9 672 c 0
 363.9 684.615 370.871 709 392.7 709 c 0
 403.241 709 429.608 706 484.7 706 c 0
 540.489 706 567.108 709 578.3 709 c 0
 584.758 709 591.573 706.995 597.272 701.69 c 0
 605.684 693.863 608.7 681.564 608.7 671 c 0
 608.7 656.739 606.281 643.215 598.434 633.443 c 0
 574.41 603.534 547.024 626.045 528.56 608.87 c 1
 518.781 600.041 487.479 549.062 482.998 540.263 c 0
 461.962 498.925 550.904 673.696 482.795 539.863 c 1
 462.18 503.312 554.466 666.923 482.577 539.477 c 0
 413.3 416.636 389.717 375.777 382.86 362.681 c 1
 391.095 344.928 419.98 288.839 516.612 97.7109 c 0
 535.704 60.0762 526.632 69.0664 573.575 62.8896 c 0
 573.955 62.8398 l 1
 574.333 62.7676 l 0
 587.186 60.2959 608.7 48.79 608.7 15 c 0
 608.7 -16.2354 588.725 -26 579.1 -26 c 0
 572.761 -26 531.836 -20 475.9 -20 c 0
 421.603 -20 379.794 -26 373.5 -26 c 0
 352.86 -26 342.3 -4.04883 342.3 15 c 0
 342.3 24.5312 343.494 34.9385 348.965 43.875 c 0
 361.592 64.5029 381.799 62.0938 403.995 65.793 c 1
 405.758 66.1406 407.688 66.9727 407.88 67.0723 c 1
 407.896 67.4062 407.9 67.6357 407.9 68 c 0
 407.9 70 l 0
 407.896 70.5205 l 1
 406.67 75.127 389.984 109.335 316.963 254.806 c 1
 305.857 235.215 277.984 184.669 221.781 83.4844 c 1
 217.701 76.3418 215.9 71.084 215.9 69 c 0
 215.9 68.6885 215.905 68.5322 215.905 68.5322 c 1
 220.551 66.3076 232.71 64.5752 251.348 61.8662 c 0
 251.741 61.8096 l 1
 252.131 61.7275 l 0
 257.899 60.5264 270.047 58.9834 279.127 45.6797 c 0
 284.502 37.8057 287.1 27.1924 287.1 16 c 0
 287.1 5.23926 282.578 -26 256.7 -26 c 0
 250.604 -26 215.846 -20 169.5 -20 c 0
 122.537 -20 88.9951 -26 82.2998 -26 c 0
 59.2412 -26 54.2998 1.77441 54.2998 13 c 0
 54.2998 24.374 54.5713 36.6084 61.6992 47.3643 c 0
 73.1514 64.6436 88.8818 62.8896 106.704 66.6924 c 1
 130.608 72.1973 130.266 77.1484 163.676 135.617 c 0
 242.595 273.859 268.884 319.09 276.801 333.778 c 1
 268.914 351.024 241.631 404.626 153.557 580.35 c 1
 130.579 625.75 133.083 617.055 99.2764 621.079 c 1
 93.0137 621.732 82.6572 623.458 74.3496 633.973 c 0
 67.7373 642.343 64.7002 654.279 64.7002 667 c 0
 64.7002 675.602 65.8193 687.917 73.6855 697.911 c 0
 79.6289 705.461 88.1504 709 96.7002 709 c 0
 107.241 709 133.609 706 188.7 706 c 0
 191.1 706 l 2
 245.326 706 270.166 709 280.7 709 c 0
 299.245 709 311.9 689.919 311.9 660 c 0
 311.9 611.439 256.027 619.052 256.027 619.052 c 1
 255.937 618.399 255.9 617.97 255.9 617 c 0
 255.9 613.771 259.631 606.395 263.516 596.684 c 0
 312.513 495.94 333.037 453.322 343.16 433.343 c 1
 344.567 430.587 344.215 431.278 344.845 430.061 c 0
 339.939 440.385 l 1
EndSplineSet
EndChar

StartChar: Y
Encoding: 89 89 58
Width: 600
GlyphClass: 2
Flags: HW
HStem: -6 51<200.189 285.262 353.474 458.961> 642 47<212.853 285.264 410.511 483.668>
VStem: 285.4 68<49.9095 315.178> 483.8 110.4<610 673>
DStem2: 343.8 353 436.6 427 0.527137 0.849781<-8.8333 291.714>
LayerCount: 2
Back
SplineSet
459 21 m 6
 459 13 l 6
 459 4 456.6 -6 446.2 -6 c 4
 442.2 -6 393.4 0 333.4 0 c 4
 271.8 0 223 -6 219.8 -6 c 4
 210.2 -6 199.8 0 199.8 22 c 4
 199.8 49 209.4 44 262.2 48 c 4
 273.4 49 285.4 48 285.4 70 c 6
 285.4 277 l 6
 285.4 301 280.6 307 268.6 332 c 4
 121.4 627 125.4 620 121.4 627 c 4
 106.2 651 87.7998 632 79 653 c 4
 77.4004 656 75.7998 661 75.7998 667 c 4
 75.7998 676 79.7998 689 95.7998 689 c 4
 104.6 689 131 686 183.8 686 c 4
 236.6 686 262.2 689 271 689 c 4
 283 689 285.4 679 285.4 669 c 4
 285.4 639 274.2 643 233.4 639 c 4
 227 638 212.6 636 212.6 616 c 6
 212.6 614 l 6
 212.6 604 215.8 600 326.2 361 c 4
 331 351 332.6 347 337.4 347 c 4
 341.4 347 343 352 343.8 353 c 4
 463 558 483.8 589 483.8 617 c 4
 483.8 666 410.2 618 410.2 669 c 4
 410.2 677 414.2 689 427 689 c 4
 434.2 689 455.8 686 498.2 686 c 6
 500.6 686 l 5
 543.8 687 564.6 689 571.8 689 c 4
 588.6 689 594.2 677 594.2 669 c 4
 594.2 648 571.8 645 552.6 614 c 6
 436.6 427 l 5
 354.2 287 353.4 296 353.4 265 c 6
 353.4 70 l 6
 353.4 46 363.8 50 441.4 45 c 4
 455.8 44 459 35 459 21 c 6
EndSplineSet
Fore
SplineSet
445.383 622.025 m 0
 433.723 622.632 414.572 620.917 401.989 639.624 c 0
 396.511 647.771 394.2 658.359 394.2 669 c 0
 394.2 675.909 395.521 683.658 399.375 691.148 c 0
 404.652 701.403 414.797 709 427 709 c 0
 436.384 709 456.008 706 498.2 706 c 0
 500.451 706 l 1
 543.261 706.99 563.165 709 571.8 709 c 0
 595.576 709 610.2 689.213 610.2 669 c 0
 610.2 631.405 576.152 619.357 565.244 601.745 c 0
 449.368 414.944 l 1
 365.204 271.952 369.4 286.877 369.4 265 c 0
 369.4 70.4678 l 1
 378.121 68.1904 400.98 67.6309 442.256 64.9717 c 1
 451.409 64.3359 460.788 60.9248 467.309 51.5498 c 0
 474.299 41.499 475 29.7734 475 21 c 0
 475 13 l 0
 475 1.05176 469.32 -26 446.2 -26 c 0
 439.411 -26 393.288 -20 333.4 -20 c 0
 271.846 -20 225.866 -26 219.8 -26 c 0
 212.522 -26 203.261 -23.7998 195.531 -15.1553 c 0
 187.638 -6.32617 183.8 7.13184 183.8 22 c 0
 183.8 30.7607 184.241 41.7871 190.848 51.3672 c 0
 205.271 72.2861 228.166 65.459 261.146 67.957 c 1
 264.562 68.2617 268.132 68.5303 269.38 68.7393 c 1
 269.402 69.7383 269.4 69 269.4 70 c 0
 269.4 277 l 0
 269.4 296.124 267.82 294.751 254.951 321.562 c 1
 111.052 609.949 111.137 610.538 108.626 614.945 c 1
 104.338 621.308 81.8516 606.594 65.1201 643.008 c 1
 61.9824 649.435 59.7998 657.138 59.7998 667 c 0
 59.7998 674.614 61.2773 684.334 66.8369 693.152 c 0
 73.1572 703.175 83.7266 709 95.7998 709 c 0
 106.395 709 131.146 706 183.8 706 c 0
 236.427 706 260.41 709 271 709 c 0
 278.691 709 286.633 706.094 292.408 699.179 c 0
 300.757 689.184 301.4 676.636 301.4 669 c 0
 301.4 657.955 300.408 645.58 293.024 635.582 c 0
 278.932 616.498 258.667 621.358 235.026 619.099 c 1
 232.011 618.628 229.641 617.909 228.669 617.348 c 1
 228.608 616.759 228.6 616.617 228.6 616 c 0
 228.6 614.456 l 1
 230.81 607.009 250.363 565.126 337.582 376.356 c 1
 407.33 496.581 441.033 553.119 456.447 584.226 c 1
 463.408 599.471 467.8 612.546 467.8 616 c 0
 467.8 617.415 467.694 618.956 467.666 619.263 c 1
 464.1 620.476 456.676 621.17 445.383 622.025 c 0
EndSplineSet
EndChar

StartChar: Z
Encoding: 90 90 59
Width: 566
GlyphClass: 2
Flags: HW
HStem: 0 81<214.157 481.439> 600 75<124.929 431.599> 706 20G<96 106>
VStem: 76.4 32.8<486.018 580.65> 82.8 37.6<681.217 725.616> 525.2 34.4<149.472 255.763>
LayerCount: 2
Fore
SplineSet
60.4004 511 m 0
 60.4004 530.359 66.7998 571.375 66.7998 661 c 0
 66.7998 698 l 0
 66.7998 729.339 83.9336 746 99.5996 746 c 0
 124.608 746 132.768 716.46 135.021 710.123 c 0
 135.396 709.068 l 1
 135.672 707.966 l 0
 136.256 705.627 144.487 695 164.4 695 c 0
 513.2 695 l 0
 537.34 695 548.4 673.258 548.4 657 c 0
 548.4 632.518 538.316 625.895 473.024 518.71 c 1
 356.818 336.388 l 1
 310.339 266.27 265.573 195.479 230.346 117.195 c 0
 230.049 116.535 l 1
 229.713 115.906 l 0
 229.558 115.615 228.661 113.226 228.547 112.756 c 1
 235.06 109.522 256.305 106.972 293.418 103.959 c 1
 318.619 101.991 344.736 101 370.8 101 c 0
 387.6 101 l 0
 447.577 101 475.589 103.548 491.241 149.725 c 1
 499.316 174.12 501.815 232.26 510.889 254.944 c 0
 511.334 256.058 l 1
 511.887 257.094 l 0
 514.968 262.871 524.085 276 540.4 276 c 0
 555.543 276 575.6 259.91 575.6 228 c 0
 575.6 227 l 0
 575.6 182.477 569.666 160.304 565.908 120.85 c 1
 561.266 61.1387 570.948 -12.0068 520.785 -19.8457 c 0
 519.796 -20 l 1
 98.7998 -20 l 0
 95.3369 -20 60.4004 -19.7871 60.4004 21 c 0
 60.4004 35.9365 66.9346 47.1201 70.0068 52.0254 c 1
 174.541 236.9 288.537 414.365 408.232 580 c 1
 162 580 l 0
 132.632 580 141.798 586.393 124.711 503.091 c 1
 123.468 496.878 117.692 466 92.4004 466 c 0
 77.9307 466 60.4004 481.359 60.4004 511 c 0
EndSplineSet
EndChar

StartChar: bracketleft
Encoding: 91 91 60
Width: 340
GlyphClass: 2
Flags: HW
HStem: -185 25<143.2 158.586> 223 77<58.259 97.6488> 233 60<79.9203 100.951>
VStem: 56.2 81.6<233.178 292.875> 101.8 36<-159.999 232.998 293.002 678.999> 191.4 33.6<-138.954 654.033>
LayerCount: 2
Fore
SplineSet
153.8 -128.608 m 1
 161.287 -124.512 168.272 -121.756 175.4 -119.673 c 1
 175.4 639.329 l 1
 168.989 641.194 162.56 643.285 153.8 647.708 c 1
 153.8 -128.608 l 1
121 764 m 0
 156.147 764 157.549 728 215.4 728 c 0
 267.206 728 293.604 757 312.2 757 c 0
 333.635 757 337.8 730.5 337.8 721 c 0
 337.8 689.998 294.12 640.934 240.213 633.808 c 1
 240.991 -118.82 l 1
 252.515 -120.791 268.577 -124.772 291.794 -141.969 c 1
 311.896 -158.05 337 -180.097 337 -207 c 0
 337 -221.765 328.251 -240 311.4 -240 c 0
 288.187 -240 265.945 -205 206.6 -205 c 0
 153.427 -205 135.821 -230 114.6 -230 c 0
 90.7256 -230 85.7998 -201.233 85.7998 -188 c 0
 85.7998 203.668 l 1
 83.0654 203.119 81.709 203 79.4004 203 c 0
 45.8506 203 40.2002 245.541 40.2002 264 c 0
 40.2002 303.803 62.6816 320 79.4004 320 c 0
 81.3018 320 83.5938 319.751 85 319.592 c 1
 85 710 l 0
 85 719.224 84.5137 740.363 98.4883 754.648 c 0
 104.55 760.844 112.592 764 121 764 c 0
EndSplineSet
EndChar

StartChar: backslash
Encoding: 92 92 61
Width: 211
GlyphClass: 2
Flags: HW
HStem: -226 21G<180.7 186.7>
VStem: 25.9 183.2
LayerCount: 2
Fore
SplineSet
159.5 -217.286 m 1
 27.9268 492.737 9.90039 582.573 9.90039 596 c 0
 9.90039 629.412 41.1602 638 50.7002 638 c 0
 71.3652 638 76.957 613.426 78.084 608.494 c 0
 78.2617 607.72 l 1
 78.3877 606.931 l 0
 152.236 146.392 225.1 -170.592 225.1 -200 c 0
 225.1 -233.544 194.753 -246 184.3 -246 c 0
 163.238 -246 159.5 -223.653 159.5 -217.286 c 1
EndSplineSet
EndChar

StartChar: bracketright
Encoding: 93 93 62
Width: 340
GlyphClass: 2
Flags: HW
HStem: -185 25<219.414 234.8> 223 77<280.351 319.741> 233 60<277.049 298.08>
VStem: 153 33.6<-138.954 654.033> 240.2 81.6<233.178 292.875> 240.2 36<-159.999 232.998 293.002 678.999>
LayerCount: 2
Fore
SplineSet
224.2 -128.608 m 1
 224.2 647.708 l 1
 213.242 642.175 207.928 640.879 202.6 639.329 c 1
 202.6 -119.673 l 1
 212.303 -122.509 218.329 -125.396 224.2 -128.608 c 1
257 764 m 0
 264.9 764 272.502 761.247 278.442 755.693 c 0
 293.52 741.598 293 719.305 293 710 c 0
 293 319.592 l 1
 298.079 320.165 296.213 320 298.6 320 c 0
 315.318 320 337.8 303.803 337.8 264 c 0
 337.8 245.476 332.218 203 298.6 203 c 0
 296.022 203 292.2 203.668 292.2 203.668 c 1
 292.2 -188 l 0
 292.2 -201.233 287.274 -230 263.4 -230 c 0
 241.017 -230 225.584 -205 171.4 -205 c 0
 112.131 -205 89.7197 -240 66.5996 -240 c 0
 49.749 -240 41 -221.765 41 -207 c 0
 41 -179.617 66.1904 -157.982 86.207 -141.969 c 1
 109.647 -124.606 127.132 -120.509 137.009 -118.82 c 1
 137.787 633.808 l 1
 82.3213 641.14 40.2002 690.601 40.2002 721 c 0
 40.2002 730.5 44.3652 757 65.7998 757 c 0
 84.4219 757 110.773 728 162.6 728 c 0
 220.449 728 221.854 764 257 764 c 0
EndSplineSet
EndChar

StartChar: asciicircum
Encoding: 94 94 63
Width: 416
GlyphClass: 2
Flags: HW
HStem: 606 110<229.554 266.21>
VStem: 119.212 257.6<472 492>
LayerCount: 2
Fore
SplineSet
136.812 442 m 0
 117.371 442 103.213 461.679 103.213 484 c 0
 103.213 498.618 108.629 509.158 111.064 514.231 c 1
 200.994 704.545 201.302 716.61 226.991 731.207 c 0
 227.327 731.398 l 1
 1247.69 1241.79 227.67 731.57 227.67 731.57 c 0
 233.378 734.424 239.465 736 245.612 736 c 0
 276.314 736 291.646 699.332 298.797 686.331 c 0
 299.002 685.958 l 1
 545.462 191.245 299.193 685.574 299.193 685.574 c 0
 385.469 512.427 392.812 510.522 392.812 483 c 0
 392.812 456.867 375.421 440 357.612 440 c 0
 328.784 440 313.118 476.422 304.938 489.792 c 1
 271.504 543.602 255.292 570.559 248.218 581.359 c 1
 239.65 568.919 223.208 543.196 186.711 487.205 c 1
 175.361 470.515 163.15 442 136.812 442 c 0
EndSplineSet
EndChar

StartChar: underscore
Encoding: 95 95 64
Width: 474
GlyphClass: 2
Flags: HW
HStem: -76 55<74.4314 453.556>
LayerCount: 2
Fore
SplineSet
58.4033 -50 m 2
 58.4033 -46 l 0
 58.4033 -38.5146 58.0811 -1 85.6035 -1 c 0
 442.403 -1 l 0
 469.153 -1 469.604 -37.4521 469.604 -46 c 0
 469.604 -48 l 0
 469.604 -54.0977 471.922 -96 442.403 -96 c 0
 85.6035 -96 l 0
 56.7295 -96 58.4033 -55.8564 58.4033 -50 c 2
EndSplineSet
EndChar

StartChar: grave
Encoding: 96 96 65
Width: 203
GlyphClass: 2
Flags: HW
HStem: 474 227
VStem: 27.8 158.4
LayerCount: 2
Fore
SplineSet
11.7998 664 m 0
 11.7998 697.865 34.0947 721 57.4004 721 c 0
 58.2002 721 l 0
 91.5752 721 109.394 681.998 115.573 669.982 c 1
 194.354 523.253 202.2 520.122 202.2 494 c 0
 202.2 474.51 190.133 454 171 454 c 0
 169.4 454 l 0
 146.887 454 145.764 466.31 36.4463 604.908 c 1
 31.9434 610.536 11.7998 631.172 11.7998 664 c 0
EndSplineSet
EndChar

StartChar: a
Encoding: 97 97 66
Width: 383
GlyphClass: 2
Flags: HW
HStem: -12 59<311.51 356.626> 193 37<173.523 251.752> 387 47<143.624 227.837>
VStem: 71 59.2<48.7656 154.201> 252.6 56<76.3281 192.996 230.096 353.167>
LayerCount: 2
Fore
SplineSet
51.7998 345 m 0
 51.7998 401.355 121.671 454 191 454 c 0
 221.933 454 313.484 441.602 322.933 325.845 c 1
 323.761 313.419 324.6 301.232 324.6 288 c 0
 324.6 91 l 0
 324.6 64.1738 333.556 67 335.8 67 c 0
 348.25 67 333.93 100 371 100 c 0
 385.529 100 394.2 83.2207 394.2 67 c 0
 394.2 36.5957 370.966 -32 316.6 -32 c 0
 287.169 -32 266.75 -10.4658 257.1 2.18262 c 1
 252.37 -2.65918 250.587 -4.29688 245.47 -8.64648 c 1
 224.583 -25.6738 195.626 -40 162.2 -40 c 0
 98.1426 -40 55 20.6484 55 92 c 0
 55 93 l 0
 55 137.411 71.7881 175.039 94.6533 197.665 c 1
 136.578 239.396 212.505 246.562 235.8 248.985 c 1
 235.8 280 l 0
 235.8 310.688 232.762 328.935 220.695 346.635 c 1
 212.6 357.409 200.843 367 186.2 367 c 0
 153.011 367 134.331 317.607 131.711 311.056 c 0
 131.065 309.443 l 1
 130.2 308 l 0
 126.776 302.294 116.884 289 99.7998 289 c 0
 78.7109 289 51.7998 307.529 51.7998 345 c 0
181.4 55 m 0
 212.762 55 232.32 83.3193 234.78 87.625 c 0
 236.162 90.043 236.6 91.2656 236.6 99 c 0
 236.6 164 l 0
 236.6 167.27 236.564 171.072 236.542 172.622 c 1
 215.95 170.952 177.188 162.189 160.355 142.423 c 0
 160.052 142.068 l 1
 159.735 141.732 l 0
 152.504 134.084 146.2 121.807 146.2 103 c 0
 146.2 89.9629 150.281 70.9873 157.675 62.8994 c 1
 162.41 57.4736 172.063 55 181.4 55 c 0
EndSplineSet
EndChar

StartChar: b
Encoding: 98 98 67
Width: 436
GlyphClass: 2
Flags: HW
HStem: -19 41<169.323 311.569> 377 53<195.065 307.225> 693 20G<151.3 155.3>
VStem: 103.3 55.2<2.73671 330.126> 105.7 56<65.0945 353.728 389.001 621.937> 379.3 50.4<104.331 284.133>
LayerCount: 2
Fore
SplineSet
177.852 420.179 m 1
 197.366 433.334 228.743 450 273.7 450 c 0
 377.273 450 445.7 349.287 445.7 209 c 0
 445.7 142.51 426.684 28.5146 328.978 -17.6982 c 1
 292.547 -35.0469 252.938 -39 233.7 -39 c 0
 190.504 -39 171.898 -20 156.1 -20 c 0
 140.254 -20 145.843 -41 116.1 -41 c 0
 87.1387 -41 87.2998 -0.571289 87.2998 9 c 0
 87.2998 126.186 89.7002 477.186 89.7002 594 c 0
 89.7002 595.531 89.626 596.682 89.585 597.234 c 1
 89.0098 597.812 88.0527 598.669 87.4756 599.15 c 1
 57.9521 621.796 35.2998 627.987 35.2998 656 c 0
 35.2998 680.193 54.0801 686.731 55.792 687.587 c 1
 137.1 727.839 140.48 733 152.9 733 c 0
 154.224 733 l 1
 155.53 732.729 l 0
 165.002 730.754 180.1 718.823 180.1 693 c 0
 180.1 643.006 178.365 483.577 177.852 420.179 c 1
363.3 192 m 0
 363.3 293.853 305.15 357 245.7 357 c 0
 218.301 357 181.547 335.795 175.3 325.905 c 1
 175.3 72 l 0
 175.3 66.2002 174.502 64.0264 174.502 64.0264 c 1
 174.558 61.0977 174.609 60.9443 174.688 60.1396 c 1
 175.031 59.9141 175.373 59.7119 175.837 59.4707 c 1
 197.312 48.3623 220.057 42 243.3 42 c 0
 316.524 42 363.3 101.347 363.3 192 c 0
EndSplineSet
EndChar

StartChar: c
Encoding: 99 99 68
Width: 344
GlyphClass: 2
Flags: HW
HStem: -18 64<173.586 279.248> 376 52<153.576 240.841>
VStem: 53.3 52.8<134.62 305.205>
LayerCount: 2
Fore
SplineSet
206.9 -38 m 0
 104.712 -38 37.2998 65.6152 37.2998 197 c 0
 37.2998 342.086 112.643 448 224.5 448 c 0
 284.153 448 342.1 411.578 342.1 354 c 0
 342.1 318.434 318.17 296 294.1 296 c 0
 241.542 296 231.225 356 197.3 356 c 0
 161.453 356 122.1 299.905 122.1 222 c 0
 122.1 137.571 169.609 66 232.5 66 c 0
 289.251 66 290.466 120 330.1 120 c 0
 345.55 120 359.7 104.57 359.7 83 c 0
 359.7 70.541 355.374 61.124 351.771 55.1172 c 1
 323.869 7.16113 272.973 -38 206.9 -38 c 0
EndSplineSet
EndChar

StartChar: d
Encoding: 100 100 69
Width: 446
GlyphClass: 2
Flags: HW
HStem: -21 52<195.81 312.296> 383 40<178.773 306.277> 694 20G<380.5 385.3>
VStem: 64.5 53.6<127.427 307.105> 334.9 56.8<69.2324 354.672 408.003 610.663>
LayerCount: 2
Fore
SplineSet
241.3 363 m 0
 169.156 363 134.1 309.076 134.1 216 c 0
 134.1 104.968 209.566 51 257.3 51 c 0
 285.969 51 314.335 70.0049 317.109 79.5176 c 1
 318.448 86.4404 318.9 90.8301 318.9 97 c 0
 318.9 321 l 0
 318.9 327.086 320.135 324.89 315.81 330.583 c 1
 295.096 354.358 268.166 363 241.3 363 c 0
242.9 443 m 2
 277.864 443 303.824 436.434 318.9 431.811 c 1
 318.9 585 l 0
 318.9 586.188 318.856 587.342 318.833 587.764 c 1
 315.388 590.497 302.024 597.026 281.716 607.055 c 1
 278.232 608.328 255.7 614.362 255.7 642 c 0
 255.7 662.864 270.024 669.641 270.024 669.641 c 0
 270.905 670.374 l 1
 271.853 670.956 l 0
 357.193 723.287 367.812 734 382.1 734 c 0
 399.382 734 407.7 714.503 407.7 700 c 0
 407.7 666.245 405.3 569.93 405.3 376 c 0
 405.3 286.199 406.662 122.904 407.458 89.1797 c 1
 413.599 88.7393 420.477 88.6084 429.816 87.9961 c 1
 429.816 87.9961 460.5 90.001 460.5 54 c 0
 460.5 18.6016 427.707 14.7842 405.108 -1.45801 c 1
 371.14 -24.5352 364.927 -48 342.1 -48 c 0
 334.565 -48 319.7 -38.7383 319.7 -18 c 0
 319.7 -18 262.359 -41 238.9 -41 c 0
 124.531 -41 48.5 71.5908 48.5 207 c 0
 48.5 319.182 105.799 443 242.1 443 c 0
 242.9 443 l 2
EndSplineSet
EndChar

StartChar: e
Encoding: 101 101 70
Width: 369
GlyphClass: 2
Flags: HW
HStem: -19 57<174.683 289.384> 376 55<146.474 241.077>
VStem: 59.7 56.8<115.769 316.359> 274.1 77.6<292.942 337.386>
LayerCount: 2
Fore
SplineSet
43.7002 206 m 0
 43.7002 354.237 117.312 451 207.7 451 c 0
 269.81 451 326.427 401.123 357.926 347.304 c 1
 363.666 337.874 367.7 327.694 367.7 313 c 0
 367.7 312 l 0
 367.7 259.576 307.618 249.775 292.098 243.085 c 1
 190.135 199.367 148.405 182.512 133.468 175.053 c 1
 138.678 141.187 160.953 58 234.9 58 c 0
 265.527 58 297.179 75.0068 318.879 101.258 c 1
 321.416 104.43 331.176 121 348.5 121 c 0
 363.01 121 377.3 107.109 377.3 86 c 0
 377.3 75.9336 373.754 65.8389 368.178 57.4756 c 1
 332.949 0.551758 276.305 -39 214.1 -39 c 0
 141.298 -39 43.7002 23.582 43.7002 206 c 0
254.479 313.342 m 1
 242.969 330.759 215.884 356 190.1 356 c 0
 159.017 356 134.215 323.814 129.879 253.003 c 1
 163.979 269.153 233.664 303.097 254.479 313.342 c 1
EndSplineSet
EndChar

StartChar: f
Encoding: 102 102 71
Width: 272
GlyphClass: 2
Flags: HW
HStem: -6 45<53.4542 102.865 161.4 222.99> 359 52<47.6592 104.928 161.448 263.923> 653 67<218.546 314.935>
VStem: 106.2 55.2<38.7292 358.944 411.182 564.612>
LayerCount: 2
Fore
SplineSet
65.4004 -26 m 0
 38.0762 -26 37.4004 10.9727 37.4004 19 c 0
 37.4004 54.8584 66.7842 54.499 86.6943 58.3916 c 1
 86.8408 60.8896 86.8906 62.1963 87.0527 64.6279 c 1
 88.5098 87.3955 90.1338 154.348 90.1982 339.661 c 1
 83.6533 339.764 75.29 339.696 63.6328 340 c 1
 61.3613 340 52.6572 339.179 43.8809 346.176 c 0
 36 352.46 31 364.632 31 378 c 0
 31 394.242 33.5068 410.373 44.167 420.435 c 0
 50.4287 426.345 58.1211 428 63.4805 428 c 1
 74.2041 428.536 84.8496 428.682 88.8369 428.75 c 1
 90.2041 473.499 95.1309 555.092 125.151 621.017 c 1
 160.44 696.006 230.441 740 285.4 740 c 0
 335.68 740 359 701.072 359 668 c 0
 359 638.618 340.078 609 309.4 609 c 0
 277.759 609 259.438 633 243 633 c 0
 204.401 633 176.6 555.977 176.6 436 c 0
 176.6 431 l 1
 247 431 l 0
 253.833 431 263.28 429.855 271.183 420.727 c 0
 277.835 413.043 280.6 401.856 280.6 391 c 0
 280.6 390 l 0
 280.6 381.349 278.011 339 243.8 339 c 0
 177.4 339 l 1
 177.4 61 l 0
 177.4 59.4111 177.453 57.835 177.502 57.04 c 1
 178.299 56.9551 177.715 57.0068 178.514 56.9541 c 1
 183.039 56.4629 186.118 56.2041 189.593 55.9492 c 0
 210.827 54.3926 239 55.6924 239 16 c 0
 239 1.67578 233.199 -26 210.2 -26 c 0
 205.138 -26 199.586 -24.4688 186.219 -22.9141 c 0
 173.663 -21.4541 156.736 -20 138.2 -20 c 0
 99.1279 -20 72.1826 -26 65.4004 -26 c 0
EndSplineSet
EndChar

StartChar: g
Encoding: 103 103 72
Width: 397
GlyphClass: 2
Flags: HW
HStem: -234 47<159.503 318.194> -30 44<151.266 306.546> 112 35<167.869 247.402> 351 101<335.478 367.235> 399 34<156.358 234.649>
VStem: 62.9 62.4<200.871 354.327> 66.9 44.8<-139.464 -47.0017> 80.5 40.8<19.8401 100.604> 278.9 57.6<197.295 342.215> 343.7 46.4<-158.727 -67.4462>
LayerCount: 2
Fore
SplineSet
194.9 379 m 0
 166.206 379 141.3 348.082 141.3 289 c 0
 141.3 218.64 171.625 167 207.7 167 c 0
 239.092 167 262.9 202.39 262.9 258 c 0
 262.9 323.221 232.456 379 194.9 379 c 0
127.7 -88 m 0
 127.7 -129.032 169.998 -167 242.1 -167 c 0
 319.945 -167 327.7 -128.89 327.7 -114 c 0
 327.7 -90.1953 311.798 -77.0244 305.079 -73.207 c 0
 304.745 -73.0176 l 1
 304.418 -72.8086 l 0
 275.719 -54.4736 225.396 -60.873 142.276 -50.0283 c 1
 141.23 -51.2959 140.006 -52.9023 138.214 -55.1426 c 0
 131.967 -62.9512 127.7 -76.2344 127.7 -88 c 0
46.9004 277 m 0
 46.9004 372.247 109.523 453 192.5 453 c 0
 254.037 453 290.19 417 293.3 417 c 0
 301.379 417 313.388 425.495 321.503 439.944 c 1
 324.643 446.29 334.646 472 358.1 472 c 0
 383.976 472 404.5 441.311 404.5 411 c 0
 404.5 361.397 358.537 344.168 345.472 337.551 c 1
 348.489 325.547 352.5 306.99 352.5 280 c 0
 352.5 177.428 288.002 92 203.7 92 c 0
 174.779 92 159.468 100.94 157.417 100.999 c 1
 156.17 100.713 149.717 96.3389 144.614 88.668 c 0
 139.662 81.2236 137.3 72.9209 137.3 70 c 0
 137.3 37.8584 240.71 63.082 321.761 33.207 c 1
 378.82 12.8291 406.1 -44.4629 406.1 -97 c 0
 406.1 -164.43 361.839 -254 223.7 -254 c 0
 86.0459 -254 50.9004 -165.571 50.9004 -108 c 0
 50.9004 -61.3291 71.417 -31.6182 85.1299 -17.1074 c 1
 74.5498 -4.9502 64.5 13.9512 64.5 43 c 0
 64.5 87.3174 89.3809 121.537 103.469 138.712 c 1
 91.627 148.992 77.0479 164.838 64.1963 194.098 c 1
 52.4521 218.941 46.9004 248.112 46.9004 277 c 0
EndSplineSet
EndChar

StartChar: h
Encoding: 104 104 73
Width: 462
GlyphClass: 2
Flags: HW
HStem: -6 42<67.8214 115.498 285.408 345.352 406.651 449.388> 371 51<204.643 295.068> 699 20G<162.6 168.6>
VStem: 120.6 52.8<39.8055 348.283 385.001 609.081> 347 59.2<38.0009 293.71>
LayerCount: 2
Fore
SplineSet
269.4 8 m 2
 269.4 15 l 0
 269.4 56.8066 304.002 53.583 328.732 57.7988 c 1
 329.207 57.8877 329.208 57.8926 329.286 57.9092 c 1
 330.705 66.3311 331 86.9111 331 125 c 0
 331 267.519 313.267 299.16 297.064 321.135 c 1
 282.93 338.561 263.859 351 243.8 351 c 0
 233.451 351 223.016 347.61 213.991 342.362 c 0
 198.576 333.398 190.183 319.451 189.723 317.149 c 0
 189.552 316.297 189.4 314.136 189.4 309 c 0
 189.4 303.866 189.635 84.4033 190.772 65.377 c 1
 191.754 59.7217 251 70.3398 251 15 c 0
 251 10.085 251.842 -26 226.2 -26 c 0
 219.505 -26 191.652 -20 152.6 -20 c 0
 111.904 -20 84.0791 -26 77.4004 -26 c 0
 51.0176 -26 51.7998 10.0449 51.7998 14 c 0
 51.7998 48.2549 77.3037 51.0713 94.3516 55.6377 c 1
 101.693 57.2334 99.7568 55.4297 100.619 71.043 c 1
 103.038 162.988 104.6 253.214 104.6 345 c 0
 104.6 349 l 0
 104.6 422.54 102.557 561.479 101.654 588.366 c 1
 100.623 589.073 44.5996 594.222 44.5996 636 c 0
 44.5996 664.753 65.8965 672.68 65.8965 672.68 c 1
 151.439 734.658 149.283 739 165.4 739 c 0
 166.2 739 l 0
 177.6 739 194.2 726.906 194.2 699.968 c 1
 193.462 415.644 l 1
 211.839 427.566 239.507 442 275.8 442 c 0
 335.622 442 377.283 397.706 397.701 338.893 c 1
 415.01 288.047 419.003 252.967 422.2 66.2139 c 1
 422.2 60.624 422.729 57.709 422.91 56.9492 c 1
 425.046 55.9736 429.915 55.0264 437.746 53.8516 c 1
 446.622 52.4648 465.4 43.3301 465.4 16 c 0
 465.4 -5.33203 456.404 -26 439 -26 c 0
 432.134 -26 406.114 -20 366.2 -20 c 0
 327.962 -20 300.978 -26 294.2 -26 c 0
 273.797 -26 269.4 -0.962891 269.4 8 c 2
EndSplineSet
EndChar

StartChar: i
Encoding: 105 105 74
Width: 218
GlyphClass: 2
Flags: HW
HStem: -6 44<38.9121 98.8499 155.379 207.596> 421 20<144.003 149.203> 571 94<114.016 177.738>
VStem: 99.6033 53.6<39.1511 336.573> 107.603 76.8<579.719 656.984>
LayerCount: 2
Fore
SplineSet
91.6035 618 m 0
 91.6035 655.594 116.701 685 146.003 685 c 0
 175.146 685 200.403 655.932 200.403 619 c 0
 200.403 580.188 174.347 551 145.203 551 c 0
 115.884 551 91.6035 579.894 91.6035 618 c 0
EndSplineSet
Refer: 203 305 S 1 0 0 1 0 0 2
EndChar

StartChar: j
Encoding: 106 106 75
Width: 202
GlyphClass: 2
Flags: HW
HStem: -231 77<-7.61336 59.7828> 422 20<138.4 142.8> 558 93<105.75 169.734>
VStem: 92.4 56.8<-117.424 346.052> 99.6 76.8<566.659 643.248>
LayerCount: 2
Fore
SplineSet
83.5996 604 m 0
 83.5996 642.665 109.002 671 138 671 c 0
 166.837 671 192.4 643.001 192.4 605 c 0
 192.4 566.858 166.185 538 137.2 538 c 0
 108.041 538 83.5996 566.561 83.5996 604 c 0
EndSplineSet
Refer: 262 567 S 1 0 0 1 0 0 2
EndChar

StartChar: k
Encoding: 107 107 76
Width: 408
GlyphClass: 2
Flags: HW
HStem: -4 38<153.183 206.527 345.782 400.994> 370 45<299.811 381.613> 698 20G<142.6 148.2>
VStem: 98.6 54.4<37.2274 171.859 225.001 625.327> 239.4 142.4<335 403.957>
LayerCount: 2
Fore
SplineSet
215.073 39.5957 m 1
 225.338 54.6494 240.223 54.7119 244.113 55.3262 c 1
 232.995 82.5068 191.914 148.009 175.024 174.118 c 1
 171.487 169.121 170.216 167.004 169.039 165.005 c 1
 168.993 163.32 169 162.616 169 161 c 0
 169 58 l 0
 169 56.9922 183.455 55.2158 191.887 53.8291 c 0
 192.585 53.7148 l 1
 193.271 53.5234 l 0
 197.47 52.3574 206.967 49.9619 215.073 39.5957 c 1
214.504 -14.4297 m 1
 208.118 -22.1904 200.413 -24 195.4 -24 c 0
 186.157 -24 171.386 -20 133.8 -20 c 0
 96.7178 -20 80.8281 -24 71.4004 -24 c 0
 48.7412 -24 41.7998 1.68457 41.7998 14 c 0
 41.7998 58.0654 82.5107 56.3496 82.5107 56.3496 c 1
 82.5508 56.6035 82.5996 57.0088 82.5996 57.0088 c 1
 82.5996 595 l 0
 82.5996 598.255 82.3057 600.239 82.291 600.32 c 1
 81.9697 600.7 81.4463 601.258 80.0293 602.439 c 1
 65.9219 614.562 45.8623 630.638 40.8867 636.858 c 0
 33.8096 645.703 33.0713 656.873 33.0205 657.95 c 1
 32.9736 658.948 33.0469 657.414 33 658.412 c 1
 33 659 l 0
 33 688.997 59.0303 694.594 59.9404 694.974 c 1
 60.1426 694.215 131.848 738 144.2 738 c 0
 168.669 738 169 705.128 169 701 c 0
 169 268.66 l 1
 189.493 294.467 201.669 309.331 210.375 320.801 c 0
 225.079 340.17 223.4 339.181 223.4 347 c 0
 223.4 362.54 202.6 345.814 202.6 389 c 0
 202.6 399 l 0
 202.6 428.43 226.983 432 235.4 432 c 0
 281.8 432 l 0
 334.418 432 359.248 435 369.8 435 c 0
 389.74 435 397.8 412.378 397.8 396 c 0
 397.8 348.711 356.768 356.348 339.499 350.667 c 1
 313.963 342.156 290.582 315.873 250.126 263.881 c 0
 244.934 257.206 239.006 249.547 233.493 242.437 c 1
 243.131 227.634 265.904 194.173 318.874 114.829 c 1
 339.978 83.3779 358.709 56.7637 390.324 51.8242 c 1
 397.197 50.5967 417 42.9092 417 15 c 0
 417 8.05664 416.382 0.467773 413.296 -7.24707 c 0
 408.812 -18.46 398.849 -26 388.2 -26 c 0
 381.604 -26 352.906 -20 311.4 -20 c 0
 270.755 -20 241.094 -26 234.6 -26 c 0
 230.2 -26 221.122 -24.4824 214.504 -14.4297 c 1
EndSplineSet
EndChar

StartChar: l
Encoding: 108 108 77
Width: 215
GlyphClass: 2
Flags: HW
HStem: -5 43<38.3042 92.4942 152.462 206.226> 703 20G<138.7 145.5>
VStem: 93.5 58.4<39.238 609.091>
LayerCount: 2
Fore
SplineSet
222.3 14 m 0
 222.3 3.35742 219.535 -26 196.7 -26 c 0
 190.095 -26 161.358 -20 121.5 -20 c 0
 83.2324 -20 55.5557 -25 49.5 -25 c 0
 24.3086 -25 22.2998 6.96777 22.2998 13 c 0
 22.2998 16 l 0
 22.2998 51.3291 46.8467 54.5713 69.249 57.8652 c 1
 79.2314 59.3057 77.5 56.9951 77.5 76 c 0
 77.5 585 l 0
 77.5 586.458 70.7461 589.998 66.9307 592.803 c 1
 40.2686 612.799 16.7002 618.809 16.7002 649 c 0
 16.7002 650 l 0
 16.7002 679.241 34.1826 678.513 123.029 736.296 c 1
 127.008 739.431 132.904 743 140.7 743 c 0
 164.615 743 167.9 713.165 167.9 704 c 0
 167.9 71 l 0
 167.9 65.1055 168.401 61.2949 168.62 60.2637 c 1
 171.474 58.7695 180.821 56.9023 195.395 53.7148 c 1
 210.418 50.585 222.3 35.1533 222.3 14 c 0
EndSplineSet
EndChar

StartChar: m
Encoding: 109 109 78
Width: 651
GlyphClass: 2
Flags: HMW
HStem: -6 43<185.307 238.606 266.707 329.691 382.811 437.095 480.465 533.855 591.214 640.279> 371 51<214.134 302.393 407.31 500.264> 414 20G<173.9 179.5>
VStem: 135.5 49.6<36.1465 331.765> 330.7 52.8<38.0512 337.462> 533.9 56.8<37.4201 324.172>
LayerCount: 2
Fore
SplineSet
252.572 29.6836 m 1
 261.825 56.1445 285.4 52.1719 307.153 56.7041 c 1
 311.627 57.7207 313.352 59.1406 313.352 59.1406 c 1
 313.524 59.5293 314.7 64.2842 314.7 75 c 0
 314.7 260 l 0
 314.7 292.378 311.296 316.191 295.44 331.056 c 1
 284.134 341.864 267.328 351 249.1 351 c 0
 236.756 351 226.953 346.803 219.297 341.365 c 0
 210.386 335.035 204.399 326.385 202.739 323.23 c 1
 201.841 320.07 201.1 317.536 201.1 306 c 0
 201.1 65 l 0
 201.1 61.1484 201.354 57.8682 201.464 57.001 c 1
 205.536 55.3291 215.171 53.7031 229.889 50.7764 c 1
 239.304 49.0947 248.87 41.2207 252.572 29.6836 c 1
252.857 -4.30273 m 1
 249.251 -15.8438 239.576 -26 228.3 -26 c 0
 221.2 -26 196.963 -20 160.3 -20 c 0
 125.56 -20 110.868 -24 101.9 -24 c 0
 77.751 -24 74.7002 6.37793 74.7002 16 c 0
 74.7002 69.0117 118.919 56.6699 119.5 61.1152 c 1
 119.5 308 l 0
 119.5 311.618 119.342 313.744 119.268 314.337 c 1
 118.324 315.776 109.708 324.093 94.2139 338.702 c 1
 91.9375 340.619 80.2998 348.347 80.2998 367 c 0
 80.2998 393.007 92.9854 394.108 152.456 441.83 c 0
 152.937 442.216 l 1
 153.438 442.558 l 0
 159.146 446.449 164.126 454 176.3 454 c 0
 197.535 454 199.5 426.476 199.5 422 c 0
 199.5 412.842 l 1
 217.021 426.614 241.715 442 273.1 442 c 0
 319.106 442 351.278 406.136 363.86 390.272 c 1
 365.148 391.525 366.09 392.414 367.418 393.625 c 0
 372.177 397.964 378.774 403.427 388.278 410.305 c 1
 425.309 437.217 456.423 442 473.9 442 c 0
 520.438 442 576.842 409.591 597.287 318.484 c 1
 606.865 277.129 606.7 235.847 606.7 196 c 0
 606.7 69 l 0
 606.7 63.4189 607.11 59.5635 607.326 58.334 c 1
 610.43 56.8467 619.124 55.0635 632.396 51.5713 c 1
 632.335 51.21 656.3 49.2412 656.3 14 c 0
 656.3 4.90723 653.118 -26 628.3 -26 c 0
 617.25 -26 600.701 -20 561.1 -20 c 0
 520.684 -20 504.123 -26 493.1 -26 c 0
 482.538 -26 464.3 -15.6553 464.3 11 c 0
 464.3 47.168 488.856 50.1357 514.763 56.6113 c 0
 515.143 56.707 l 1
 515.526 56.7783 l 0
 516.463 56.9541 517.247 57.168 517.802 57.3223 c 1
 517.898 59.2617 517.9 61.1514 517.9 64 c 0
 517.9 203 l 0
 517.9 255.911 513.542 308.464 490.856 333.63 c 1
 484.091 340.326 471.016 351 451.5 351 c 0
 436.092 351 418.181 342.894 406.138 333.542 c 0
 401.082 329.616 397.101 325.341 395.314 322.919 c 1
 396.998 311.425 399.5 290.404 399.5 258 c 0
 399.5 65 l 0
 399.5 61.4707 398.898 57.752 398.878 57.6182 c 1
 403.765 56.5811 411.729 55.6982 424.086 53.8154 c 1
 439.729 50.8066 453.1 36.6455 453.1 15 c 0
 453.1 9.45215 452.863 2.40234 450.32 -5.52832 c 0
 447.346 -14.8066 439.003 -26 426.7 -26 c 0
 420.008 -26 392.18 -20 352.3 -20 c 0
 312.355 -20 283.867 -26 277.9 -26 c 0
 266.839 -26 256.457 -16.5312 252.857 -4.30273 c 1
EndSplineSet
EndChar

StartChar: n
Encoding: 110 110 79
Width: 449
GlyphClass: 2
Flags: HW
HStem: -6 42<58.891 110.201 166.454 226.618 285.229 339.532 391.794 441.179> 384 49<209.448 303.803>
VStem: 110.8 55.2<38.2075 347.206> 339.6 52<36.1777 339.27>
LayerCount: 2
Fore
SplineSet
179.6 412.65 m 1
 199.679 430.794 231.853 452.366 275.507 453 c 1
 277.2 453 l 0
 317.535 453 397.931 427.28 406.725 290.973 c 1
 408.39 273.282 408.4 254.752 408.4 238 c 0
 408.4 220.308 407.6 203.062 407.6 65 c 0
 407.6 63 l 0
 407.6 59.8223 407.875 57.1367 407.963 56.5518 c 1
 411.16 55.2373 419.576 54.0645 432.348 51.7842 c 1
 453.902 47.6387 457.2 22.5928 457.2 14 c 0
 457.2 -13.124 441.075 -26 429.2 -26 c 0
 417.437 -26 401.52 -20 362 -20 c 0
 326.878 -20 302.949 -26 296.4 -26 c 0
 272.251 -26 269.2 4.37793 269.2 14 c 0
 269.2 52.3193 300.896 51.7168 323.518 56.585 c 1
 323.596 58.6807 323.6 59.2822 323.6 61 c 0
 323.6 216 l 0
 323.6 233.247 321.648 292.958 314.411 316.366 c 1
 300.202 356.139 265.159 364 249.2 364 c 0
 233.666 364 219.772 357.507 208.396 348.438 c 0
 192.283 335.592 183.104 317.59 182.444 314.759 c 1
 182.092 312.997 182 310.293 182 306 c 0
 182 66 l 0
 182 62.249 182.299 59.5713 182.447 58.9131 c 1
 183.055 58.5498 183.703 58.1846 186.047 57.7656 c 1
 213.219 52.1055 242.8 53.376 242.8 11 c 0
 242.8 -2.25684 236.873 -27 216.4 -27 c 0
 209.097 -27 181.007 -20 142 -20 c 0
 103.725 -20 78.5605 -26 71.5996 -26 c 0
 60.5215 -26 42.7998 -14.791 42.7998 12 c 0
 42.7998 47.6738 67.1943 51.6602 87.4717 55.749 c 0
 91.9297 56.6406 93.7451 57.9551 94.0713 58.2197 c 1
 94.3027 58.9678 94.7998 63.0039 94.7998 70 c 0
 94.7998 309 l 0
 94.7998 316.513 94.4609 319.685 94.4609 319.685 c 1
 94.1416 320.36 86.6367 328.754 65.1543 349.043 c 0
 64.2705 349.878 l 1
 63.4863 350.858 l 0
 61.8076 352.956 54 360.401 54 375 c 0
 54 376 l 0
 54 403.572 70.8965 405.268 137.765 450.172 c 1
 140.368 452.318 145.911 457 154 457 c 0
 173.635 457 179.6 433.694 179.6 422 c 0
 179.6 412.65 l 1
EndSplineSet
EndChar

StartChar: o
Encoding: 111 111 80
Width: 420
GlyphClass: 2
Flags: HW
HStem: -19 49<180.366 290.931> 385 47<179.241 284.093>
VStem: 63.5 62.4<107.025 304.389> 349.1 54.4<109.681 295.193>
LayerCount: 2
Fore
SplineSet
47.5 204 m 0
 47.5 353.922 138.065 452 236.3 452 c 0
 341.039 452 419.5 347.412 419.5 204 c 0
 419.5 49.9346 330.756 -39 233.1 -39 c 0
 121.845 -39 47.5 71.6572 47.5 204 c 0
235.5 50 m 0
 291.734 50 333.1 118.037 333.1 200 c 0
 333.1 299.021 280.104 365 230.7 365 c 0
 198.095 365 141.9 333.49 141.9 209 c 0
 141.9 110.882 181.957 50 235.5 50 c 0
EndSplineSet
EndChar

StartChar: p
Encoding: 112 112 81
Width: 444
GlyphClass: 2
Flags: HW
HStem: -228 46<59.4676 122.205> -220 42<181.748 262.206> -7 34<195.04 301.416> 372 59<211.018 305.743> 421 20G<156.4 160.8>
VStem: 123.2 58.4<-177.901 -1.00293> 123.2 52<45.2268 333.699> 375.2 53.6<117.256 282.885>
LayerCount: 2
Fore
SplineSet
248.8 47 m 0
 304.661 47 359.2 105.839 359.2 195 c 0
 359.2 282.644 304.568 352 251.2 352 c 0
 241.772 352 224.883 351.231 207.984 334.984 c 1
 194.069 322.333 191.2 314.102 191.2 289 c 0
 191.2 74 l 0
 191.2 71.543 191.283 70.5117 191.306 70.3486 c 1
 191.503 69.959 193.412 66.5205 202.932 61.0283 c 1
 217.347 52.0195 233.046 47 248.8 47 c 0
277.6 451 m 0
 377.34 451 444.8 339.084 444.8 215 c 0
 444.8 70.2012 356.93 -27 238.4 -27 c 0
 222.073 -27 205.788 -24.6768 197.6 -23.2324 c 1
 197.6 -152 l 0
 197.6 -154.581 197.791 -156.948 197.867 -157.43 c 1
 198.681 -157.743 199.294 -157.921 200.754 -158.094 c 1
 239.807 -162.976 279.2 -156.235 279.2 -209 c 0
 279.2 -220.694 273.235 -244 253.6 -244 c 0
 243.622 -244 222.959 -240 178.4 -240 c 0
 120.125 -240 80.0186 -248 72 -248 c 0
 60.9941 -248 43.2002 -236.471 43.2002 -208 c 0
 43.2002 -169.75 74.6045 -169.956 102.425 -162.396 c 1
 105.315 -161.718 106.216 -161.11 106.581 -160.867 c 1
 106.87 -159.801 107.2 -157.855 107.2 -154 c 0
 107.2 310 l 0
 107.2 310.698 107.143 311.244 107.143 311.244 c 1
 106.896 311.413 107.102 311.301 106.463 311.634 c 1
 60.9424 337.02 43.2002 337.179 43.2002 365 c 0
 43.2002 366 l 0
 43.2002 393.276 58.4961 392.526 136.665 450.222 c 0
 137.146 450.577 l 1
 137.645 450.889 l 0
 142.286 453.79 146.16 461 158.4 461 c 0
 176.6 461 180.8 438.324 180.8 430 c 0
 180.8 408.48 l 1
 197.342 425.316 221.987 443.638 257.09 449.826 c 1
 264.951 451.054 271.159 451 277.6 451 c 0
EndSplineSet
EndChar

StartChar: q
Encoding: 113 113 82
Width: 473
GlyphClass: 2
Flags: HW
HStem: -235 45<285.601 349.673> -225 36<415.565 465.747> -9 61<203.414 322.026> 401 33<201.305 320.925> 426 20G<396.8 404.8>
VStem: 66 57.6<150.894 302.179> 352.4 58.4<-182.941 28.9978 78.3765 371.626>
LayerCount: 2
Fore
SplineSet
260.4 381 m 0
 193.682 381 139.6 315.584 139.6 233 c 0
 139.6 142.757 200.725 72 271.6 72 c 0
 297.29 72 329.058 86.4404 334.931 92.458 c 1
 336.336 94.4766 337.2 97.0742 337.2 108 c 0
 337.2 130.945 337.206 154.47 334.8 342.84 c 1
 334.8 354.441 335.704 350.677 330.502 355.541 c 1
 309.661 372.39 285.268 381 260.4 381 c 0
50 213 m 0
 50 318.118 113.479 454 279.6 454 c 0
 330.576 454 365.841 441 370.8 441 c 0
 384.626 441 366.06 466 401.2 466 c 0
 429.997 466 426 422.709 426 391 c 0
 426 383.48 426.8 374.48 426.8 364 c 0
 426.8 -139 l 0
 426.8 -170.988 425.217 -164.095 456.834 -169.162 c 0
 457.559 -169.278 l 1
 458.271 -169.476 l 0
 468.488 -172.314 482 -183.007 482 -203 c 0
 482 -214.852 476.6 -245 451.6 -245 c 0
 444.454 -245 433.758 -243 407.6 -243 c 0
 346.821 -243 308.964 -255 299.6 -255 c 0
 291.105 -255 282.245 -250.984 276.265 -242.207 c 0
 271.347 -234.989 269.2 -225.827 269.2 -217 c 0
 269.2 -176.083 304.853 -175.403 326.036 -170.393 c 1
 337.887 -167.219 336.4 -165.103 336.4 -150 c 0
 336.4 -0.529297 l 1
 317.487 -13.0713 287.713 -29 244.4 -29 c 0
 138.88 -29 50 78.7021 50 213 c 0
EndSplineSet
EndChar

StartChar: r
Encoding: 114 114 83
Width: 323
GlyphClass: 2
Flags: HW
HStem: -6 44<46.6803 96.8 154.758 232.76> 346 100<234.961 301.153>
VStem: 96.8 57.6<38.4622 329.719>
LayerCount: 2
Fore
SplineSet
166.4 411.95 m 1
 186.531 429.233 212.955 452.659 230.69 460.869 c 1
 240.536 464.972 249.33 466 259.2 466 c 0
 284.311 466 337.6 452.55 337.6 402 c 0
 337.6 400.412 l 1
 337.572 399.826 l 0
 336.16 369.807 313.858 354.582 310.536 350.948 c 0
 309.618 349.945 l 1
 308.591 349.127 l 0
 302.929 344.624 288.716 326 267.2 326 c 0
 232.024 326 235.076 351 220 351 c 0
 211.858 351 198.688 344.321 187.758 335.559 c 0
 179.127 328.64 171.797 320.174 170.816 318.719 c 1
 170.459 317.986 170.4 319.179 170.4 312 c 0
 170.4 68 l 0
 170.4 62.6953 171.108 59.5156 171.209 59.2871 c 1
 171.289 59.2158 172.299 58.2881 175.729 57.9307 c 0
 214.75 53.8662 248.8 58.752 248.8 14 c 0
 248.8 8.28125 247.79 -26 221.6 -26 c 0
 215.245 -26 183.896 -20 140.8 -20 c 0
 96.0547 -20 65.6113 -26 59.2002 -26 c 0
 41.8691 -26 30.4004 -7.86133 30.4004 11 c 0
 30.4004 54.8545 67.4824 51.8271 78.7148 55.4668 c 1
 80.0469 55.8232 80.5469 56.0137 80.668 56.0557 c 1
 80.7852 57.7207 80.7998 58.3545 80.7998 60 c 0
 80.7998 325 l 0
 80.7998 327.065 80.665 328.379 80.6357 328.591 c 1
 78.9502 331.003 67.1426 340.346 43.4219 361.796 c 0
 42.3887 362.73 l 1
 41.4863 363.858 l 0
 40.2754 365.371 35.8125 371.473 34.0781 380.149 c 0
 33.5996 382.538 l 1
 33.5996 385 l 0
 33.5996 412.817 51.459 410.923 126.556 456.957 c 0
 127.521 457.549 l 1
 128.501 457.957 l 1
 128.722 458.066 132.617 462 140.8 462 c 0
 166.396 462 166.4 427.299 166.4 422 c 0
 166.4 411.95 l 1
EndSplineSet
EndChar

StartChar: s
Encoding: 115 115 84
Width: 305
GlyphClass: 2
Flags: HW
HStem: -19 54<120.444 228.01> 380 47<114.436 204.994> 412 20G<230.7 240.3>
VStem: 56.3 32.8<71.0105 155.78> 60.3 43.2<283.553 367.539> 219.5 44<295.352 359.134> 245.1 53.6<56.0454 149.045>
LayerCount: 2
Fore
SplineSet
44.2998 309 m 0
 44.2998 381.912 96.5332 447 175.5 447 c 0
 195.332 447 209.081 443.525 214.24 442.359 c 1
 216.891 444.643 224.46 452 235.5 452 c 0
 260.536 452 263.685 418.825 264.033 416.652 c 1
 269.064 379.959 279.5 319.547 279.5 308 c 0
 279.5 288.319 267.007 278.099 259.158 274.81 c 0
 253.848 272.585 249.095 272 245.1 272 c 0
 212.703 272 208.229 326.25 206.46 329.41 c 1
 199.835 340.876 174.314 360 153.9 360 c 0
 132.417 360 119.5 344.677 119.5 327 c 0
 119.5 320.731 117.623 293.199 171.002 274.264 c 1
 208.848 261.278 252.699 257.623 286.81 208.072 c 1
 310.963 173.236 314.7 135.009 314.7 116 c 0
 314.7 41.0693 264.887 -39 177.1 -39 c 0
 137.707 -39 82.79 -23.3994 54.6904 17.7803 c 1
 44.6006 31.6553 41.0996 48.083 41.0996 65 c 0
 41.0996 91.541 40.2998 110.096 40.2998 125 c 0
 40.2998 151.166 47.6094 176 70.7002 176 c 0
 107.575 176 103.479 102.772 103.479 102.772 c 1
 108.26 90.2236 140.299 55 180.3 55 c 0
 210.653 55 229.1 76.2891 229.1 102 c 0
 229.1 146.943 177.57 156.215 144.752 167.753 c 1
 74.5127 192.683 44.2998 250.477 44.2998 309 c 0
EndSplineSet
EndChar

StartChar: t
Encoding: 116 116 85
Width: 300
GlyphClass: 2
Flags: HW
HStem: -19 65<159.77 227.303> 363 54<159.105 266.95>
VStem: 94.3 56<56.8354 362.954>
LayerCount: 2
Fore
SplineSet
66.2998 345 m 2
 61.3516 345 34.2998 346.02 34.2998 378 c 0
 34.2998 418.271 79.6777 429.887 119.74 515.207 c 1
 120.12 515.998 127.836 543 149.5 543 c 0
 161.291 543 175.9 530.29 175.9 507 c 0
 175.9 492.46 175.1 450.514 175.1 437 c 0
 247.1 437 l 0
 250.839 437 253.64 436.061 253.885 436 c 1
 259.344 435.993 290.3 434.987 290.3 397 c 0
 290.3 385.779 288.209 368.422 279.392 355.196 c 0
 278.927 354.499 l 1
 278.414 353.858 l 0
 270.627 344.125 260.439 343 252.7 343 c 0
 167.054 343 l 1
 166.294 164.74 166.3 144.025 166.3 120 c 0
 166.3 84.8145 172.894 66 191.1 66 c 0
 219.453 66 241.883 126 278.3 126 c 0
 287.219 126 295.218 121.149 300.54 113.963 c 0
 305.811 106.849 308.7 97.6338 308.7 88 c 0
 308.7 71.8486 300.992 60.9932 300.413 59.9062 c 0
 299.831 58.8154 l 1
 299.142 57.8301 l 0
 271.387 18.1807 229.359 -39 175.9 -39 c 0
 135.526 -39 85.2617 -1.17871 79.1543 101.352 c 1
 78.3008 113.085 78.2998 124.133 78.2998 135 c 0
 78.2998 174.846 80.8691 303.831 81.4004 345 c 1
 66.2998 345 l 2
EndSplineSet
EndChar

StartChar: u
Encoding: 117 117 86
Width: 453
GlyphClass: 2
Flags: HW
HStem: -14 21G<345.4 351.8> 377 38<55.0679 100.523 271.086 334.651>
VStem: 100.6 54.4<95.1389 375.136> 335.8 56.8<69.1563 373.706>
LayerCount: 2
Fore
SplineSet
323.316 -1.9248 m 1
 302.207 -18.2021 269.223 -38 225.4 -38 c 0
 152.358 -38 97.6357 23.7715 87.1035 124.711 c 1
 85.3955 146.064 84.5996 166.168 84.5996 188 c 0
 84.5996 220.178 85.4004 333.261 85.4004 349 c 0
 85.4004 350.057 85.3838 351.169 85.3799 351.304 c 1
 83.7373 352.954 80.7549 355.23 74.2432 358.245 c 0
 73.7666 358.466 l 1
 73.3018 358.724 l 0
 69.8564 360.638 39 362.933 39 398 c 0
 39 401 l 0
 39 409.837 43.1152 432.514 62.5225 434.94 c 1
 129.692 439.997 137.425 441 147 441 c 0
 164.754 441 171 419.659 171 409 c 0
 171 204 l 0
 171 173.954 171.348 140.853 183.665 110.059 c 1
 194.445 83.9502 219.6 54 254.2 54 c 0
 271.198 54 285.343 60.6885 296.672 69.8086 c 0
 301.914 74.0293 307.347 79.7695 310.544 83.7168 c 1
 317.258 93.1934 319.173 96.041 319.729 97.0771 c 1
 319.781 97.9092 319.8 98.6035 319.8 100 c 0
 319.8 346 l 0
 319.8 349.425 319.481 351.587 319.366 352.142 c 1
 316.674 354.065 303.738 357.116 280.041 362.344 c 1
 268.016 365.35 255 377.48 255 398 c 0
 255 420.825 269.121 433.112 280.215 434.846 c 0
 280.96 434.962 l 1
 281.71 434.991 l 0
 360.134 437.993 369.219 439 380.6 439 c 0
 405.677 439 408.6 408.136 408.6 399 c 0
 408.6 91.1084 l 1
 414.836 87.7256 424.609 82.9287 439.2 74.2236 c 1
 449.147 68.8945 455 54.0713 455 44 c 0
 455 -5.10742 422.065 9.91309 367.257 -27.1504 c 1
 362.967 -30.5205 358.124 -34 350.2 -34 c 0
 331.22 -34 324.378 -12.4092 323.316 -1.9248 c 1
EndSplineSet
EndChar

StartChar: v
Encoding: 118 118 87
Width: 440
GlyphClass: 2
Flags: HW
HStem: -25 21G<250.7 259.9> 374 41<163.105 223.887 287.151 346.288>
VStem: 50.3 112.8<349.5 406> 346.3 90.4<351 401>
LayerCount: 2
Fore
SplineSet
271.1 396 m 2
 271.1 401 l 0
 271.1 412.58 277.453 435 296.7 435 c 0
 305.671 435 322.334 432 360.7 432 c 0
 398.702 432 416.12 435 424.7 435 c 0
 447.071 435 452.7 408.529 452.7 396 c 0
 452.7 347 406.406 355.459 406.406 355.459 c 1
 405.771 353.55 405.6 352.039 403.377 340.922 c 1
 361.024 148.513 298.754 -8.05566 283.801 -29.3887 c 1
 277.104 -39.0029 268.038 -45 256.7 -45 c 0
 233.177 -45 222.628 -18.6318 216.259 -3.5918 c 1
 114.359 222.301 81.2842 340.88 75.2764 350.711 c 1
 75.2764 350.711 34.2998 351.009 34.2998 402 c 0
 34.2998 417.911 44.2012 435 59.9004 435 c 0
 69.9492 435 90.5 432 135.9 432 c 0
 182.11 432 202.657 435 212.7 435 c 0
 236.188 435 239.9 405.948 239.9 395 c 0
 239.9 346.982 193.503 356.868 181.881 354.304 c 0
 181.159 354.145 l 1
 180.429 354.069 l 0
 180.096 354.034 179.651 353.953 179.651 353.953 c 1
 185.218 327.054 219.032 215.282 264.433 113.911 c 1
 313.075 228.462 328.168 331.459 330.101 355.619 c 1
 324.316 357.083 312.959 357.57 297.841 359.062 c 0
 296.894 359.155 l 1
 295.963 359.388 l 0
 294.409 359.776 271.1 365.523 271.1 396 c 2
EndSplineSet
EndChar

StartChar: w
Encoding: 119 119 88
Width: 677
GlyphClass: 2
Flags: HW
HStem: -25 109<263.398 287.777 487.915 512.613> 376 39<390.867 455.598 527.674 590.705 633.851 675.487>
LayerCount: 2
Fore
SplineSet
377.714 170.499 m 1
 373.378 159.05 367.684 143.854 359.613 122.312 c 1
 306.188 -12.252 306.327 -16.3389 297.742 -28.4629 c 1
 290.609 -38.8848 282.649 -45 270.8 -45 c 0
 251.192 -45 240.722 -25.5049 233.454 -8.3457 c 1
 149.238 191.375 106.826 339.416 101.654 352.209 c 1
 101.654 352.209 64.4004 350.46 64.4004 398 c 0
 64.4004 413.215 73.4697 435 94.7998 435 c 0
 103.122 435 118.917 432 154 432 c 0
 156.4 432 l 0
 190.449 432 205.841 435 214 435 c 0
 230.605 435 239.6 415.602 239.6 398 c 0
 239.6 351.829 196.051 357.349 191.339 356.919 c 1
 192.256 354.084 192.453 353.589 193.111 351.944 c 0
 193.473 351.039 l 1
 193.76 350.093 l 0
 218.365 269.01 247.18 188.766 277.056 114.836 c 1
 303.662 168.232 335.738 247.602 340.861 267.273 c 1
 336.367 283.181 315.606 336.364 313.378 341.112 c 1
 309.849 347.994 250.8 344.2 250.8 392 c 0
 250.8 407.031 256.123 435 279.6 435 c 0
 289.521 435 312.558 432 362 432 c 0
 411.44 432 434.481 435 444.4 435 c 0
 464.712 435 471.6 412.03 471.6 400 c 0
 471.6 394 l 0
 471.6 359.364 446.144 360.044 410.71 356.089 c 1
 409.263 355.908 407.42 355.36 406.86 355.117 c 1
 410.387 333.069 455.829 206.487 503.033 112.251 c 1
 555.127 230.661 573.788 341.263 574.823 354.665 c 1
 569.322 356.248 558.191 356.539 540.646 358.069 c 1
 528.665 359.567 511.6 370.713 511.6 398 c 0
 511.6 404.48 513.529 435 537.2 435 c 0
 546.369 435 562.009 431 599.6 431 c 0
 637.469 431 654.3 435 663.6 435 c 0
 681.869 435 691.6 415.055 691.6 398 c 0
 691.6 354.432 655.987 356.218 653.186 356.153 c 1
 639.648 351.257 658.098 293.318 528.128 -9.3877 c 1
 519.871 -28.998 509.058 -45 491.6 -45 c 0
 460.52 -45 450.862 -3.34961 415.852 77.6592 c 1
 396.017 125.672 385.085 152.57 377.714 170.499 c 1
EndSplineSet
EndChar

StartChar: x
Encoding: 120 120 89
Width: 398
GlyphClass: 2
Flags: HW
HStem: -4 42<240.486 289.89 353.895 391.466> -4 30<139.962 184.954> 376 39<53.1333 93.992 164.298 205.222 319.625 382.574>
VStem: 189.092 54.4<202.618 231.317>
DStem2: 95.492 53 147.492 76 0.527816 0.849359<27.826 172.485 245.517 362.192> 175.492 338 185.892 216 0.545178 -0.83832<-25.1381 88.7919 140.77 289.491>
LayerCount: 2
Fore
SplineSet
63.4922 435 m 0
 72.2852 435 90.1045 432 129.092 432 c 0
 168.9 432 186.702 435 195.492 435 c 0
 215.71 435 221.092 410.939 221.092 401 c 0
 221.092 399 l 0
 221.092 398.9 221.892 398.373 221.892 390 c 0
 221.892 360.123 197.032 358.32 184.104 356.774 c 1
 186.275 353.347 187.125 352.052 188.305 349.987 c 1
 206.137 321.548 220.146 298.501 223.608 292.791 c 1
 227.41 299.092 229.956 303.31 232.92 308.221 c 0
 246.966 331.493 255.932 346.364 261.394 355.825 c 0
 261.394 355.825 228.292 358.476 228.292 390 c 0
 228.292 405.322 231.597 435 254.692 435 c 0
 263.135 435 277.25 432 311.492 432 c 0
 313.892 432 l 0
 348.749 432 364.16 435 372.292 435 c 0
 392.673 435 398.692 411.207 398.692 400 c 0
 398.692 364.519 375.557 359.567 355.241 356.181 c 1
 335.607 352.796 336.449 350.998 323.73 332.117 c 1
 323.608 332.246 322.27 329.379 273.51 249.769 c 0
 268.398 241.425 264.547 235.111 262.343 231.449 c 1
 272.423 215.059 298.249 174.503 366.575 66.1943 c 1
 377.647 47.7412 368.853 56.0557 386.63 51.6113 c 0
 391.675 50.3506 407.492 41.6523 407.492 20 c 0
 407.492 13.2344 407.764 5.64062 404.967 -3.42969 c 0
 401.09 -16.0078 390.306 -24 379.492 -24 c 0
 369.835 -24 353.622 -20 314.692 -20 c 0
 275.763 -20 259.549 -24 249.892 -24 c 0
 226.221 -24 224.292 6.52051 224.292 13 c 0
 224.292 55.6211 263.214 53.7227 269.726 55.4336 c 1
 233.41 111.688 219.448 133.368 209.894 148.168 c 1
 201.215 133.602 187.229 109.501 160.278 63.9766 c 1
 157.7 59.7617 154.839 54.9434 154.615 54.5576 c 1
 162.489 53.0156 183.444 58.8809 196.174 38.1943 c 0
 196.504 37.6572 l 1
 196.805 37.0938 l 0
 201.97 27.4092 201.092 18.6162 201.092 16 c 0
 201.092 4.50977 197.477 -24 174.692 -24 c 0
 165.307 -24 152.126 -20 117.092 -20 c 0
 83.2822 -20 69.333 -25 59.4922 -25 c 0
 32.8721 -25 35.4922 13.3203 35.4922 16 c 0
 35.4922 63.8291 78.4922 57.8125 78.4922 57.8125 c 1
 78.6445 57.9551 78.9141 58.7031 82.7373 65.0752 c 1
 93.3555 82.4316 102.6 97.5049 110.916 111.04 c 0
 139.536 157.621 155.688 183.573 164.683 198.274 c 0
 167.128 202.272 169.573 206.329 170.535 207.954 c 1
 60.9258 378.356 80.7734 353.322 65.3271 356.183 c 1
 44.4307 359.447 37.0918 381.445 37.0918 398 c 0
 37.0918 423.823 53.3965 435 63.4922 435 c 0
EndSplineSet
EndChar

StartChar: y
Encoding: 121 121 90
Width: 421
GlyphClass: 2
Flags: HW
HStem: -223 21G<111.5 131.9> 376 39<155.505 197.031 268.352 321.865 370.765 417.096>
LayerCount: 2
Fore
SplineSet
120.3 -243 m 0
 94.9688 -243 73.0996 -219.226 73.0996 -187 c 0
 73.0996 -129.949 126.197 -111.848 148.576 -85.3867 c 1
 167.134 -63.9736 197.1 -0.772461 197.1 15 c 0
 197.1 25.4912 175.438 90.4316 110.072 253.848 c 1
 96.9814 284.756 71.4346 344.023 67.0986 353.612 c 1
 67.0986 353.612 33.9004 350.74 33.9004 398 c 0
 33.9004 411.786 40.9092 435 61.0996 435 c 0
 69.3818 435 85.9043 432 123.5 432 c 0
 160.695 432 178.1 435 186.7 435 c 0
 208.361 435 213.1 408.91 213.1 399 c 0
 213.1 364.52 190.304 358.544 173.17 356.586 c 1
 180.981 326.943 208.033 243.244 247.892 146.707 c 1
 285.422 259.262 305.9 332.13 305.9 355 c 0
 305.9 355.603 305.894 355.771 305.894 355.771 c 1
 301.545 356.611 293.409 356.791 281.892 358.1 c 1
 272.56 359.396 252.3 367.931 252.3 397 c 0
 252.3 418.701 266.369 435 283.5 435 c 0
 291.782 435 308.305 432 345.9 432 c 0
 346.7 432 l 0
 383.146 432 399.509 435 407.5 435 c 0
 432.669 435 433.1 401.65 433.1 395 c 0
 433.1 361.226 407.507 359.22 388.024 356.176 c 1
 387.944 356.162 387.96 356.165 387.802 356.136 c 1
 382.86 343.491 372.727 300.852 337.516 191.45 c 1
 301.351 81.9434 252.357 -58.9199 192.896 -171.937 c 1
 174.17 -208.024 153.888 -243 120.3 -243 c 0
EndSplineSet
EndChar

StartChar: z
Encoding: 122 122 91
Width: 325
GlyphClass: 2
Flags: HW
HStem: 0 65<121.005 268.752> 355 62<103.306 224.194>
VStem: 67.4 28<294.02 354.03> 269 37.6<-92.6147 -3.0012e-08> 283.4 32.8<65.8229 140.75>
LayerCount: 2
Fore
SplineSet
88.2002 474 m 2
 93 474 l 0
 117.655 474 119.212 441.068 119.563 437 c 1
 289.8 437 l 0
 300.712 437 323.4 430.671 323.4 402 c 0
 323.4 386.162 316.911 379.056 316.911 379.056 c 0
 316.298 377.523 l 1
 315.484 376.143 l 0
 202.175 183.738 159.361 112.327 143.68 85 c 1
 249.8 85 l 0
 254.502 85 258.803 84.3359 260.729 84.1064 c 1
 262.335 91.3369 264.119 106.026 267.699 128.848 c 0
 267.896 130.107 l 1
 268.164 131.109 l 1
 268.671 133.39 274.059 161 297 161 c 0
 301.979 161 332.2 158.984 332.2 124 c 0
 332.2 112.126 321.8 60.9854 321.8 -19 c 0
 321.8 -50.832 322.6 -65.5283 322.6 -73 c 0
 322.6 -80.7051 321.184 -89.1895 316.992 -96.4131 c 0
 308.156 -111.639 294.03 -113 282.6 -113 c 0
 274.623 -113 265.854 -109.959 259.92 -101.471 c 0
 253.498 -92.2852 253 -81.8975 253 -75 c 0
 253 -20 l 1
 69.7998 -20 l 0
 54.5293 -20 41.9629 -13.3223 35.2285 -0.636719 c 0
 30.626 8.03223 29.7998 16.877 29.7998 23 c 0
 29.7998 43.7217 39.6934 57.7217 42.6318 63.5996 c 0
 42.9697 64.2754 l 1
 203.633 335 l 1
 116.374 335 l 1
 114.985 328.346 113.559 319.417 110.99 305.503 c 0
 110.819 304.577 l 1
 110.637 303.891 l 1
 110.129 301.61 104.742 274 81.7998 274 c 0
 77.1855 274 72.249 275.016 66.4404 278.552 c 0
 60.582 282.119 51.4004 291.298 51.4004 307 c 0
 51.4004 318.577 59.4004 350.979 59.4004 409 c 0
 59.4004 439 l 0
 59.4004 464.84 77.8301 474 88.2002 474 c 2
EndSplineSet
EndChar

StartChar: braceleft
Encoding: 123 123 92
Width: 226
GlyphClass: 2
Flags: HW
HStem: 700 20G<155.3 176.5>
VStem: 61.3 61.6<240.115 270.308> 83.7 51.2<-147.001 59.8049 494.524 665.89> 109.3 48<24.5381 215.922 297.492 513.796>
LayerCount: 2
Fore
SplineSet
45.2998 256 m 0
 45.2998 305.016 92.5 272.042 92.5 359 c 0
 92.5 431.118 70.9004 500.362 70.9004 586 c 0
 70.9004 701.712 130.46 740 172.5 740 c 0
 172.5 740 207.7 750.625 207.7 715 c 0
 207.7 678.714 170.447 684.637 158.835 643.51 c 1
 155.549 631.188 154.1 618.241 154.1 604 c 0
 154.1 552.4 175.7 492.794 175.7 411 c 0
 175.7 328.242 149.377 274.192 140.452 254.271 c 1
 150.041 235.35 173.3 192.702 173.3 120 c 0
 173.3 49.2842 150.9 -12.8936 150.9 -70 c 0
 150.9 -159.812 202.1 -156.131 202.1 -195 c 0
 202.1 -224.343 175.174 -218 173.3 -218 c 0
 129.524 -218 67.7002 -177.633 67.7002 -57 c 0
 67.7002 25.6055 93.2998 90.751 93.2998 148 c 0
 93.2998 220.111 59.9082 228.456 50.7861 239.858 c 0
 50.4941 240.223 45.2998 253.097 45.2998 256 c 0
EndSplineSet
EndChar

StartChar: bar
Encoding: 124 124 93
Width: 137
GlyphClass: 2
Flags: HW
HStem: 698 20G<70.1 84.5>
VStem: 55.3 42.4<-197.934 717.913>
LayerCount: 2
Fore
SplineSet
76.9004 -218 m 2
 73.7002 -218 l 0
 69.3975 -218 39.2998 -218.948 39.2998 -185 c 0
 39.2998 705 l 0
 39.2998 739.126 69.6758 738 74.5 738 c 0
 76.0996 738 l 0
 91.46 738 113.7 732.684 113.7 705 c 0
 113.7 -185 l 0
 113.7 -207.207 96.5977 -218 76.9004 -218 c 2
EndSplineSet
EndChar

StartChar: braceright
Encoding: 125 125 94
Width: 226
GlyphClass: 2
Flags: HW
HStem: 700 20G<77.9 98.7>
VStem: 96.7 48<24.5381 215.905 296.882 513.796> 119.1 51.2<-147.001 59.8049 494.524 666.135> 131.1 61.6<240.03 269.121>
LayerCount: 2
Fore
SplineSet
183.1 586 m 0
 183.1 500.364 161.5 431.116 161.5 359 c 0
 161.5 283.713 191.576 284.304 201.5 275 c 0
 202.409 274.147 l 1
 203.214 273.142 l 0
 203.506 272.777 208.7 259.903 208.7 257 c 0
 208.7 246.471 202.388 237.696 194.964 232.902 c 1
 176.57 219.905 160.7 192.676 160.7 148 c 0
 160.7 90.751 186.3 25.6055 186.3 -57 c 0
 186.3 -177.609 124.481 -218 80.7002 -218 c 0
 78.8262 -218 51.9004 -224.343 51.9004 -195 c 0
 51.9004 -152.823 103.1 -162.424 103.1 -70 c 0
 103.1 -12.8955 80.7002 49.2861 80.7002 120 c 0
 80.7002 194.41 105.148 237.953 113.69 254.659 c 1
 86.2832 309.214 78.2998 364.332 78.2998 411 c 0
 78.2998 492.788 99.9004 552.407 99.9004 604 c 0
 99.9004 690.709 46.2998 669.24 46.2998 715 c 0
 46.2998 750.943 81.5 740 81.5 740 c 0
 123.54 740 183.1 701.713 183.1 586 c 0
EndSplineSet
EndChar

StartChar: asciitilde
Encoding: 126 126 95
Width: 405
GlyphClass: 2
Flags: HW
HStem: 183 71<234.142 319.222> 242 70<119.435 195.992>
LayerCount: 2
Fore
SplineSet
77.0996 153 m 0
 57.9531 153 48.2998 176.997 48.2998 193 c 0
 48.2998 214.365 80.2578 269.716 100.027 294.948 c 1
 113.705 312.997 135.199 332 164.3 332 c 0
 222.998 332 248.6 274 284.3 274 c 0
 321.799 274 335.351 317.886 355.233 331.694 c 1
 357.229 332.941 360.499 336 367.5 336 c 0
 375.237 336 402.7 329.171 402.7 298 c 0
 402.7 275.256 344.476 163 266.7 163 c 0
 201.491 163 180.932 222 151.5 222 c 0
 132.165 222 116.336 205.752 96.5273 167.891 c 1
 94.2012 162.773 88.3008 153 77.0996 153 c 0
EndSplineSet
EndChar

StartChar: exclamdown
Encoding: 161 161 97
Width: 292
GlyphClass: 2
Flags: HW
HStem: -16 21G<134.5 140.1> 572 102<126.81 193.512>
VStem: 118.9 82.4<582.181 664.265> 130.1 76<20.366 289.904> 165.3 26.4<367.851 461.971>
LayerCount: 2
Fore
SplineSet
138.1 -36 m 0
 113.96 -36 114.1 -2.99805 114.1 9 c 0
 114.1 32 l 0
 114.1 248.944 144.334 427.074 150.011 451.912 c 1
 151.95 459.185 158.547 482 178.9 482 c 0
 208.577 482 207.7 439.566 207.7 429 c 0
 207.7 416.224 l 1
 211.7 193.196 222.1 50.5732 222.1 46 c 0
 222.1 36.4561 220.393 26.8643 215.805 19.0908 c 0
 211.86 12.4102 206.865 8.61719 202.855 6.11133 c 1
 202.569 6.82715 152.551 -36 138.1 -36 c 0
160.5 552 m 0
 129.525 552 102.9 583.391 102.9 623 c 0
 102.9 660.67 127.299 694 159.7 694 c 0
 189.254 694 217.3 665.076 217.3 623 c 0
 217.3 580.359 190.06 552 160.5 552 c 0
EndSplineSet
EndChar

StartChar: dieresis
Encoding: 168 168 98
Width: 229
GlyphClass: 2
Flags: HW
HStem: 571 94<41.7656 105.445 149.766 213.446>
VStem: 35.1 76.8<579.068 656.984> 143.1 76.8<579.068 656.984>
LayerCount: 2
Fore
SplineSet
127.1 618 m 0
 127.1 655.959 153.058 685 181.5 685 c 0
 211.506 685 235.9 655.557 235.9 619 c 0
 235.9 580.734 210.958 551 181.5 551 c 0
 152.502 551 127.1 579.334 127.1 618 c 0
19.0996 618 m 0
 19.0996 655.959 45.0576 685 73.5 685 c 0
 103.506 685 127.9 655.557 127.9 619 c 0
 127.9 580.734 102.958 551 73.5 551 c 0
 44.502 551 19.0996 579.334 19.0996 618 c 0
EndSplineSet
EndChar

StartChar: copyright
Encoding: 169 169 99
Width: 694
GlyphClass: 2
Flags: HW
HStem: -24 51<299.975 472.751> 88 38<334.078 453.99> 520 34<330.765 443.235> 637 52<297.503 474.17>
VStem: 101.2 40.8<221.604 443.858> 198 52.8<234.315 415.614> 524.4 20<222.277 259.891> 630 40.8<218.952 443.657>
LayerCount: 2
Fore
SplineSet
386 47 m 0
 507.109 47 614 168.439 614 333 c 0
 614 484.265 516.127 617 385.2 617 c 0
 257.422 617 158 487.224 158 332 c 0
 158 171.341 263.427 47 386 47 c 0
85.2002 332 m 0
 85.2002 535.733 216.128 709 386 709 c 0
 554.217 709 686.8 536.844 686.8 332 c 0
 686.8 130.308 557.472 -44 385.2 -44 c 0
 222.936 -44 85.2002 119.76 85.2002 332 c 0
517.2 364 m 0
 477.967 364 483.882 433.972 476.675 445.553 c 1
 458.522 473.481 426.598 500 386 500 c 0
 382.224 500 378.438 499.749 374.661 499.251 c 0
 320.138 492.061 266.8 433.564 266.8 332 c 0
 266.8 224.619 325.455 146 393.2 146 c 0
 402.977 146 412.885 147.659 422.605 150.908 c 0
 460.796 163.674 495.522 200.689 509.107 255.882 c 0
 509.357 256.899 l 1
 509.693 257.878 l 0
 514.631 272.277 525.376 280 535.6 280 c 0
 548.371 280 560.4 267.236 560.4 250 c 0
 560.4 248.326 l 1
 560.178 246.675 l 0
 560.178 246.675 549.031 163.171 548.352 150.429 c 1
 547.846 143.471 547.151 134.642 541.352 126.011 c 0
 535.227 116.897 526.024 114 518 114 c 0
 503.6 114 l 0
 502.303 114 501.205 113.911 501.205 113.911 c 1
 499.051 112.077 494.925 108.208 488.328 103.626 c 1
 469.946 90.1768 450.442 80.8193 432.121 75.2295 c 0
 415.614 70.1934 399.72 68 385.2 68 c 0
 271.532 68 182 182.977 182 320 c 0
 182 448.385 260.729 557.481 363.702 572.293 c 0
 371.541 573.42 379.517 574 387.6 574 c 0
 437.516 574 467.418 555.616 481.953 545.986 c 1
 486.229 554.98 495.35 564 507.6 564 c 0
 514.917 564 529.418 557.469 532.819 538.339 c 0
 532.946 537.622 l 1
 533.031 536.896 l 0
 542.662 454.62 546.8 420.49 546.8 401 c 0
 546.8 387.752 539.604 364 517.2 364 c 0
EndSplineSet
EndChar

StartChar: guillemotleft
Encoding: 171 171 100
Width: 328
GlyphClass: 2
Flags: HW
HStem: 52 282<180.5 190.1 292.5 302.9>
VStem: 54.1 64<171.745 215.713> 166.9 63.2<171.745 215.713>
LayerCount: 2
Fore
SplineSet
184.5 354 m 0
 203.606 354 214.1 331.866 214.1 315 c 0
 214.1 294.112 207.049 292.451 136.602 193.532 c 1
 143.746 182.448 164.138 153.225 205.4 93.248 c 1
 210.399 86.2568 213.3 82.0605 213.3 71 c 0
 213.3 52.9805 202.131 32 183.7 32 c 0
 172.131 32 168.087 39.1445 145.648 63.3291 c 0
 128.613 81.6885 97.9434 115.125 49.0732 168.178 c 1
 44.8301 172.068 38.0996 179.473 38.0996 193 c 0
 38.0996 209.496 48.0723 217.75 48.3867 218.142 c 0
 48.8271 218.693 l 1
 49.3008 219.199 l 0
 169.072 347.243 166.737 354 184.5 354 c 0
162.49 219.616 m 0
 282.11 347.498 279.008 354 297.3 354 c 0
 316.406 354 326.9 331.866 326.9 315 c 0
 326.9 293.962 320.121 292.832 249.111 193.123 c 1
 257.106 181.021 277.775 151.483 317.237 93.501 c 1
 323.512 86.751 325.3 77.4932 325.3 71 c 0
 325.3 54.5889 315.819 32 296.5 32 c 0
 283.794 32 280.455 39.1182 251.536 70.5752 c 0
 233.869 89.791 205.117 121.229 161.874 168.178 c 1
 157.63 172.068 150.9 179.473 150.9 193 c 0
 150.9 207.632 158.743 216.103 162.49 219.616 c 0
EndSplineSet
EndChar

StartChar: logicalnot
Encoding: 172 172 101
Width: 631
GlyphClass: 2
Flags: HW
HStem: 231 57<112.6 543.8>
VStem: 543.8 45.6<41.0781 231>
LayerCount: 2
Fore
SplineSet
131 211 m 2
 123.947 211 114.571 211.569 106.501 220.483 c 0
 98.5254 229.293 96.5996 241.831 96.5996 253 c 0
 96.5996 266 l 0
 96.5996 278.494 99.5918 290.818 107.147 298.848 c 0
 116.502 308.789 126.881 308 131.8 308 c 0
 583 308 l 0
 598.21 308 605.4 288.589 605.4 279 c 0
 605.4 61 l 0
 605.4 53.4902 605.307 42.5576 598.518 32.7686 c 0
 591.803 23.0859 582.241 21 574.2 21 c 0
 563 21 l 0
 553.383 21 543.83 24.1162 536.994 32.7861 c 0
 528.03 44.1562 527.8 58.1924 527.8 67 c 0
 527.8 211 l 1
 131 211 l 2
EndSplineSet
EndChar

StartChar: registered
Encoding: 174 174 102
Width: 467
GlyphClass: 2
Flags: HW
HStem: 335 37<200.116 319.559> 419 27<168.714 194.3 331.696 359.324> 542 18<224.795 254.513> 657 19<165.986 192.166 222.302 265.65> 719 36<200.116 317.629>
VStem: 91.9 28<471.505 618.161> 194.3 28.8<445.157 542 560 650 651 652.047> 284.7 29.6<568.344 643.871> 398.3 28.8<471.505 618.161>
DStem2: 280.7 548 253.5 537 0.50186 -0.864949<0 123.169>
LayerCount: 2
Fore
SplineSet
245.5 696 m 0
 306.201 696 330.3 647.618 330.3 610 c 0
 330.3 578.097 315.541 555.511 304.575 543.691 c 1
 320.164 519.745 328.976 502.148 340.694 478.547 c 0
 340.932 478.07 l 1
 341.146 477.577 l 0
 342.684 474.056 344.94 470.35 346.575 468.253 c 1
 352.925 473.281 355.534 474 360.7 474 c 0
 372.622 474 381.5 462.886 381.5 447 c 0
 381.5 429.999 366.724 399 338.3 399 c 0
 317.028 399 302.224 417.963 293.125 434.643 c 1
 242.438 522 l 1
 240.7 522 l 1
 240.7 464.935 l 1
 246.117 464.56 274.3 464.487 274.3 432 c 0
 274.3 416.036 264.089 401 250.3 401 c 0
 242.74 401 235.547 403 213.5 403 c 0
 191.28 403 182.841 401 176.7 401 c 0
 157.816 401 152.7 423.819 152.7 433 c 0
 152.7 456.438 172.367 462.287 178.3 463.395 c 1
 178.3 632.154 l 1
 175.541 632.759 171.008 633.814 169.789 634.122 c 1
 159.352 635.511 149.5 646.128 149.5 662 c 0
 149.5 674.044 157.865 691 171.9 691 c 0
 181.5 691 l 0
 205.391 691 223.942 696 245.5 696 c 0
268.7 604 m 0
 268.7 621.283 259.471 637 239.1 637 c 0
 239.1 580 l 1
 271.809 580 268.7 593.664 268.7 604 c 0
258.3 392 m 0
 326.351 392 382.3 462.366 382.3 544 c 0
 382.3 628.904 326.224 699 258.3 699 c 0
 192.904 699 135.9 628.908 135.9 544 c 0
 135.9 462.363 192.777 392 258.3 392 c 0
258.3 315 m 0
 157.302 315 75.9004 419.074 75.9004 544 c 0
 75.9004 671.795 157.3 775 258.3 775 c 0
 360.709 775 443.1 672.011 443.1 544 c 0
 443.1 418.857 360.706 315 258.3 315 c 0
EndSplineSet
EndChar

StartChar: degree
Encoding: 176 176 103
Width: 190
GlyphClass: 2
Flags: HW
HStem: 496 38<75.0678 138.666> 653 37<75.2334 137.66>
VStem: 30.8 32<548.199 639.382> 150.8 30.4<548.7 637.058>
LayerCount: 2
Fore
SplineSet
106 710 m 0
 157.924 710 197.2 655.24 197.2 593 c 0
 197.2 529.533 156.949 476 106 476 c 0
 56.0254 476 14.7998 528.308 14.7998 593 c 0
 14.7998 657.692 56.0254 710 106 710 c 0
106 633 m 0
 91.4336 633 78.7998 616.895 78.7998 594 c 0
 78.7998 570.346 92.0801 554 106.8 554 c 0
 122.678 554 134.8 571.815 134.8 593 c 0
 134.8 614.617 121.272 633 106 633 c 0
EndSplineSet
EndChar

StartChar: plusminus
Encoding: 177 177 104
Width: 631
GlyphClass: 2
Flags: HW
HStem: -12 57<112.6 589.358> 280 58<112.6 327.8 373.4 589.358>
VStem: 327.8 45.6<71 280 338 546.977>
LayerCount: 2
Fore
SplineSet
131 260 m 2
 123.337 260 113.603 261.278 105.783 270.698 c 0
 98.5488 279.414 96.5996 291.272 96.5996 302 c 0
 96.5996 316 l 0
 96.5996 327.975 99.5332 339.689 106.416 347.618 c 0
 115.521 358.107 126.166 358 131.8 358 c 0
 311.8 358 l 1
 311.8 531 l 0
 311.8 539.72 313.603 549.935 319.818 557.398 c 0
 328.22 567.484 337.999 567 343.8 567 c 0
 355 567 l 0
 364.979 567 375.839 564.578 383.021 553.387 c 0
 389.294 543.616 389.4 533.066 389.4 526 c 0
 389.4 358 l 1
 573.4 358 l 0
 579.481 358 587.591 357.123 594.855 349.766 c 0
 602.858 341.66 605.4 329.267 605.4 318 c 0
 605.4 304 l 0
 605.4 290.84 602.367 278.015 594.498 269.619 c 0
 584.615 259.074 573.502 260 567.8 260 c 0
 389.4 260 l 1
 389.4 89 l 0
 389.4 79.5586 387.756 68.6084 380.962 60.5527 c 0
 372.429 50.4355 362.532 51 356.6 51 c 0
 345.4 51 l 0
 335.453 51 324.035 53.3545 317.03 65.6611 c 0
 311.92 74.6406 311.8 83.7285 311.8 90 c 0
 311.8 260 l 1
 131 260 l 2
131 -32 m 2
 124.645 -32 115.511 -31.8936 107.215 -23.3486 c 0
 98.8838 -14.7686 96.5996 -1.8623 96.5996 10 c 0
 96.5996 23 l 0
 96.5996 35.4941 99.5918 47.8174 107.147 55.8477 c 0
 116.502 65.7891 126.881 65 131.8 65 c 0
 573.4 65 l 0
 579.212 65 587.728 64.7021 595.458 56.6465 c 0
 603.161 48.6201 605.4 36.6338 605.4 26 c 0
 605.4 12 l 0
 605.4 -1.16016 602.367 -13.9854 594.498 -22.3809 c 0
 584.615 -32.9258 573.502 -32 567.8 -32 c 0
 131 -32 l 2
EndSplineSet
EndChar

StartChar: acute
Encoding: 180 180 105
Width: 204
GlyphClass: 2
Flags: HW
HStem: 474 227
VStem: 34.7 157.6
LayerCount: 2
Fore
SplineSet
162.7 721 m 0
 186.888 721 208.3 697.426 208.3 664 c 0
 208.3 636.943 195.191 619.346 184.682 605.198 c 1
 146.862 556.896 79.0205 470.508 71.7002 463.188 c 1
 65.6885 457.552 58.4492 454 49.9004 454 c 0
 41.8643 454 34.4072 457.871 29.0752 463.98 c 0
 22.0381 472.044 18.7002 483.109 18.7002 494 c 0
 18.7002 518.98 24.3623 520.633 105.347 670.019 c 1
 111.423 681.836 128.583 721 162.7 721 c 0
EndSplineSet
EndChar

StartChar: paragraph
Encoding: 182 182 106
Width: 675
GlyphClass: 2
Flags: HW
HStem: -204 53<560.45 622.48> -18 36<315.645 403.451> 679 31<347.958 425> 694 39<549.563 610.704>
VStem: 95.8 137.6<173.297 423.162> 367 20.8<175.738 468.644> 430.2 29.6<128.563 491.261> 611 43.2<640.104 693.031>
LayerCount: 2
Fore
SplineSet
414.2 315 m 0
 414.2 482.149 449.496 585.042 456.245 608.204 c 1
 455.251 611.904 452.835 617.85 450.976 621.642 c 1
 420.643 539.748 403.8 445.296 403.8 323 c 0
 403.8 233.418 418.548 133.012 429.629 86.9297 c 1
 431.584 90.8867 431.772 91.3867 432.754 93.6611 c 1
 425.886 141.269 414.2 226.867 414.2 315 c 0
406.48 656.735 m 1
 400.168 658.407 394.875 659 391.8 659 c 0
 336.344 659 291.739 569.529 270.959 493.6 c 1
 256.407 439.031 249.4 379.996 249.4 321 c 0
 249.4 320 l 0
 249.4 147.116 301.967 38 362.2 38 c 0
 368.968 38 381.052 41.3906 386.601 44.3389 c 1
 377.625 76.1953 351 168.29 351 313 c 0
 351 503.344 392.055 616.691 406.48 656.735 c 1
576.6 633 m 0
 576.6 656.767 591.589 670.021 593.841 673.151 c 1
 592.458 673.684 591.134 674 588.6 674 c 0
 577.472 674 565.927 667.7 555.116 657.169 c 0
 540.538 642.97 528.746 622.12 523.777 609.224 c 1
 483.61 507.838 475.8 408.593 475.8 321 c 0
 475.8 317.051 l 1
 476.586 128.636 516.582 -18.0674 547.542 -77.957 c 1
 561.423 -103.529 581.892 -128.887 588.493 -133.602 c 1
 588.493 -133.602 639 -128.011 639 -177 c 0
 639 -210.256 612.118 -224 592.6 -224 c 0
 589.4 -224 l 0
 577.427 -224 556.737 -219.343 531.914 -189.421 c 1
 509.379 -162.378 496.031 -129.292 483.232 -99.2969 c 1
 463.423 -51.3691 456.033 -27.084 448.115 6.35938 c 1
 426.608 -14.9863 397.885 -32.4082 338.378 -36.9629 c 0
 337.89 -37 l 1
 337.4 -37 l 0
 333.42 -37 328.62 -38 321.4 -38 c 0
 175.848 -38 79.7998 113.561 79.7998 295 c 0
 79.7998 547.417 242.621 730 387 730 c 0
 444.292 730 478.574 698.751 494.086 682.255 c 1
 502.533 695.029 514.424 710.974 537.049 728.06 c 1
 555.272 742.161 576.692 753 600.6 753 c 0
 646.522 753 670.2 709.98 670.2 673 c 0
 670.2 624.209 637.131 592 611 592 c 0
 594.862 592 576.6 606.675 576.6 633 c 0
EndSplineSet
EndChar

StartChar: periodcentered
Encoding: 183 183 107
Width: 204
GlyphClass: 2
Flags: HW
HStem: 201 117<77.0877 149.846>
VStem: 65.9 95.2<214.578 303.753>
LayerCount: 2
Fore
SplineSet
113.1 338 m 0
 147.149 338 177.1 303.691 177.1 259 c 0
 177.1 217.159 150.021 181 113.9 181 c 0
 81.1904 181 49.9004 212.901 49.9004 260 c 0
 49.9004 306.981 80.5205 338 113.1 338 c 0
EndSplineSet
EndChar

StartChar: cedilla
Encoding: 184 184 108
Width: 179
GlyphClass: 2
Flags: HW
HStem: -199 36<42.3256 114.941>
VStem: 56.9936 37.6<-77.5 -20.3329> 117.794 48.8<-160.177 -95.2734>
LayerCount: 2
Fore
SplineSet
100.993 -219 m 0
 72.8643 -219 40.25 -214.069 27.7988 -201.617 c 0
 27.1064 -200.925 l 1
 26.4795 -200.142 l 0
 22.7861 -195.525 19.3936 -187.11 19.3936 -179 c 0
 19.3936 -179 16.8994 -135 46.5938 -135 c 0
 55.3857 -135 73.6592 -143 87.3936 -143 c 0
 99.4258 -143 101.794 -137.363 101.794 -130 c 0
 101.794 -120.368 89.9756 -101.969 60.3828 -98.998 c 1
 60.3828 -98.998 40.9932 -99.7256 40.9932 -76 c 0
 40.9932 -59.5459 58.2842 -16.5781 67.7764 12.5459 c 0
 71.835 25 l 1
 129.157 25 l 1
 122.666 -0.96582 l 0
 120.79 -8.4668 117.989 -19.0029 115.485 -28.4004 c 1
 153.471 -35.3818 182.594 -68.9346 182.594 -123 c 0
 182.594 -162.749 163.988 -219 100.993 -219 c 0
EndSplineSet
EndChar

StartChar: guillemotright
Encoding: 187 187 109
Width: 328
GlyphClass: 2
Flags: HW
HStem: 52 282<62 72.4 175.6 185.2>
VStem: 134.8 63.2<171.321 215.498> 246.8 63.2<171.129 215.713>
LayerCount: 2
Fore
SplineSet
314.188 167.257 m 1
 195.36 37.4131 198.6 32 180.4 32 c 0
 164.68 32 151.6 49.3252 151.6 70 c 0
 151.6 91.043 160.062 93.583 228.731 192.922 c 1
 155.957 295.067 150 292.223 150 315 c 0
 150 335.667 163.544 354 180.4 354 c 0
 198.764 354 195.574 346.704 315.188 219.636 c 1
 319.935 215.186 326 204.527 326 193 c 0
 326 181.159 321.568 171.87 314.188 167.257 c 1
203.279 168.449 m 0
 84.4531 38.6045 86.5986 32 68.4004 32 c 0
 50.9102 32 39.5996 51.3105 39.5996 70 c 0
 39.5996 90.9189 47.9219 95.1963 115.892 194.004 c 1
 44.54 292.681 l 1
 43.8867 293.906 l 0
 42.4873 296.531 38 303.92 38 315 c 0
 38 335.667 51.5439 354 68.4004 354 c 0
 86.9814 354 88.4404 341.584 201.304 219.949 c 1
 209.189 212.709 214 204.632 214 193 c 0
 214 180.422 208.053 172.925 203.279 168.449 c 0
EndSplineSet
EndChar

StartChar: questiondown
Encoding: 191 191 110
Width: 339
GlyphClass: 2
Flags: HW
HStem: -16 38<145.445 220.575> -7 103<240.754 291.246> 572 118<153.072 226.087>
VStem: 47.2 68<60.8065 202.07> 141.6 96<586.247 675.996> 180 41.6<345.138 480.296>
LayerCount: 2
Fore
SplineSet
189.6 552 m 0
 155.551 552 125.6 586.309 125.6 631 c 0
 125.6 672.98 153.378 710 189.6 710 c 0
 222.686 710 253.6 676.779 253.6 630 c 0
 253.6 582.586 221.922 552 189.6 552 c 0
188.8 -36 m 0
 77.5625 -36 31.2002 61.6738 31.2002 131 c 0
 31.2002 276.567 164 301.365 164 423 c 0
 164 430.38 163.2 435.882 163.2 445 c 0
 163.2 481.113 182.396 501 200 501 c 0
 220.967 501 237.6 476.518 237.6 426 c 0
 237.6 279.944 131.2 223.834 131.2 126 c 0
 131.2 76.7822 156.933 42 184.8 42 c 0
 220.42 42 211.122 116 271.2 116 c 0
 300.014 116 320.8 85.8633 320.8 52 c 0
 320.8 34.0088 313.193 -11.5732 257.066 -26.5254 c 1
 235.257 -32.8164 211.499 -36 188.8 -36 c 0
EndSplineSet
EndChar

StartChar: AE
Encoding: 198 198 117
Width: 904
GlyphClass: 2
Flags: HMW
HStem: -6 45<93.6471 160.114 242.305 312.777> 0 62<582.678 681.237> 0 55<608.363 796.285> 300 52<354.864 510.4> 369 58<583.902 750.882> 638 54<584.076 794.486>
VStem: 510.4 71.2<65 300 352 366.058 427 630.512> 752 43.2<271.329 368.925 428.417 512.682> 824 35.2<525.207 582.383>
LayerCount: 2
Back
SplineSet
503.2 352 m 6x3980
 506.4 352 510.4 354 510.4 361 c 6
 510.4 619 l 5
 509.6 627 506.4 631 502.4 631 c 4
 499.2 631 496 629 493.6 626 c 4
 458.4 581 353.6 366 353.6 356 c 4
 353.6 352 357.6 352 360.8 352 c 6
 503.2 352 l 6x3980
343.2 675 m 4
 343.2 680 345.6 701 354.4 701 c 4xb380
 361.6 701 384 697 464 693 c 4x3980
 504.8 691 819.2 693 826.4 691 c 4
 833.6 688 835.2 682 836 675 c 4
 841.6 631 859.2 548 859.2 544 c 4
 859.2 533 848.8 525 839.2 525 c 4
 832.8 525 827.2 528 824 535 c 4
 818.4 547 792 618 786.4 629 c 4
 781.6 638 776 638 760.8 638 c 6
 608 638 l 6
 583.2 638 583.2 618 583.2 596 c 6
 583.2 449 l 6
 583.2 439 584 427 599.2 427 c 6
 721.6 427 l 6
 750.4 427 752 440 752 473 c 6
 752 491 l 6
 752 501 754.4 513 773.6 513 c 4
 794.4 513 795.2 495 795.2 484 c 6
 795.2 300 l 6
 795.2 289 794.4 271 773.6 271 c 4
 752.8 271 752 284 752 293 c 6
 752 332 l 6
 752 363 749.6 369 731.2 369 c 6
 620.8 369 l 6
 601.6 369 581.6 367 581.6 329 c 6
 581.6 108 l 6
 581.6 78 582.4 66 607.2 62 c 4
 632 57 657.6 55 682.4 55 c 4
 738.4 55 786.4 66 796.8 76 c 4
 811.2 90 839.2 173 852 183 c 4
 854.4 185 857.6 186 860 186 c 4
 867.2 186 874.4 178 874.4 163 c 4
 874.4 156 872.8 148 849.6 20 c 4
 846.4 0 837.6 0 821.6 0 c 6
 553.6 0 l 6x7580
 466.4 0 455.2 -6 444 -6 c 4
 435.2 -6 430.4 5 430.4 15 c 4
 430.4 60 492.8 25 507.2 65 c 4
 510.4 73 510.4 83 510.4 94 c 6
 510.4 291 l 5
 509.6 299 504.8 300 501.6 300 c 6
 368.8 300 l 6
 326.4 300 328 299 323.2 289 c 4
 277.6 200 240.8 91 240.8 72 c 4
 240.8 44 261.6 46 298.4 39 c 4
 304.8 38 312.8 35 312.8 16 c 4
 312.8 7 310.4 -6 299.2 -6 c 4xb180
 296 -6 253.6 0 202.4 0 c 4x7180
 150.4 0 109.6 -6 106.4 -6 c 4
 97.5996 -6 93.5996 5 93.5996 15 c 4
 93.5996 24 96 33 102.4 36 c 4
 114.4 41 141.6 41 158.4 59 c 4
 176.8 79 190.4 140 299.2 360 c 4
 408 580 436.8 609 436.8 625 c 4
 436.8 643 416 642 359.2 653 c 4xb380
 346.4 655 343.2 665 343.2 675 c 4
EndSplineSet
Fore
SplineSet
494.4 372 m 1
 494.4 596.415 l 1
 461.989 544.573 403.738 425.959 379.526 372 c 1
 494.4 372 l 1
327.2 675 m 0
 327.2 675.508 325.115 721 354.4 721 c 0
 364.408 721 384.36 716.999 464.64 712.984 c 0
 483.66 712.033 572.966 712 657.6 712 c 0
 743.789 712 819.363 713.155 829.537 710.612 c 0
 830.515 710.367 l 1
 831.46 709.974 l 0
 845.975 703.926 850.799 686.928 851.821 677.983 c 1
 857.414 634.036 875.2 557.93 875.2 544 c 0
 875.2 516.023 853.232 505 839.2 505 c 0
 828.864 505 816.667 510.73 810.143 525.002 c 1
 804.152 537.838 785.317 594.693 776.59 618 c 1
 608 618 l 0
 602.367 618 600.731 616.571 600.731 616.571 c 1
 600.338 615.806 599.2 608.718 599.2 596 c 0
 599.2 449 l 0
 599.2 448.274 599.215 447.199 599.219 447 c 1
 721.6 447 l 0
 730.091 447 733.994 448.735 734.431 449.02 c 1
 735.029 450.66 736 458.698 736 473 c 0
 736 491 l 0
 736 496.889 736.41 506.117 741.287 515.225 c 0
 747.989 527.742 760.109 533 773.6 533 c 0
 784.793 533 794.966 528.749 801.812 519.706 c 0
 811.771 506.548 811.2 490.626 811.2 484 c 0
 811.2 300 l 0
 811.2 293.489 811.729 278.503 802.681 265.493 c 0
 795.892 255.733 785.32 251 773.6 251 c 0
 759.852 251 747.622 256.085 740.969 268.781 c 0
 735.752 278.736 736 288.486 736 293 c 0
 736 332 l 0
 736 339.858 735.748 345.621 735.414 348.824 c 1
 733.874 348.969 732.938 349 731.2 349 c 0
 620.8 349 l 0
 601.464 349 597.6 350.612 597.6 329 c 0
 597.6 108 l 0
 597.6 93.0732 598.739 85.8125 598.99 85.1768 c 1
 599.433 84.7705 601.847 83.0293 609.498 81.7949 c 1
 633.83 76.8896 658.126 75 682.4 75 c 0
 734.542 75 780.58 87.1963 787.07 91.8926 c 1
 796.744 103.442 821.204 182.526 843.32 199.804 c 1
 848.59 204.195 854.44 206 860 206 c 0
 877.68 206 890.4 186.212 890.4 163 c 0
 890.4 150.05 888.404 143.587 865.25 15.8281 c 1
 863.744 6.41895 860.365 -3.8291 853.573 -10.7109 c 0
 842.522 -21.9043 830.483 -20 821.6 -20 c 0
 444 -20 l 0
 429.312 -20 414.4 -6.73242 414.4 15 c 0
 414.4 73.0469 494.4 70.5078 494.4 70.5078 c 1
 494.4 280 l 1
 368.8 280 l 0
 351.342 280 341.314 279.639 337.09 279.062 c 1
 336.678 278.206 337.104 279.056 336.674 278.214 c 0
 293.57 194.089 258.232 86.5342 256.801 71.7383 c 1
 256.834 69.5771 257.002 68.9609 257.078 68.627 c 1
 259.356 66.5977 275.185 63.6465 300.596 58.8125 c 1
 303.899 58.2959 310.577 56.9883 316.746 51.1514 c 0
 324.973 43.3682 328.8 30.2285 328.8 16 c 0
 328.8 5.89453 324.926 -26 299.2 -26 c 0
 292.752 -26 253.476 -20 202.4 -20 c 0
 150.801 -20 112.497 -26 106.4 -26 c 0
 83.8906 -26 77.5996 1.27344 77.5996 15 c 0
 77.5996 26.8643 80.3545 47.0264 97.0596 54.8564 c 1
 115.453 62.5205 136.323 61.6875 147.944 74.1387 c 1
 158.919 86.0674 176.732 150.4 285.591 370.516 c 0
 370.682 542.575 408.14 600.534 418.527 621.301 c 1
 408.089 624.605 387.618 627.259 356.982 633.191 c 1
 347.957 634.601 338.987 640.021 333.6 649 c 0
 328.308 657.82 327.2 667.531 327.2 675 c 0
EndSplineSet
EndChar

StartChar: Ccedilla
Encoding: 199 199 118
Width: 630
GlyphClass: 2
Flags: HW
HStem: -195 36<330.814 403.686> -23 50<311.133 361.1 382.701 469.892> 439 21G<573.9 591.1> 650 46<297.362 459.825>
VStem: 85.9 76.8<229.101 451.697> 406.7 48.8<-156.256 -91.5187> 561.1 39.2<439.285 545.701>
LayerCount: 2
Fore
SplineSet
617.232 60.2832 m 0
 609.854 31.4492 588.6 27 583.5 27 c 0
 560.3 27 l 0
 546.179 27 552.394 25.4551 530.91 8.83105 c 1
 500.382 -13.1836 467.702 -28.2979 434.674 -36.6924 c 1
 458.086 -53.1924 471.5 -81.8535 471.5 -119 c 0
 471.5 -120 l 0
 471.5 -159.212 451.964 -215 389.9 -215 c 0
 362.266 -215 328.802 -208.562 316.879 -197.848 c 1
 310.145 -191.251 307.5 -182.604 307.5 -175 c 0
 307.5 -175 305.007 -131 334.7 -131 c 0
 343.27 -131 362.573 -139 376.3 -139 c 0
 387.875 -139 390.7 -132.431 390.7 -127 c 0
 390.7 -116.065 378.699 -97.9443 349.366 -95.0059 c 1
 347.582 -94.9434 329.9 -92.9453 329.9 -72 c 0
 329.9 -58.2217 333.959 -54.3291 338.21 -40.7227 c 1
 183.1 -17.5811 69.9004 145.607 69.9004 335 c 0
 69.9004 442.065 108.594 541.762 163.606 608.412 c 1
 221.171 677.193 300.118 716 378.7 716 c 0
 379.5 716 l 0
 460.394 716 511.573 679.866 532.383 666.444 c 1
 534.515 674.464 538.923 692.912 555.428 698.341 c 0
 557.43 699 l 1
 559.437 699 l 1
 560.781 699.08 563.786 700 568.3 700 c 0
 586.555 700 593.374 679.593 594.482 671.288 c 0
 594.7 669.655 l 1
 594.7 651.354 616.3 471.151 616.3 456 c 0
 616.3 442.066 607.422 419 584.3 419 c 0
 576.264 419 566.725 419.062 558.392 428.213 c 0
 545.184 442.713 547.392 461.833 545.246 483.295 c 1
 542.187 509.112 540.242 519.642 527.717 539.646 c 1
 497.546 587.481 445.131 630 377.1 630 c 0
 276.492 630 178.7 528.654 178.7 354 c 0
 178.7 178.446 273.444 47 387.5 47 c 0
 472.411 47 553.428 118.062 581.064 230.111 c 1
 581.073 230.144 586.448 257 608.3 257 c 0
 614.87 257 637.1 253.325 637.1 226 c 0
 637.1 224.596 l 1
 636.943 223.206 l 0
 636.943 223.206 619.321 68.2842 617.232 60.2832 c 0
EndSplineSet
EndChar

StartChar: multiply
Encoding: 215 215 133
Width: 497
GlyphClass: 2
Flags: HW
DStem2: 105.8 86 277 219 0.624695 0.780869<20.8764 222.188 274.054 474.396> 277 300 245 259 0.624695 -0.780869<-199.618 0.0277137 52.5057 253.818>
LayerCount: 2
Fore
SplineSet
333.854 257.227 m 0
 464.145 94.5811 472.2 96.5703 472.2 69 c 0
 472.2 45.3203 451.133 16 429.8 16 c 0
 417.392 16 409.282 25.3623 404.887 30.8574 c 0
 277.003 190.712 l 1
 144.062 24.3154 147.635 16 125 16 c 0
 106.057 16 82.5996 42.334 82.5996 69 c 0
 82.5996 84.5195 90.0742 94.627 94.5029 100.162 c 1
 233.15 272.477 l 0
277.142 328.392 m 0
 412.315 496.639 407.424 501.402 427.408 503.901 c 0
 428.201 504 l 1
 429.8 504 l 0
 447.85 504 471.4 477.285 471.4 450 c 0
 471.4 449 l 0
 471.4 420.536 461.063 419.798 321.113 244.858 c 1
221.637 259.995 m 0
 97.8506 415.353 81.7998 420.652 81.7998 450 c 0
 81.7998 472.061 102.33 502 125 502 c 0
 125.8 502 l 0
 148.593 502 149.212 489.005 288.346 314.102 c 1
EndSplineSet
EndChar

StartChar: Oslash
Encoding: 216 216 134
Width: 700
GlyphClass: 2
Flags: HW
HStem: -24 58<311.926 478.323> 667 53<292.575 461.304>
VStem: 92.2 76<244.676 473.525> 606.6 79.2<215.912 457.417>
DStem2: 224.2 44 234.6 -39 0.403044 0.915181<-76.325 0 67.6858 636.869 703.117 771.172>
LayerCount: 2
Fore
SplineSet
701.8 337 m 0
 701.8 115.786 563.06 -44 398.6 -44 c 0
 353.119 -44 307.67 -30.748 267.04 -8.15918 c 1
 249.335 -48.9521 251.184 -46.5547 245.914 -53.1426 c 0
 244.794 -54.543 l 1
 243.476 -55.6406 l 0
 239.728 -58.7646 231.18 -64 219.4 -64 c 0
 209.981 -64 176.2 -66.71 176.2 -31 c 0
 176.2 -30 l 0
 176.2 -13.9854 179.799 -16.0527 203.404 38.0488 c 1
 125.178 111.757 77.0049 229.154 76.2002 352.919 c 1
 76.2002 567.34 217.874 740 387.4 740 c 0
 425.536 740 464.394 730.469 499.204 714.229 c 1
 509.959 739.717 512.356 753.013 525.874 761.389 c 0
 532.961 765.78 538.739 765 542.6 765 c 0
 568.341 765 587.4 752.389 587.4 729 c 0
 587.4 712.054 580.692 704.969 565.339 670.471 c 1
 650.728 595.773 701.8 469.255 701.8 337 c 0
184.2 384 m 0
 184.2 304.198 202.131 207.696 247.943 139.798 c 1
 459.739 624.245 l 1
 432.921 639.111 404.068 647 374.6 647 c 0
 283.007 647 184.2 570.719 184.2 384 c 0
395.4 54 m 0
 479.977 54 590.6 121.453 590.6 319 c 0
 590.6 407.358 569.792 504.116 520.933 569.441 c 1
 305.884 80.7773 l 1
 331.727 64.3457 360.782 54 395.4 54 c 0
EndSplineSet
EndChar

StartChar: germandbls
Encoding: 223 223 140
Width: 476
GlyphClass: 2
Flags: HW
HStem: -19 56<319.123 407.298> -6 45<67.5025 117.395 174.788 227.396> 360 47<60.724 118.534> 659 60<223.991 306.281>
VStem: 118.599 56.8<38.5658 359.712 410.048 563.25> 254.599 45.6<345.337 432.51> 259.399 32.8<68.2012 148.863> 324.999 64.8<533.904 634.935> 420.999 48.8<54.6943 152.155>
LayerCount: 2
Fore
SplineSet
76.999 -26 m 0
 59.6016 -26 51.3994 -5.11133 51.3994 13 c 0
 51.3994 51.7881 77.9531 54.8486 101.052 58.5264 c 1
 102.02 66.1621 101.786 81.1689 102.615 101.899 c 1
 103.313 123.733 104.094 280.01 104.189 339.681 c 1
 97.3936 339.769 89.21 339.685 77.625 340 c 1
 76.999 340 l 0
 73.3838 340 63.2676 339.584 54.1064 349.579 c 0
 47.8037 356.456 44.1992 367.376 44.1992 379 c 0
 44.1992 383.467 43.123 416.3 66.3389 425.974 c 0
 77.0098 430.42 92.0674 428.812 102.736 428.967 c 1
 104.801 530.297 125.695 628.825 178.702 685.309 c 1
 215.039 722.973 260.494 739 296.199 739 c 0
 357.318 739 405.799 686.605 405.799 607 c 0
 405.799 517.152 348.132 473.207 327.152 436.212 c 0
 319.923 423.464 316.199 412.135 316.199 399 c 0
 316.199 353.848 360.73 335.106 431.953 238.569 c 1
 452.31 211.088 485.799 161.935 485.799 97 c 0
 485.799 15.6191 432.306 -39 370.599 -39 c 0
 306.207 -39 263.836 -0.116211 250.342 27.9961 c 1
 244.622 40.8662 243.399 52.7861 243.399 65 c 0
 243.399 131 l 0
 243.399 144.007 245.237 155.773 247.695 160.11 c 1
 248.565 161.742 l 1
 249.541 162.962 l 1
 252.394 166.68 259.851 176 272.999 176 c 0
 309.642 176 302.898 108.402 305.969 101.199 c 1
 311.376 90.7617 338.726 57 364.999 57 c 0
 388.004 57 404.999 75.3994 404.999 100 c 0
 404.999 142.574 358.721 166.398 275.2 273.965 c 1
 255.104 299.084 238.599 328.561 238.599 368 c 0
 238.599 412.377 259.166 446.63 276.166 477.516 c 0
 294.011 509.938 308.999 539.463 308.999 575 c 0
 308.999 612.749 290.448 639 264.999 639 c 0
 255.683 639 208.099 637.514 195.275 505.523 c 1
 191.431 468.039 191.399 430.065 191.399 390 c 0
 191.399 380 l 0
 191.399 131.033 190.599 98.6172 190.599 68 c 0
 190.599 61.4492 191.235 58.457 191.279 58.3418 c 1
 191.352 58.2607 193.914 55.8535 201.54 54.9316 c 1
 219.131 53.3604 243.399 50.2256 243.399 17 c 0
 243.399 13.2617 245.957 -26 218.599 -26 c 0
 212.379 -26 185.751 -20 148.199 -20 c 0
 109.933 -20 83.8799 -26 76.999 -26 c 0
EndSplineSet
EndChar

StartChar: ae
Encoding: 230 230 147
Width: 582
GlyphClass: 2
Flags: HW
HStem: -22 54<163.314 248.263 398.551 499.79> 191 37<194.506 272.952> 376 56<362.738 456.01> 385 47<166.114 249.502>
VStem: 92.2 59.2<46.7656 152.973> 273.8 59.2<115.787 190.367 228.097 337.5> 489.8 78.4<298.142 339.608>
LayerCount: 2
Fore
SplineSet
405.8 356 m 0
 375.592 356 350.042 322.846 345.604 252.945 c 1
 379.117 268.683 449.039 302.479 470.724 313.173 c 1
 459.591 330.566 431.731 356 405.8 356 c 0
167.4 101 m 0
 167.4 76.9043 173.579 52 201.8 52 c 0
 215.874 52 233.796 60.4932 244.48 71.4922 c 1
 259.843 87.0371 257.8 77.4316 257.8 115 c 0
 257.8 144 l 0
 257.8 155.565 257.706 165.258 257.578 170.297 c 1
 208.94 164.89 167.4 148.836 167.4 101 c 0
424.2 452 m 0
 505.743 452 584.2 361.683 584.2 313 c 0
 584.2 311.667 l 1
 582.801 259.222 523.68 249.93 507.813 243.092 c 0
 406.061 199.254 364.168 182.228 349.965 175.074 c 1
 355.18 141.169 377.453 58 451.4 58 c 0
 482.067 58 512.317 73.9414 534.788 100.547 c 1
 539.001 106.904 548.316 121 565 121 c 0
 579.983 121 593 106.401 593 87 c 0
 593 76.7646 590.029 67.375 585.513 58.9062 c 0
 585.193 58.3076 l 1
 584.842 57.7402 l 0
 545.753 -5.23828 486.781 -39 429.8 -39 c 0
 362.525 -39 324.09 5.1084 307.826 26.9941 c 1
 286.547 4.03125 241.768 -42 183.4 -42 c 0
 120.169 -42 76.2002 18.4854 76.2002 90 c 0
 76.2002 91 l 0
 76.2002 135.396 93.0283 173.078 115.808 195.621 c 1
 156.065 236.266 231.836 244.641 256.985 247.218 c 1
 256.998 248.405 257 248.965 257 250 c 0
 257 278 l 0
 257 308.588 254.163 326.999 241.784 344.794 c 1
 232.002 358.549 219.543 365 207.4 365 c 0
 173.529 365 158.351 318.976 151.913 306.906 c 0
 151.377 305.901 l 1
 150.748 304.984 l 0
 143.3 294.122 132.356 287 120.2 287 c 0
 99.1943 287 73 306.838 73 343 c 0
 73 398.046 140.331 452 213 452 c 0
 277.743 452 305.92 416.796 319.003 399.312 c 1
 336.254 418.287 372.44 452 424.2 452 c 0
EndSplineSet
EndChar

StartChar: ccedilla
Encoding: 231 231 148
Width: 344
GlyphClass: 2
Flags: HW
HStem: -195 36<146.214 219.086> -18 64<199.646 279.081> 376 52<153.576 240.841>
VStem: 53.3 52.8<132.437 305.205> 222.1 48.8<-156.256 -91.5187>
LayerCount: 2
Fore
SplineSet
286.9 -120 m 2
 286.9 -159.212 267.364 -215 205.3 -215 c 0
 177.666 -215 144.201 -208.562 132.28 -197.848 c 1
 125.545 -191.251 122.9 -182.604 122.9 -175 c 0
 122.9 -175 120.406 -131 150.1 -131 c 0
 158.67 -131 177.974 -139 191.7 -139 c 0
 203.275 -139 206.1 -132.431 206.1 -127 c 0
 206.1 -116.065 194.1 -97.9443 164.767 -95.0059 c 1
 162.981 -94.9434 145.3 -92.9453 145.3 -72 c 0
 145.3 -57.3076 152.149 -46.0801 157.574 -28.373 c 1
 83.6719 -1.38086 37.2998 85.874 37.2998 197 c 0
 37.2998 342.086 112.643 448 224.5 448 c 0
 284.153 448 342.1 411.578 342.1 354 c 0
 342.1 318.434 318.17 296 294.1 296 c 0
 241.542 296 231.225 356 197.3 356 c 0
 161.453 356 122.1 299.905 122.1 222 c 0
 122.1 137.571 169.609 66 232.5 66 c 0
 289.251 66 290.466 120 330.1 120 c 0
 345.55 120 359.7 104.57 359.7 83 c 0
 359.7 70.541 355.374 61.124 351.771 55.1172 c 1
 329.255 16.4189 292.145 -19.7656 244.206 -33.04 c 1
 270.8 -48.2754 286.9 -78.4707 286.9 -119 c 0
 286.9 -120 l 2
EndSplineSet
EndChar

StartChar: divide
Encoding: 247 247 163
Width: 630
GlyphClass: 2
Flags: HW
HStem: 67 103<311.898 379.502> 231 57<112.5 588.463> 349 103<306.587 374.702>
VStem: 298.1 84.8<359.248 440.996> 303.7 84<76.9539 159.752>
CounterMasks: 1 e0
LayerCount: 2
Fore
SplineSet
130.9 211 m 2
 123.521 211 113.59 211.435 105.413 221.288 c 0
 97.8174 230.442 96.5 242.549 96.5 253 c 0
 96.5 266 l 0
 96.5 279.026 99.5977 292.034 107.928 300.086 c 0
 116.863 308.722 126.213 308 130.9 308 c 0
 572.5 308 l 0
 578.507 308 587.254 307.883 595.086 299.397 c 0
 602.831 291.003 604.5 279.051 604.5 269 c 0
 604.5 255 l 0
 604.5 241.559 601.321 228.613 593.344 220.281 c 0
 583.685 210.192 572.977 211 567.7 211 c 0
 130.9 211 l 2
282.1 400 m 0
 282.1 440.976 309.905 472 341.3 472 c 0
 373.131 472 398.9 440.267 398.9 401 c 0
 398.9 360.523 372.183 329 340.5 329 c 0
 309.239 329 282.1 359.156 282.1 400 c 0
346.1 47 m 0
 315.549 47 287.7 77.126 287.7 119 c 0
 287.7 159.334 313.747 190 345.3 190 c 0
 376.982 190 403.7 158.477 403.7 118 c 0
 403.7 77.666 377.652 47 346.1 47 c 0
EndSplineSet
EndChar

StartChar: oslash
Encoding: 248 248 164
Width: 420
GlyphClass: 2
Flags: HW
HStem: -19 49<185.866 290.931> 385 47<179.241 282.318>
VStem: 63.5 62.4<108.789 304.389> 349.1 54.4<109.681 294.771>
DStem2: 130.7 23 163.5 -1 0.405791 0.913966<-40.4974 1.88808 63.3719 364.321 424.509 480.945>
LayerCount: 2
Fore
SplineSet
419.5 204 m 0
 419.5 49.9346 330.756 -39 233.1 -39 c 0
 211.875 -39 191.143 -34.5518 171.166 -26.1113 c 1
 166.585 -36.585 158.143 -53 141.1 -53 c 0
 116.385 -53 97.0996 -44.1201 97.0996 -20 c 0
 97.0996 -4.94043 102.812 1.6709 110.237 18.1846 c 1
 72.3223 60.8877 47.5 126.367 47.5 204 c 0
 47.5 353.922 138.065 452 236.3 452 c 0
 257.098 452 277.554 446.842 296.618 438.904 c 1
 304.188 457.329 311.229 479 331.5 479 c 0
 344.805 479 376.3 477.896 376.3 442 c 0
 376.3 425.893 369.041 415.848 358.401 392.577 c 1
 401.123 343.395 419.5 272.121 419.5 204 c 0
235.5 50 m 0
 291.734 50 333.1 118.037 333.1 200 c 0
 333.1 228.138 327.3 264.147 314.365 293.963 c 1
 207.442 55.8916 l 1
 217.632 51.4082 226.659 50 235.5 50 c 0
230.7 365 m 0
 198.095 365 141.9 333.49 141.9 209 c 0
 141.9 182.654 145.604 149.299 155.778 120.966 c 1
 260.85 357.044 l 1
 250.989 362.276 241.947 365 230.7 365 c 0
EndSplineSet
EndChar

StartChar: dotlessi
Encoding: 305 305 203
Width: 218
GlyphClass: 2
Flags: HW
HStem: -6 44<38.9121 98.8499 155.379 207.596> 421 20G<144.003 149.203>
VStem: 99.6033 53.6<39.1511 336.573>
LayerCount: 2
Fore
SplineSet
83.6035 121 m 2
 83.6035 236.276 84.3877 295.156 84.4033 313.425 c 1
 78.958 317.104 65.0781 323.726 40.0195 336.451 c 1
 37.2607 337.831 20.4033 345.235 20.4033 368 c 0
 20.4033 399.335 48.9443 405.822 51.2256 407.118 c 1
 133.699 456.681 132.097 461 146.003 461 c 0
 146.804 461 l 0
 158.737 461 174.003 448.636 174.003 425 c 0
 174.003 414.807 169.203 319.928 169.203 198 c 0
 169.203 165 l 0
 169.203 98.2969 170.168 66.4658 172.033 57.1289 c 1
 172.679 57.0029 172.966 56.9531 173.883 56.7969 c 1
 193.283 53.1221 223.604 53.3037 223.604 16 c 0
 223.604 13.3916 225.466 -26 198.003 -26 c 0
 191.309 -26 163.456 -20 124.403 -20 c 0
 84.5156 -20 57.5693 -26 50.8037 -26 c 0
 32.5332 -26 22.8037 -6.05566 22.8037 11 c 0
 22.8037 47.9561 44.7324 52.6318 75.6816 57.79 c 1
 85.4297 59.7393 83.6035 57.793 83.6035 74 c 0
 83.6035 121 l 2
EndSplineSet
EndChar

StartChar: OE
Encoding: 338 338 224
Width: 916
GlyphClass: 2
Flags: HW
HStem: -24 58<338.122 504.617> 0 55<616.286 828.486> 369 58<613.786 781.14> 638 53<613.402 817.838> 667 53<317.171 483.757>
VStem: 116.5 75.2<249.63 473.331> 540.5 72<67.3145 365.5 427 617.33> 782.1 44<271.316 368.907 428.208 513.367>
LayerCount: 2
Fore
SplineSet
628.5 97 m 2
 628.5 87.4648 616.513 75 711.7 75 c 0
 734.914 75 804.409 83.1719 817.788 91.8203 c 1
 820.136 95.1904 829.076 114.3 859.373 178.85 c 1
 865.662 193.26 876.714 206 890.9 206 c 0
 910.956 206 920.5 182.64 920.5 163 c 0
 920.5 162 l 0
 920.5 149.737 919.468 149.528 896.06 15.3232 c 1
 893.825 4.70996 890.44 -4.10156 883.763 -10.7764 c 0
 873.707 -20.8271 862.703 -20 854.9 -20 c 0
 632.5 -20 l 0
 513.073 -20 469.526 -44 422.9 -44 c 0
 246.21 -44 100.5 135.636 100.5 353 c 0
 100.5 566.191 241.294 740 410.9 740 c 0
 463.334 740 498.199 727.399 528.135 720.684 c 1
 560.542 713.318 605.32 711.086 607.188 711 c 1
 850.9 711 l 0
 859.635 711 868.176 707.688 874.05 700.26 c 0
 880.386 692.249 881.619 683.404 882.284 680.494 c 0
 882.284 680.494 826.94 922.686 882.415 679.921 c 1
 905.3 551.195 l 1
 905.3 546 l 0
 905.3 517.479 884.889 505 870.1 505 c 0
 861.841 505 853.99 507.902 848.157 513.941 c 0
 839.738 522.657 837.79 534.324 837.253 536.252 c 1
 803.509 607.86 l 0
 800.658 613.917 798.64 617.15 798.27 617.635 c 1
 797.348 617.844 795.955 618 793.3 618 c 0
 638.1 618 l 0
 629.396 618 629.3 613.981 629.3 613.981 c 1
 629.3 449 l 0
 629.3 448.744 629.36 447.757 629.446 447 c 1
 751.7 447 l 0
 765.352 447 766.1 444.746 766.1 460 c 0
 766.1 491 l 0
 766.1 520.299 786.954 534 802.9 534 c 0
 831.547 534 842.1 505.746 842.1 484 c 0
 842.1 300 l 0
 842.1 288.004 840.272 274.183 831.873 263.594 c 0
 824.563 254.379 814.471 251 804.5 251 c 0
 792.191 251 780.084 254.302 772.453 266.669 c 0
 766.938 275.608 766.1 285.536 766.1 293 c 0
 766.1 347 l 0
 766.1 347.65 766.062 348.59 766.056 348.749 c 1
 764.276 348.975 763.293 349 761.3 349 c 0
 671.7 349 l 0
 641.746 349 630.566 345.109 629.869 344.438 c 1
 629.727 344.13 628.5 339.616 628.5 329 c 0
 628.5 97 l 2
398.9 647 m 2
 398.1 647 l 0
 307.296 647 207.7 570.658 207.7 384 c 0
 207.7 216.334 281.105 54 419.7 54 c 0
 453.447 54 487.595 63.0879 520.345 88.21 c 1
 522.369 89.6562 523.294 90.3184 524.251 91.0244 c 1
 524.435 93.6934 524.5 97.8262 524.5 104 c 0
 524.5 591.793 l 1
 485.426 631.73 441.586 647 398.9 647 c 2
EndSplineSet
EndChar

StartChar: oe
Encoding: 339 339 225
Width: 688
GlyphClass: 2
Flags: HW
HStem: -19 57<495.326 609.667> -19 49<211.366 323.192> 376 55<467.318 562.274> 385 47<210.241 316.484>
VStem: 94.5 62.4<107.025 304.389> 380.1 57.6<117.554 196.704 226.001 294.23> 595.3 77.6<292.942 337.386>
LayerCount: 2
Fore
SplineSet
528.9 451 m 0
 591.021 451 647.616 401.217 678.496 347.021 c 1
 683.067 339.66 688.9 328.905 688.9 313 c 0
 688.9 311.667 l 1
 687.501 259.222 628.379 249.93 612.514 243.092 c 0
 510.761 199.254 468.868 182.228 454.665 175.074 c 1
 459.88 141.169 482.152 58 556.1 58 c 0
 586.588 58 617.835 74.9531 639.511 100.576 c 1
 644.351 107.686 653.477 121 669.7 121 c 0
 676.834 121 684.037 117.981 689.588 111.645 c 0
 695.185 105.257 698.5 95.8262 698.5 86 c 0
 698.5 75.9336 694.953 65.8389 689.378 57.4756 c 1
 654.096 0.464844 596.719 -39 535.3 -39 c 0
 478.892 -39 433.574 -7.10938 404.954 37.833 c 1
 370.005 -11.8867 317.883 -39 264.1 -39 c 0
 152.845 -39 78.5 71.6572 78.5 204 c 0
 78.5 353.922 169.065 452 267.3 452 c 0
 318.896 452 370.344 423.727 405.111 371.948 c 1
 431.546 415.062 473.839 451 528.9 451 c 0
575.671 313.353 m 1
 564.177 330.748 537.081 356 511.3 356 c 0
 480.219 356 455.408 323.685 451.089 253.158 c 1
 486.338 269.938 554.638 303.052 575.671 313.353 c 1
266.5 50 m 0
 322.734 50 364.1 118.037 364.1 200 c 0
 364.1 299.021 311.104 365 261.7 365 c 0
 229.095 365 172.9 333.49 172.9 209 c 0
 172.9 110.882 212.957 50 266.5 50 c 0
EndSplineSet
EndChar

StartChar: Scedilla
Encoding: 350 350 236
Width: 443
GlyphClass: 2
Flags: HW
HStem: -195 36<200.914 273.786> -16 55<189.61 232.8 253.215 311.764> 635 50<160.41 265.563>
VStem: 75.2 57.6<479.18 595.956> 88 40<112.089 247.636> 276.8 48.8<-156.256 -91.5187> 368 58.4<105.358 250.11>
LayerCount: 2
Fore
SplineSet
341.6 -120 m 2
 341.6 -159.212 322.064 -215 260 -215 c 0
 232.365 -215 198.901 -208.562 186.98 -197.849 c 1
 180.245 -191.251 177.6 -182.604 177.6 -175 c 0
 177.6 -175 175.106 -131 204.8 -131 c 0
 213.369 -131 232.674 -139 246.4 -139 c 0
 257.976 -139 260.8 -132.431 260.8 -127 c 0
 260.8 -116.065 248.799 -97.9443 219.467 -95.0059 c 1
 217.682 -94.9434 200 -92.9453 200 -72 c 0
 200 -57.6279 205.4 -50.0361 210.799 -32.2969 c 1
 150.787 -17.6943 116.189 26.1777 110.78 29.9082 c 1
 110.081 30.3154 l 1
 109.368 30.8506 l 0
 108.845 31.2432 106.797 32 104.8 32 c 0
 100.346 32 95.1631 29 84 29 c 0
 63.6836 29 53.5996 49.0137 53.5996 64 c 0
 53.5996 85.1025 64.8096 113.935 72.0566 228.692 c 1
 72.6094 236.281 73.9141 246.661 80.6543 255.774 c 0
 86.9463 264.279 96.2266 268 105.6 268 c 0
 111.634 268 119.17 267.34 126.194 261.049 c 0
 142.066 246.834 140.807 223.822 143.903 192.211 c 1
 150.062 115.231 136.283 159.194 161.646 116.924 c 1
 179.323 86.8721 210.868 59 252 59 c 0
 307.092 59 352 111.926 352 178 c 0
 352 215.155 337.251 249.2 312.216 271.801 c 0
 270.853 309.243 222.343 306.272 164.502 335.408 c 1
 93.2617 370.161 59.2002 443.005 59.2002 516 c 0
 59.2002 616.312 125.89 705 218.4 705 c 0
 271.873 705 304.761 678.415 318.8 668.131 c 1
 322.962 677.481 331.335 705 355.2 705 c 0
 373.184 705 384 685.058 384 666 c 0
 384 654.019 380.8 632.683 380.8 583 c 0
 380.8 534.338 384 514.071 384 502 c 0
 384 492.219 380.796 482.004 374.443 475.386 c 0
 368.277 468.963 360.933 467 354.4 467 c 0
 353.351 467 l 1
 312.042 468.614 315.726 523.768 286.425 565.735 c 1
 266.76 593.047 239.099 615 210.4 615 c 0
 174.068 615 148.8 581.871 148.8 541 c 0
 148.8 511.633 161.252 485.478 182.914 466.262 c 1
 220.854 432.011 275.997 432.865 331.875 403.398 c 1
 394.383 369.758 442.4 297.792 442.4 198 c 0
 442.4 92.0381 384.601 -5.91113 295.453 -31.2275 c 1
 323.396 -45.166 341.6 -76.3926 341.6 -119 c 0
 341.6 -120 l 2
EndSplineSet
EndChar

StartChar: scedilla
Encoding: 351 351 237
Width: 306
GlyphClass: 2
Flags: HW
HStem: -195 36<116.514 189.386> -19 54<120.4 148.4 168.403 226.751> 380 47<114.536 205.094> 412 20G<230.8 240.4>
VStem: 57.2 32<71.0105 155.76> 60.4 43.2<283.553 367.539> 192.4 48.8<-156.256 -91.5187> 219.6 44<295.352 359.134> 245.2 53.6<56.0454 149.045>
LayerCount: 2
Back
SplineSet
57.2002 104 m 6x9f
 57.2002 141 54.7998 156 70.7998 156 c 4x9f
 90.7998 156 78 122 89.2002 94 c 4
 97.2002 73 134 35 180.4 35 c 4
 216.4 35 245.2 62 245.2 102 c 4
 245.2 168 174.8 178 149.2 187 c 4
 84.4004 210 60.4004 260 60.4004 309 c 4
 60.4004 369 103.6 427 175.6 427 c 4
 199.6 427 211.6 422 215.6 422 c 4
 222.8 422 226 432 235.6 432 c 4
 245.2 432 247.6 418 248.4 413 c 4
 253.2 378 263.6 312 263.6 308 c 4
 263.6 295 251.6 292 245.2 292 c 4
 228.4 292 230.8 321 219.6 341 c 4
 209.2 359 180.4 380 154 380 c 4
 126.8 380 103.6 359 103.6 327 c 4
 103.6 313 107.6 276 166.8 255 c 4
 207.6 241 245.2 238 274.8 195 c 4
 295.6 165 298.8 132 298.8 116 c 4
 298.8 52 256.4 -19 177.2 -19 c 6
 174 -19 l 5
 169.2 -36 168.4 -38 168.4 -40 c 4
 168.4 -42 169.2 -43 171.6 -43 c 6
 174 -43 l 6
 212.4 -43 241.2 -69 241.2 -119 c 6
 241.2 -120 l 6
 241.2 -152 227.6 -195 175.6 -195 c 4xaf
 150 -195 115.6 -186 112.4 -182 c 4
 110 -180 109.2 -178 109.2 -175 c 4
 109.2 -174 111.6 -151 120.4 -151 c 4x4f
 121.2 -151 146.8 -159 162 -159 c 4
 179.6 -159 192.4 -146 192.4 -127 c 4
 192.4 -100 169.2 -78 135.6 -75 c 4
 134 -75 131.6 -75 131.6 -72 c 4
 131.6 -71 142.8 -35 148.4 -16 c 5
 118 -11 68.4004 11 58.7998 47 c 4
 57.2002 53 57.2002 59 57.2002 65 c 6
 57.2002 104 l 6x9f
EndSplineSet
Fore
SplineSet
41.2002 126 m 2
 41.2002 144.968 44.8779 176 70.7998 176 c 0
 107.676 176 103.58 102.772 103.58 102.772 c 1
 108.359 90.2236 140.398 55 180.4 55 c 0
 210.754 55 229.2 76.2891 229.2 102 c 0
 229.2 146.943 177.67 156.215 144.852 167.753 c 1
 74.6123 192.683 44.4004 250.477 44.4004 309 c 0
 44.4004 381.912 96.6328 447 175.6 447 c 0
 195.432 447 209.181 443.525 214.34 442.359 c 1
 216.99 444.643 224.56 452 235.6 452 c 0
 260.636 452 263.785 418.825 264.133 416.652 c 1
 269.165 379.959 279.6 319.547 279.6 308 c 0
 279.6 288.319 267.106 278.099 259.259 274.81 c 0
 253.948 272.585 249.194 272 245.2 272 c 0
 212.803 272 208.33 326.25 206.56 329.41 c 1
 199.936 340.876 174.414 360 154 360 c 0
 132.517 360 119.6 344.677 119.6 327 c 0
 119.6 320.731 117.724 293.199 171.102 274.264 c 1
 208.947 261.278 252.799 257.623 286.909 208.072 c 1
 311.062 173.236 314.8 135.009 314.8 116 c 0
 314.8 52.1064 278.654 -14.9326 214.216 -33.8779 c 1
 240.423 -49.2686 257.2 -78.7256 257.2 -119 c 0
 257.2 -120 l 0
 257.2 -159.212 237.664 -215 175.6 -215 c 0
 147.966 -215 114.502 -208.562 102.579 -197.848 c 1
 95.8447 -191.251 93.2002 -182.604 93.2002 -175 c 0
 93.2002 -175 90.7061 -131 120.4 -131 c 0
 128.97 -131 148.273 -139 162 -139 c 0
 173.575 -139 176.4 -132.431 176.4 -127 c 0
 176.4 -116.065 164.399 -97.9443 135.066 -95.0059 c 1
 133.281 -94.9434 115.6 -92.9453 115.6 -72 c 0
 115.6 -57.5586 121.241 -49.2549 126.786 -31.0195 c 1
 102.647 -23.292 78.0869 -11.4307 59.6064 10.707 c 1
 49.2256 23.6846 41.2002 39.9883 41.2002 65 c 0
 41.2002 126 l 2
EndSplineSet
EndChar

StartChar: Tcommaaccent
Encoding: 354 354 240
Width: 623
GlyphClass: 2
Flags: HW
HStem: -195 36<298.214 371.086> -6 53<231.876 316.149 391.732 478.536> 622 66<146.102 316.984 391.79 556.886>
VStem: 317.3 74.4<49.375 621.698> 374.1 48.8<-156.256 -91.5187>
LayerCount: 2
Fore
SplineSet
438.9 -120 m 2
 438.9 -159.212 419.364 -215 357.3 -215 c 0
 329.666 -215 296.201 -208.562 284.279 -197.848 c 1
 277.545 -191.251 274.9 -182.604 274.9 -175 c 0
 274.9 -175 272.406 -131 302.1 -131 c 0
 310.67 -131 329.974 -139 343.7 -139 c 0
 355.275 -139 358.1 -132.431 358.1 -127 c 0
 358.1 -116.065 346.1 -97.9443 316.767 -95.0059 c 1
 314.981 -94.9434 297.3 -92.9453 297.3 -72 c 0
 297.3 -57.791 304.89 -42.6299 311.762 -20.791 c 1
 274.446 -22.5859 258.054 -26 247.7 -26 c 0
 240.633 -26 233.379 -23.5186 227.688 -17.8115 c 0
 216.67 -6.75879 215.7 9.29492 215.7 20 c 0
 215.7 28.2324 216.135 38.7588 222.332 48.0732 c 0
 236.016 68.6416 257.088 63.1006 288.533 66.9043 c 1
 304.091 68.8486 301.3 68.7754 301.3 84 c 0
 301.3 591 l 0
 301.3 596.216 300.894 600.143 300.612 601.26 c 1
 299.723 601.627 298.397 602 295.7 602 c 0
 176.5 602 l 0
 166.485 602 163.726 600.248 163.726 600.248 c 1
 163.67 600.181 162.554 598.413 160.393 593.011 c 1
 130.541 519.291 126.903 489 97.2998 489 c 0
 76.3682 489 63.7002 511.776 63.7002 534 c 0
 63.7002 535 l 0
 63.7002 546.939 64.8252 548.019 87.2598 677.219 c 1
 91.918 704.39 112.303 708 119.7 708 c 0
 586.1 708 l 0
 593.289 708 600.965 705.676 606.884 699.221 c 0
 616.414 688.828 617.064 674.941 617.864 668.446 c 1
 633.839 566.617 637.3 548.802 637.3 537 c 0
 637.3 516.954 625.876 495 606.1 495 c 0
 584.362 495 575.848 519.618 573.818 524.054 c 0
 533.85 611.227 542.117 602 526.9 602 c 0
 409.3 602 l 0
 408.783 602 408.055 601.951 407.932 601.942 c 1
 407.71 599.441 407.7 597.938 407.7 595 c 0
 407.7 71 l 0
 407.7 70.2686 407.723 69.3271 407.731 69.0459 c 1
 414.632 66.75 433.093 65.6035 466.208 61.8887 c 1
 473.168 60.8008 480.768 58.8447 487.053 50.3477 c 0
 495.766 38.5693 494.9 25.0801 494.9 14 c 0
 494.9 -0.166016 487.879 -26 465.3 -26 c 0
 458.692 -26 422.116 -20.873 372.547 -20.082 c 1
 371.854 -22.5068 371.776 -22.7803 371.339 -24.3164 c 1
 410.158 -31.4521 438.9 -64.9102 438.9 -119 c 0
 438.9 -120 l 2
EndSplineSet
EndChar

StartChar: tcommaaccent
Encoding: 355 355 241
Width: 300
GlyphClass: 2
Flags: HW
HStem: -195 36<124.814 197.686> -18 64<177.21 227.765> 363 54<159.105 266.95>
VStem: 95.1 55.2<55.2482 362.954> 200.7 48.8<-156.256 -91.5187>
LayerCount: 2
Fore
SplineSet
167.054 343.001 m 1
 166.299 166.084 166.3 143.441 166.3 120 c 0
 166.3 84.8145 172.894 66 191.1 66 c 0
 219.453 66 241.883 126 278.3 126 c 0
 286.639 126 294.232 121.754 299.519 115.278 c 0
 305.449 108.012 308.7 98.2217 308.7 88 c 0
 308.7 71.8486 300.992 60.9932 300.413 59.9062 c 0
 299.866 58.8818 l 1
 299.224 57.9492 l 0
 264.818 8.00586 237.263 -16.7432 213.938 -28.8193 c 1
 244.576 -41.1914 265.5 -73.3271 265.5 -119 c 0
 265.5 -120 l 2
 265.5 -159.212 245.964 -215 183.9 -215 c 0
 156.266 -215 122.802 -208.562 110.88 -197.848 c 1
 104.145 -191.251 101.5 -182.604 101.5 -175 c 0
 101.5 -175 99.0059 -131 128.7 -131 c 0
 137.27 -131 156.573 -139 170.3 -139 c 0
 181.875 -139 184.7 -132.431 184.7 -127 c 0
 184.7 -116.065 172.699 -97.9443 143.366 -95.0059 c 1
 141.582 -94.9434 123.9 -92.9453 123.9 -72 c 0
 123.9 -57.6904 130.724 -45.3887 136.489 -27.3955 c 1
 99.5557 -4.37207 82.8398 44.2275 79.1582 101.291 c 1
 78.2949 113.165 78.2998 124.093 78.2998 135 c 0
 78.2998 174.846 80.8691 303.831 81.4004 345 c 1
 66.2998 345 l 0
 61.3516 345 34.2998 346.02 34.2998 378 c 0
 34.2998 418.271 79.6777 429.887 119.74 515.207 c 1
 120.12 515.998 127.836 543 149.5 543 c 0
 161.291 543 175.9 530.29 175.9 507 c 0
 175.9 492.46 175.1 450.514 175.1 437 c 0
 247.1 437 l 0
 250.839 437 253.64 436.061 253.885 436 c 1
 259.344 435.993 290.3 434.987 290.3 397 c 0
 290.3 385.779 288.209 368.422 279.392 355.196 c 0
 278.927 354.499 l 1
 278.414 353.858 l 0
 270.627 344.125 260.439 343 252.7 343 c 0
 167.054 343.001 l 1
EndSplineSet
EndChar

StartChar: longs
Encoding: 383 383 261
Width: 231
GlyphClass: 2
Flags: HW
HStem: -6 45<53.4542 102.865 161.4 222.99> 360 48<47.4055 104.784> 653 67<218.546 314.935>
VStem: 106.2 55.2<38.7292 359.683 408.753 564.612>
LayerCount: 2
Fore
SplineSet
65.4004 -26 m 0
 38.0762 -26 37.4004 10.9727 37.4004 19 c 0
 37.4004 54.8584 66.7842 54.499 86.6943 58.3916 c 1
 86.8408 60.8896 86.8906 62.1963 87.0527 64.6279 c 1
 88.5098 87.3955 90.1338 154.348 90.1982 339.661 c 1
 83.6533 339.764 75.29 339.696 63.6328 340 c 1
 61.3613 340 52.6572 339.179 43.8809 346.176 c 0
 36 352.46 31 364.632 31 378 c 0
 31 394.242 33.5068 410.373 44.167 420.435 c 0
 50.4287 426.345 58.1211 428 63.4805 428 c 1
 74.2041 428.536 84.8496 428.682 88.8369 428.75 c 1
 90.2041 473.499 95.1309 555.092 125.151 621.017 c 1
 160.44 696.006 230.441 740 285.4 740 c 0
 335.68 740 359 701.072 359 668 c 0
 359 638.618 340.078 609 309.4 609 c 0
 277.759 609 259.438 633 243 633 c 0
 204.401 633 176.6 555.977 176.6 436 c 0
 176.6 421.993 177.4 407.265 177.4 365 c 0
 177.4 61 l 0
 177.4 59.4111 177.453 57.835 177.502 57.04 c 1
 178.299 56.9551 177.715 57.0068 178.514 56.9541 c 1
 183.039 56.4629 186.118 56.2041 189.593 55.9492 c 0
 210.827 54.3926 239 55.6924 239 16 c 0
 239 1.67578 233.199 -26 210.2 -26 c 0
 205.138 -26 199.586 -24.4688 186.219 -22.9141 c 0
 173.663 -21.4541 156.736 -20 138.2 -20 c 0
 99.1279 -20 72.1826 -26 65.4004 -26 c 0
EndSplineSet
EndChar

StartChar: uni0237
Encoding: 567 567 262
Width: 198
GlyphClass: 2
Flags: HW
HStem: -231 77<-11.0134 56.3828> 422 20G<135 139.4>
VStem: 89 56.8<-117.424 346.052>
LayerCount: 2
Fore
SplineSet
72.2002 102 m 0
 72.2002 229.068 73.7998 293.773 73.7998 314 c 0
 73.7998 318.052 73.4961 319.846 73.4805 319.917 c 1
 72.8652 320.969 61.2021 330.788 33.9893 351.527 c 1
 28.2812 355.42 18.5996 363.779 18.5996 381 c 0
 18.5996 411.582 36.7744 411.525 123.862 458.15 c 1
 124.513 458.556 130.218 462 136.2 462 c 0
 157.517 462 160.2 434.438 160.2 426 c 0
 160.2 406.137 158.6 349.929 158.6 235 c 0
 158.6 55.0977 161.8 -33.9092 161.8 -65 c 0
 161.8 -88.2969 155.704 -103.985 146.946 -120.406 c 1
 141.754 -129.392 127.348 -153.894 107.715 -180.044 c 0
 83.5957 -212.17 50.4111 -251 14.5996 -251 c 0
 -9.0127 -251 -31.7998 -230.044 -31.7998 -197 c 0
 -31.7998 -168.963 -14.2715 -134 19.4004 -134 c 0
 31.2617 -134 38.7773 -137 43.4004 -137 c 0
 47.6953 -137 55.6064 -135.148 61.7461 -127.087 c 0
 67.0439 -120.131 73 -106.556 73 -78 c 0
 73 -60.4551 72.2002 -6.04004 72.2002 102 c 0
EndSplineSet
EndChar

StartChar: circumflex
Encoding: 710 710 263
Width: 193
GlyphClass: 2
Flags: HW
HStem: 479 221
VStem: 34.3 146.4<482 499>
LayerCount: 2
Fore
SplineSet
46.2998 459 m 0
 38.0938 459 18.2998 466.675 18.2998 494 c 0
 18.2998 513.093 53.6357 635.67 69.25 679.044 c 1
 70.4131 682.436 79.4111 720 107.1 720 c 0
 148.591 720 159.33 635.742 193.45 512.431 c 1
 193.677 511.583 196.7 505.299 196.7 495 c 0
 196.7 466.756 176.547 459 168.7 459 c 0
 149.718 459 140.825 477.865 134.092 491.893 c 1
 120.104 522.493 111.537 541.722 107.32 550.511 c 1
 101.949 539.62 93.9473 521.461 79.2373 489.742 c 1
 72.9268 476.925 64.1553 459 46.2998 459 c 0
EndSplineSet
EndChar

StartChar: caron
Encoding: 711 711 264
Width: 193
GlyphClass: 2
Flags: HW
HStem: 479 221
VStem: 34.3 146.4<680 697>
LayerCount: 2
Fore
SplineSet
168.7 720 m 0
 176.906 720 196.7 712.325 196.7 685 c 0
 196.7 665.908 161.291 542.445 145.716 499.859 c 1
 144.033 494.936 135.138 459 107.9 459 c 0
 66.4092 459 55.6689 543.258 21.5498 666.569 c 1
 21.3232 667.417 18.2998 673.701 18.2998 684 c 0
 18.2998 712.244 38.4531 720 46.2998 720 c 0
 65.2891 720 74.1572 701.171 80.9268 687.068 c 1
 88.3408 670.671 101.377 642.354 107.748 628.458 c 1
 113.437 639.906 121.379 657.689 135.657 688.03 c 1
 141.733 701.322 150.713 720 168.7 720 c 0
EndSplineSet
EndChar

StartChar: breve
Encoding: 728 728 265
Width: 244
GlyphClass: 2
Flags: HW
HStem: 481 68<94.2634 173.211>
VStem: 39.2 45.6<564.065 630.344>
LayerCount: 2
Fore
SplineSet
23.2002 633 m 2
 23.2002 666.579 55.2197 663 56.7998 663 c 0
 87.7344 663 86.5508 613.575 97.4707 595.217 c 1
 108.331 578.247 120.46 569 132.8 569 c 0
 133.6 569 l 0
 168.383 569 187.872 631.815 195.487 646.094 c 0
 197.633 650.116 205.309 662 218.4 662 c 0
 218.427 662 248.8 667.111 248.8 635 c 0
 248.8 624.627 225.891 461 129.6 461 c 0
 83.5166 461 39.9971 503.402 23.4209 626.685 c 0
 23.2002 628.331 l 1
 23.2002 633 l 2
EndSplineSet
EndChar

StartChar: dotaccent
Encoding: 729 729 266
Width: 131
GlyphClass: 2
Flags: HW
HStem: 479 112<37.2039 109.249>
VStem: 26.6 92.8<492.202 577.369>
LayerCount: 2
Fore
SplineSet
10.5996 534 m 0
 10.5996 577.986 40.6348 611 73 611 c 0
 106.935 611 135.4 577.656 135.4 535 c 0
 135.4 492.037 106.082 459 73 459 c 0
 39.4541 459 10.5996 491.005 10.5996 534 c 0
EndSplineSet
EndChar

StartChar: ring
Encoding: 730 730 267
Width: 176
GlyphClass: 2
Flags: HW
HStem: 474 39<70.021 126.569> 612 38<70.2614 126.167>
VStem: 30 32<522.079 602.575> 134.8 31.2<521.969 601.702>
LayerCount: 2
Fore
SplineSet
98 670 m 0
 145.998 670 182 619.152 182 562 c 0
 182 502.545 144.853 454 98 454 c 0
 51.9863 454 14 502.34 14 562 c 0
 14 620.618 51.8232 670 98 670 c 0
98 592 m 0
 88.3125 592 78 579.562 78 563 c 0
 78 545.339 88.1777 533 98.7998 533 c 0
 109.424 533 118.8 546.481 118.8 562 c 0
 118.8 577.821 108.061 592 98 592 c 0
EndSplineSet
EndChar

StartChar: tilde
Encoding: 732 732 268
Width: 302
GlyphClass: 2
Flags: HW
HStem: 568 54<167.056 244.541> 613 52<83.3303 150.855>
VStem: 46.4 243.2
LayerCount: 2
Fore
SplineSet
212 642 m 0
 241.321 642 240.75 688 274.4 688 c 0
 280.211 688 305.6 684.559 305.6 655 c 0
 305.6 629 274.68 593.011 254.544 574.135 c 1
 242.027 561.842 222.557 548 198.4 548 c 0
 146.64 548 130.668 593 112.8 593 c 0
 85.4258 593 91.3906 541 56.7998 541 c 0
 40.0537 541 30.4004 559.256 30.4004 576 c 0
 30.4004 597.368 58.0635 639.864 71.0859 656.142 c 0
 81.8975 669.656 98.2979 685 122.4 685 c 0
 169.898 685 187.505 642 212 642 c 0
EndSplineSet
EndChar

StartChar: emdash
Encoding: 8212 8212 270
Width: 961
GlyphClass: 2
Flags: HW
HStem: 224 55<128.527 940.403>
LayerCount: 2
Fore
SplineSet
112.499 250 m 2
 112.499 254 l 0
 112.499 261.485 112.177 299 139.698 299 c 0
 929.299 299 l 0
 957.723 299 956.499 258.963 956.499 254 c 0
 956.499 252 l 0
 956.499 231.438 951.579 204 929.299 204 c 0
 139.698 204 l 0
 110.825 204 112.499 244.144 112.499 250 c 2
EndSplineSet
EndChar

StartChar: quoteleft
Encoding: 8216 8216 271
Width: 204
GlyphClass: 2
Flags: HW
HStem: 464 98<88.7266 162.887>
VStem: 54 31.2<567.528 642.282>
LayerCount: 2
Fore
SplineSet
122.8 444 m 0
 85.9805 444 38 482.185 38 576 c 0
 38 660.479 72.5488 707 98.7998 707 c 0
 99.5254 707 l 1
 100.249 706.918 l 0
 117.043 705.01 130 687.737 130 667 c 0
 130 626.139 101.2 625.872 101.2 600 c 0
 101.2 592.118 102.091 582 119.6 582 c 0
 122.627 582 127.427 583 134 583 c 0
 175.922 583 190 543.851 190 520 c 0
 190 483.667 164.295 444 122.8 444 c 0
EndSplineSet
EndChar

StartChar: quoteright
Encoding: 8217 8217 272
Width: 204
GlyphClass: 2
Flags: HW
HStem: 586 98<64.6201 138.726>
VStem: 142 32<505.811 580.483>
LayerCount: 2
Fore
SplineSet
104.4 704 m 0
 141.058 704 190 666.071 190 572 c 0
 190 546.975 186.968 525.822 182.079 508.307 c 0
 170.355 466.307 148.074 442 128.4 442 c 0
 110.327 442 97.2002 460.529 97.2002 481 c 0
 97.2002 512.847 120.963 524.775 124.61 538.263 c 0
 125.484 541.494 126 544.907 126 549 c 0
 126 555.497 125.37 566 107.6 566 c 0
 104.573 566 99.7734 565 93.2002 565 c 0
 50.9619 565 38 604.874 38 628 c 0
 38 663.852 62.6523 704 104.4 704 c 0
EndSplineSet
EndChar

StartChar: quotesinglbase
Encoding: 8218 8218 273
Width: 204
GlyphClass: 2
Flags: HW
HStem: -44 98<64.1131 137.922>
VStem: 141 32<-124.657 -49.5172>
LayerCount: 2
Fore
SplineSet
104.2 74 m 0
 140.2 74 189 35.9775 189 -58 c 0
 189 -142.689 154.194 -188 128.2 -188 c 0
 110.127 -188 97 -169.471 97 -149 c 0
 97 -108.244 125 -106.832 125 -81 c 0
 125 -73.9189 124.995 -64 106.6 -64 c 0
 103.709 -64 99.709 -65 93 -65 c 0
 51.0781 -65 37 -25.8506 37 -2 c 0
 37 34.333 62.7041 74 104.2 74 c 0
EndSplineSet
EndChar

StartChar: quotedblleft
Encoding: 8220 8220 274
Width: 374
GlyphClass: 2
Flags: HW
HStem: 464 98<107.273 181.38 259.274 333.38>
VStem: 72 32<567.528 642.751> 224 32<567.528 642.751>
LayerCount: 2
Fore
SplineSet
293.6 444 m 0
 256.942 444 208 481.929 208 576 c 0
 208 603.815 211.748 626.927 217.604 645.597 c 0
 229.62 683.902 250.441 707 269.6 707 c 0
 270.325 707 l 1
 271.049 706.918 l 0
 287.843 705.01 300.8 687.737 300.8 667 c 0
 300.8 636.305 277.768 624.823 273.827 612.232 c 0
 272.681 608.57 272 604.727 272 600 c 0
 272 591.548 272.226 582 290.4 582 c 0
 293.427 582 298.228 583 304.8 583 c 0
 347.038 583 360 543.126 360 520 c 0
 360 484.148 335.348 444 293.6 444 c 0
141.6 444 m 0
 104.942 444 56 481.929 56 576 c 0
 56 603.815 59.748 626.927 65.6045 645.597 c 0
 77.6201 683.902 98.4414 707 117.6 707 c 0
 118.325 707 l 1
 119.049 706.918 l 0
 135.843 705.01 148.8 687.737 148.8 667 c 0
 148.8 636.305 125.768 624.823 121.827 612.232 c 0
 120.681 608.57 120 604.727 120 600 c 0
 120 591.548 120.226 582 138.4 582 c 0
 141.427 582 146.228 583 152.8 583 c 0
 195.038 583 208 543.126 208 520 c 0
 208 484.148 183.348 444 141.6 444 c 0
EndSplineSet
Substitution2: "'ss01' Style Set 1 in Latin lookup 0 subtable" quotedblleft.001
EndChar

StartChar: quotedblright
Encoding: 8221 8221 275
Width: 374
GlyphClass: 2
Flags: HW
HStem: 586 98<83.1131 156.922 235.113 308.922>
VStem: 160 32<505.343 580.483> 312 32<505.343 580.483>
LayerCount: 2
Fore
SplineSet
123.2 704 m 0
 159.2 704 208 665.979 208 572 c 0
 208 487.311 173.194 442 147.2 442 c 0
 146.4 442 l 0
 127.727 442 116 462.234 116 481 c 0
 116 521.756 144 523.168 144 549 c 0
 144 556.081 143.995 566 125.6 566 c 0
 122.709 566 118.709 565 112 565 c 0
 70.0781 565 56 604.149 56 628 c 0
 56 664.333 81.7041 704 123.2 704 c 0
275.2 704 m 0
 311.2 704 360 665.979 360 572 c 0
 360 487.311 325.194 442 299.2 442 c 0
 298.4 442 l 0
 279.727 442 268 462.234 268 481 c 0
 268 521.756 296 523.168 296 549 c 0
 296 556.081 295.995 566 277.6 566 c 0
 274.709 566 270.709 565 264 565 c 0
 222.078 565 208 604.149 208 628 c 0
 208 664.333 233.705 704 275.2 704 c 0
EndSplineSet
Substitution2: "'ss01' Style Set 1 in Latin lookup 0 subtable" quotedblright.001
EndChar

StartChar: bullet
Encoding: 8226 8226 277
Width: 257
GlyphClass: 2
Flags: HW
HStem: 188 160<99.8275 186.173>
VStem: 79 128<214.034 321.966>
LayerCount: 2
Fore
SplineSet
143 168 m 0
 96.748 168 63 216.505 63 268 c 0
 63 325.814 101.804 368 143 368 c 0
 189.251 368 223 319.495 223 268 c 0
 223 210.186 184.196 168 143 168 c 0
EndSplineSet
EndChar

StartChar: guilsinglleft
Encoding: 8249 8249 280
Width: 200
GlyphClass: 2
Flags: HW
HStem: 52 282<165.5 175.9>
VStem: 39.9 63.2<170.963 215.713>
LayerCount: 2
Fore
SplineSet
35.4688 219.596 m 0
 154.33 347.51 152.245 354 170.3 354 c 0
 190.29 354 199.1 330.229 199.1 315 c 0
 199.1 293.976 192.592 293.175 121.964 192.971 c 1
 129.836 180.855 150.009 151.959 190.4 93.248 c 1
 195.399 86.2568 198.3 82.0605 198.3 71 c 0
 198.3 54.5889 188.819 32 169.5 32 c 0
 158.309 32 153.34 39.0215 131.084 62.9219 c 0
 113.576 81.7246 84.1689 113.798 33.4092 168.899 c 0
 32.9844 169.361 l 1
 32.5859 169.858 l 0
 31.4141 171.323 23.9004 178.729 23.9004 193 c 0
 23.9004 207.632 31.7217 216.083 35.4688 219.596 c 0
EndSplineSet
EndChar

StartChar: guilsinglright
Encoding: 8250 8250 281
Width: 200
GlyphClass: 2
Flags: HW
HStem: 52 282<47.9 56.7>
VStem: 119.9 63.2<170.161 215.625>
LayerCount: 2
Fore
SplineSet
52.7002 354 m 0
 70.8174 354 68.6855 346.664 187.51 219.616 c 1
 190.473 216.838 199.1 207.496 199.1 193 c 0
 199.1 192 l 0
 199.1 167.347 188.397 167.446 105.172 77.7383 c 0
 95.5459 67.3613 83.6621 54.5273 72.4082 42.3506 c 1
 69.7354 39.0098 62.5312 32 53.5 32 c 0
 44.3936 32 38.126 37.7256 33.7529 43.3848 c 0
 28.959 49.5898 24.7002 58.4854 24.7002 70 c 0
 24.7002 77.8389 27.5059 86.791 32.5859 93.1426 c 1
 32.5859 93.1426 55.5771 126.64 56.5957 128.12 c 0
 81.9717 164.992 94.9326 183.888 100.95 193.07 c 1
 76.6357 227.426 54.6162 258.517 31.0586 291.804 c 1
 25.3086 299.98 23.9004 307.821 23.9004 315 c 0
 23.9004 334.578 35.8027 354 52.7002 354 c 0
EndSplineSet
EndChar

StartChar: fraction
Encoding: 8260 8260 282
Width: 391
GlyphClass: 2
Flags: HW
LayerCount: 2
Fore
SplineSet
71.5 -207 m 1
 71.5 -207 32.2998 -212.051 32.2998 -173 c 0
 32.2998 -152.259 33.6963 -160.783 335.644 580.079 c 0
 335.896 580.696 l 1
 336.18 581.29 l 0
 339.342 587.876 348.16 600 361.9 600 c 0
 365.19 600 402.7 600.942 402.7 562 c 0
 402.7 550.497 399.479 545.675 399.479 545.675 c 0
 399.096 544.239 l 1
 398.544 542.891 l 0
 97.2129 -193.376 102.615 -185.39 93.2139 -197.142 c 0
 86.5088 -205.524 77.7041 -207 71.5 -207 c 1
EndSplineSet
EndChar

